<svg width="1158" height="348" viewBox="0 0 1158 348" fill="none" xmlns="http://www.w3.org/2000/svg">
<rect x="0.592773" y="0.256592" width="1156.81" height="347.743" fill="#B8E7FB"/>
<path d="M651.848 279.113L697.359 267.013L700.825 281.907L655.314 294.007L651.848 279.113Z" fill="white"/>
<path d="M706.43 265.92C707.441 270.261 704.685 274.731 700.275 275.903C695.866 277.075 691.472 274.506 690.462 270.165C689.451 265.824 692.207 261.354 696.617 260.182C701.026 259.009 705.42 261.578 706.43 265.92Z" fill="white"/>
<path d="M661.622 277.393C662.632 281.735 659.876 286.205 655.467 287.377C651.057 288.549 646.663 285.98 645.653 281.639C644.643 277.298 647.398 272.828 651.808 271.655C656.218 270.483 660.611 273.052 661.622 277.393Z" fill="white"/>
<path d="M709.126 277.504C710.137 281.845 707.381 286.315 702.972 287.487C698.562 288.66 694.168 286.091 693.158 281.749C692.147 277.408 694.903 272.938 699.313 271.766C703.722 270.593 708.116 273.162 709.126 277.504Z" fill="white"/>
<path d="M664.318 288.978C665.328 293.319 662.573 297.789 658.163 298.961C653.753 300.134 649.359 297.565 648.349 293.223C647.339 288.882 650.094 284.412 654.504 283.24C658.914 282.067 663.307 284.636 664.318 288.978Z" fill="white"/>
<path d="M561.256 280.805L593.41 316.165L582.413 326.458L550.259 291.098L561.256 280.805Z" fill="white"/>
<path d="M598.699 323.847C595.493 326.847 590.369 326.502 587.254 323.075C584.138 319.649 584.211 314.44 587.417 311.44C590.622 308.44 595.746 308.785 598.862 312.211C601.977 315.638 601.904 320.847 598.699 323.847Z" fill="white"/>
<path d="M567.415 288.821C564.209 291.821 559.085 291.476 555.97 288.05C552.854 284.624 552.927 279.414 556.133 276.414C559.338 273.414 564.462 273.76 567.577 277.186C570.693 280.612 570.62 285.821 567.415 288.821Z" fill="white"/>
<path d="M590.146 331.852C586.94 334.852 581.816 334.507 578.701 331.081C575.585 327.654 575.658 322.445 578.864 319.445C582.069 316.445 587.193 316.79 590.308 320.216C593.424 323.643 593.351 328.852 590.146 331.852Z" fill="white"/>
<path d="M558.861 296.827C555.656 299.827 550.532 299.481 547.417 296.055C544.301 292.629 544.374 287.42 547.579 284.419C550.785 281.419 555.909 281.765 559.024 285.191C562.14 288.617 562.067 293.826 558.861 296.827Z" fill="white"/>
<path d="M250.643 71.7363L285.405 38.0902L295.044 49.4666L260.282 83.1127L250.643 71.7363Z" fill="white"/>
<path d="M292.917 32.5451C295.726 35.8612 295.274 41.1921 291.905 44.4522C288.537 47.7122 283.529 47.6668 280.72 44.3508C277.91 41.0347 278.363 35.7038 281.731 32.4437C285.099 29.1837 290.107 29.2291 292.917 32.5451Z" fill="white"/>
<path d="M258.497 65.2849C261.306 68.601 260.853 73.9319 257.485 77.192C254.117 80.452 249.109 80.4066 246.299 77.0906C243.49 73.7745 243.943 68.4436 247.311 65.1835C250.679 61.9235 255.687 61.9689 258.497 65.2849Z" fill="white"/>
<path d="M300.414 41.3934C303.223 44.7095 302.77 50.0405 299.402 53.3005C296.034 56.5605 291.026 56.5151 288.216 53.1991C285.407 49.8831 285.86 44.5521 289.228 41.292C292.596 38.032 297.604 38.0774 300.414 41.3934Z" fill="white"/>
<path d="M265.994 74.1333C268.803 77.4493 268.35 82.7803 264.982 86.0403C261.614 89.3004 256.606 89.255 253.796 85.9389C250.987 82.6229 251.44 77.2919 254.808 74.0319C258.176 70.7718 263.184 70.8172 265.994 74.1333Z" fill="white"/>
<path d="M34.8918 106.38L53.4792 60.3602L66.663 66.4432L48.0755 112.463L34.8918 106.38Z" fill="white"/>
<path d="M58.165 51.9861C62.0078 53.7592 63.6631 58.8113 61.8621 63.2702C60.0611 67.7292 55.4859 69.9065 51.6431 68.1334C47.8002 66.3603 46.145 61.3083 47.9459 56.8493C49.7469 52.3903 54.3221 50.213 58.165 51.9861Z" fill="white"/>
<path d="M39.5374 97.0297C43.3803 98.8028 45.0355 103.855 43.2345 108.314C41.4336 112.773 36.8584 114.95 33.0155 113.177C29.1727 111.404 27.5174 106.352 29.3184 101.893C31.1194 97.4339 35.6946 95.2566 39.5374 97.0297Z" fill="white"/>
<path d="M68.4189 56.7173C72.2618 58.4904 73.917 63.5425 72.1161 68.0015C70.3151 72.4604 65.7399 74.6378 61.897 72.8647C58.0542 71.0916 56.3989 66.0395 58.1999 61.5805C60.0009 57.1216 64.5761 54.9442 68.4189 56.7173Z" fill="white"/>
<path d="M49.7914 101.761C53.6343 103.534 55.2895 108.586 53.4885 113.045C51.6876 117.504 47.1124 119.681 43.2695 117.908C39.4267 116.135 37.7714 111.083 39.5724 106.624C41.3734 102.165 45.9486 99.9878 49.7914 101.761Z" fill="white"/>
<path d="M665.428 143.278L633.489 179.815L622.277 170.104L654.217 133.568L665.428 143.278Z" fill="white"/>
<path d="M626.39 186.057C623.122 183.226 622.982 178.062 626.077 174.522C629.171 170.982 634.329 170.406 637.597 173.237C640.865 176.067 641.006 181.232 637.911 184.772C634.816 188.312 629.658 188.887 626.39 186.057Z" fill="white"/>
<path d="M658.081 150.43C654.813 147.6 654.673 142.436 657.767 138.896C660.862 135.355 666.02 134.78 669.288 137.611C672.556 140.441 672.696 145.605 669.602 149.145C666.507 152.686 661.349 153.261 658.081 150.43Z" fill="white"/>
<path d="M617.67 178.504C614.402 175.674 614.262 170.509 617.357 166.969C620.451 163.429 625.609 162.854 628.877 165.684C632.145 168.515 632.286 173.679 629.191 177.219C626.096 180.759 620.938 181.335 617.67 178.504Z" fill="white"/>
<path d="M649.361 142.878C646.093 140.047 645.953 134.883 649.047 131.343C652.142 127.803 657.3 127.228 660.568 130.058C663.836 132.888 663.976 138.053 660.882 141.593C657.787 145.133 652.629 145.708 649.361 142.878Z" fill="white"/>
<path d="M631.814 32.1536L677.488 46.318L673.771 60.9247L628.098 46.7603L631.814 32.1536Z" fill="white"/>
<path d="M685.992 50.2687C684.909 54.5263 680.443 56.8653 676.018 55.4928C671.593 54.1204 668.883 49.5564 669.966 45.2987C671.05 41.0411 675.515 38.7022 679.941 40.0746C684.366 41.447 687.075 46.0111 685.992 50.2687Z" fill="white"/>
<path d="M641.223 35.9471C640.14 40.2047 635.674 42.5436 631.249 41.1712C626.824 39.7988 624.114 35.2347 625.197 30.9771C626.281 26.7195 630.746 24.3805 635.172 25.7529C639.597 27.1254 642.306 31.6894 641.223 35.9471Z" fill="white"/>
<path d="M683.102 61.6295C682.019 65.8871 677.553 68.2261 673.128 66.8536C668.702 65.4812 665.993 60.9172 667.076 56.6595C668.159 52.4019 672.625 50.063 677.05 51.4354C681.476 52.8078 684.185 57.3719 683.102 61.6295Z" fill="white"/>
<path d="M638.333 47.3079C637.25 51.5655 632.784 53.9045 628.359 52.532C623.933 51.1596 621.224 46.5956 622.307 42.3379C623.39 38.0803 627.856 35.7414 632.281 37.1138C636.707 38.4862 639.416 43.0503 638.333 47.3079Z" fill="white"/>
<path d="M510.553 17.7819L538.542 57.6176L527 66.9069L499.011 27.0713L510.553 17.7819Z" fill="white"/>
<path d="M542.981 66.0793C539.617 68.787 534.691 67.853 531.979 63.9933C529.267 60.1335 529.796 54.8096 533.161 52.1019C536.525 49.3942 541.451 50.3281 544.163 54.1879C546.875 58.0476 546.346 63.3716 542.981 66.0793Z" fill="white"/>
<path d="M515.804 26.6845C512.44 29.3922 507.514 28.4583 504.802 24.5985C502.09 20.7387 502.619 15.4148 505.983 12.7071C509.347 9.99939 514.273 10.9333 516.985 14.7931C519.697 18.6528 519.168 23.9768 515.804 26.6845Z" fill="white"/>
<path d="M534.004 73.3043C530.64 76.012 525.714 75.0781 523.002 71.2183C520.29 67.3585 520.819 62.0346 524.184 59.3269C527.548 56.6192 532.474 57.5531 535.186 61.4129C537.897 65.2726 537.369 70.5966 534.004 73.3043Z" fill="white"/>
<path d="M506.827 33.9095C503.462 36.6172 498.537 35.6833 495.825 31.8236C493.113 27.9638 493.642 22.6398 497.006 19.9321C500.37 17.2244 505.296 18.1584 508.008 22.0181C510.72 25.8779 510.191 31.2019 506.827 33.9095Z" fill="white"/>
<path d="M156.905 311.183L196.136 283.964L204.734 296.347L165.503 323.565L156.905 311.183Z" fill="white"/>
<path d="M204.424 279.743C206.93 283.353 205.88 288.416 202.079 291.054C198.277 293.691 193.164 292.903 190.659 289.294C188.153 285.685 189.202 280.621 193.004 277.983C196.805 275.346 201.918 276.134 204.424 279.743Z" fill="white"/>
<path d="M165.642 306.141C168.148 309.75 167.098 314.814 163.297 317.451C159.496 320.088 154.383 319.3 151.877 315.691C149.371 312.082 150.421 307.018 154.222 304.381C158.023 301.743 163.136 302.531 165.642 306.141Z" fill="white"/>
<path d="M211.111 289.374C213.616 292.983 212.567 298.047 208.765 300.685C204.964 303.322 199.851 302.534 197.345 298.925C194.839 295.315 195.889 290.251 199.69 287.614C203.492 284.977 208.605 285.765 211.111 289.374Z" fill="white"/>
<path d="M172.329 315.771C174.835 319.381 173.785 324.444 169.984 327.082C166.183 329.719 161.07 328.931 158.564 325.322C156.058 321.712 157.108 316.649 160.909 314.011C164.71 311.374 169.823 312.162 172.329 315.771Z" fill="white"/>
<path d="M42.0226 253.521L71.8231 291.384L60.64 301.329L30.8394 263.466L42.0226 253.521Z" fill="white"/>
<path d="M76.6422 299.52C73.3825 302.419 68.3992 301.795 65.5118 298.126C62.6243 294.457 62.9261 289.133 66.1858 286.235C69.4456 283.336 74.4288 283.96 77.3162 287.629C80.2037 291.298 79.9019 296.621 76.6422 299.52Z" fill="white"/>
<path d="M47.6751 262.045C44.4154 264.944 39.4321 264.32 36.5447 260.651C33.6573 256.982 33.9591 251.658 37.2188 248.76C40.4785 245.861 45.4617 246.485 48.3492 250.154C51.2366 253.823 50.9348 259.146 47.6751 262.045Z" fill="white"/>
<path d="M67.9442 307.255C64.6844 310.153 59.7012 309.529 56.8138 305.861C53.9263 302.192 54.2281 296.868 57.4878 293.969C60.7475 291.071 65.7308 291.695 68.6182 295.364C71.5057 299.032 71.2039 304.356 67.9442 307.255Z" fill="white"/>
<path d="M38.9771 269.78C35.7174 272.678 30.7341 272.054 27.8467 268.386C24.9592 264.717 25.261 259.393 28.5207 256.494C31.7804 253.596 36.7637 254.22 39.6511 257.889C42.5386 261.557 42.2368 266.881 38.9771 269.78Z" fill="white"/>
<path d="M204.667 180.835L249.614 195.963L245.45 210.576L200.503 195.448L204.667 180.835Z" fill="white"/>
<path d="M257.941 200.1C256.727 204.36 252.213 206.624 247.858 205.159C243.503 203.693 240.956 199.052 242.17 194.792C243.384 190.533 247.898 188.268 252.253 189.734C256.608 191.2 259.154 195.841 257.941 200.1Z" fill="white"/>
<path d="M213.898 184.832C212.685 189.091 208.17 191.356 203.815 189.89C199.46 188.424 196.914 183.783 198.128 179.524C199.341 175.265 203.856 173 208.211 174.466C212.566 175.931 215.112 180.573 213.898 184.832Z" fill="white"/>
<path d="M254.702 211.466C253.488 215.725 248.974 217.99 244.619 216.524C240.264 215.058 237.717 210.417 238.931 206.158C240.145 201.898 244.659 199.634 249.014 201.1C253.369 202.565 255.916 207.206 254.702 211.466Z" fill="white"/>
<path d="M210.659 196.197C209.446 200.457 204.931 202.721 200.576 201.255C196.221 199.79 193.675 195.149 194.889 190.889C196.103 186.63 200.617 184.365 204.972 185.831C209.327 187.297 211.873 191.938 210.659 196.197Z" fill="white"/>
<path d="M468.45 159.053L513.96 146.953L517.427 161.847L471.916 173.947L468.45 159.053Z" fill="white"/>
<path d="M523.032 145.859C524.042 150.201 521.287 154.67 516.877 155.843C512.467 157.015 508.074 154.446 507.063 150.105C506.053 145.763 508.808 141.294 513.218 140.121C517.628 138.949 522.022 141.518 523.032 145.859Z" fill="white"/>
<path d="M478.223 157.333C479.234 161.674 476.478 166.144 472.068 167.317C467.659 168.489 463.265 165.92 462.255 161.579C461.244 157.237 464 152.768 468.409 151.595C472.819 150.423 477.213 152.992 478.223 157.333Z" fill="white"/>
<path d="M525.728 157.443C526.738 161.785 523.983 166.255 519.573 167.427C515.163 168.599 510.77 166.03 509.759 161.689C508.749 157.348 511.505 152.878 515.914 151.705C520.324 150.533 524.718 153.102 525.728 157.443Z" fill="white"/>
<path d="M480.919 168.917C481.93 173.259 479.174 177.728 474.764 178.901C470.355 180.073 465.961 177.504 464.951 173.163C463.94 168.822 466.696 164.352 471.106 163.179C475.515 162.007 479.909 164.576 480.919 168.917Z" fill="white"/>
<path d="M331.942 272.335L346.599 318.967L332.786 324.13L318.129 277.498L331.942 272.335Z" fill="white"/>
<path d="M348.276 328.396C344.25 329.901 339.835 327.459 338.415 322.94C336.995 318.422 339.107 313.539 343.133 312.034C347.16 310.529 351.575 312.972 352.995 317.49C354.415 322.008 352.302 326.891 348.276 328.396Z" fill="white"/>
<path d="M334.26 282.439C330.234 283.944 325.819 281.501 324.399 276.983C322.979 272.465 325.091 267.582 329.117 266.077C333.143 264.572 337.558 267.015 338.979 271.533C340.399 276.051 338.286 280.934 334.26 282.439Z" fill="white"/>
<path d="M337.533 332.412C333.507 333.917 329.092 331.475 327.672 326.956C326.252 322.438 328.364 317.555 332.39 316.05C336.417 314.545 340.832 316.988 342.252 321.506C343.672 326.024 341.559 330.907 337.533 332.412Z" fill="white"/>
<path d="M323.517 286.455C319.491 287.96 315.076 285.518 313.656 280.999C312.236 276.481 314.348 271.598 318.374 270.093C322.4 268.588 326.815 271.031 328.236 275.549C329.656 280.067 327.543 284.95 323.517 286.455Z" fill="white"/>
<path d="M127.043 183.039L82.5127 200.156L76.9163 186.143L121.447 169.027L127.043 183.039Z" fill="white"/>
<path d="M73.4528 202.292C71.8215 198.207 73.9968 193.552 78.3114 191.893C82.626 190.235 87.4461 192.201 89.0774 196.286C90.7087 200.37 88.5334 205.026 84.2188 206.684C79.9041 208.343 75.084 206.376 73.4528 202.292Z" fill="white"/>
<path d="M117.357 185.864C115.726 181.78 117.901 177.124 122.216 175.466C126.531 173.807 131.351 175.774 132.982 179.858C134.613 183.943 132.438 188.599 128.123 190.257C123.809 191.915 118.989 189.949 117.357 185.864Z" fill="white"/>
<path d="M69.1 191.393C67.4687 187.308 69.644 182.653 73.9587 180.994C78.2733 179.336 83.0934 181.303 84.7247 185.387C86.3559 189.471 84.1806 194.127 79.866 195.786C75.5514 197.444 70.7313 195.477 69.1 191.393Z" fill="white"/>
<path d="M113.004 174.966C111.373 170.881 113.549 166.226 117.863 164.567C122.178 162.909 126.998 164.875 128.629 168.96C130.26 173.044 128.085 177.7 123.77 179.358C119.456 181.017 114.636 179.05 113.004 174.966Z" fill="white"/>
<path d="M180.795 69.365L136.083 52.7592L140.585 38.333L185.297 54.9388L180.795 69.365Z" fill="white"/>
<path d="M127.83 48.3523C129.142 44.1473 133.718 42.0428 138.05 43.6518C142.382 45.2608 144.83 49.9739 143.518 54.1789C142.206 58.3839 137.63 60.4884 133.298 58.8794C128.966 57.2704 126.518 52.5573 127.83 48.3523Z" fill="white"/>
<path d="M171.632 65.0676C172.944 60.8626 177.52 58.7581 181.852 60.367C186.185 61.976 188.633 66.6892 187.32 70.8942C186.008 75.0992 181.432 77.2037 177.1 75.5947C172.768 73.9857 170.32 69.2726 171.632 65.0676Z" fill="white"/>
<path d="M131.332 37.132C132.644 32.927 137.22 30.8225 141.552 32.4314C145.884 34.0404 148.332 38.7536 147.02 42.9586C145.708 47.1636 141.132 49.2681 136.8 47.6591C132.467 46.0501 130.019 41.337 131.332 37.132Z" fill="white"/>
<path d="M175.134 53.8472C176.446 49.6422 181.022 47.5377 185.354 49.1467C189.686 50.7556 192.134 55.4688 190.822 59.6738C189.51 63.8788 184.934 65.9833 180.602 64.3743C176.27 62.7653 173.821 58.0522 175.134 53.8472Z" fill="white"/>
<path d="M902.174 28.3193L926.665 69.9411L914.234 78.2056L889.744 36.5837L902.174 28.3193Z" fill="white"/>
<path d="M930.355 78.6621C926.732 81.0711 921.871 79.7547 919.498 75.7218C917.125 71.689 918.139 66.4669 921.762 64.058C925.385 61.649 930.246 62.9654 932.619 66.9982C934.992 71.031 933.978 76.2531 930.355 78.6621Z" fill="white"/>
<path d="M906.64 37.5409C903.016 39.9499 898.156 38.6335 895.783 34.6006C893.41 30.5678 894.423 25.3457 898.047 22.9368C901.67 20.5278 906.531 21.8442 908.904 25.877C911.277 29.9099 910.263 35.132 906.64 37.5409Z" fill="white"/>
<path d="M920.687 85.09C917.064 87.499 912.203 86.1826 909.83 82.1497C907.457 78.1169 908.471 72.8948 912.094 70.4859C915.717 68.0769 920.578 69.3933 922.951 73.4261C925.324 77.4589 924.31 82.681 920.687 85.09Z" fill="white"/>
<path d="M896.972 43.9688C893.348 46.3778 888.487 45.0614 886.114 41.0286C883.741 36.9958 884.755 31.7737 888.378 29.3647C892.002 26.9557 896.863 28.2721 899.235 32.305C901.608 36.3378 900.595 41.5599 896.972 43.9688Z" fill="white"/>
<path d="M1084.07 19.0757L1115.27 57.1268L1104.49 67.0494L1073.29 28.9984L1084.07 19.0757Z" fill="white"/>
<path d="M1120.39 65.2969C1117.25 68.1892 1112.25 67.545 1109.23 63.8582C1106.21 60.1714 1106.3 54.8379 1109.45 51.9456C1112.59 49.0533 1117.59 49.6975 1120.61 53.3843C1123.63 57.0711 1123.54 62.4046 1120.39 65.2969Z" fill="white"/>
<path d="M1090.04 27.6378C1086.9 30.5301 1081.9 29.8859 1078.88 26.1991C1075.85 22.5123 1075.95 17.1788 1079.09 14.2865C1082.24 11.3942 1087.23 12.0384 1090.26 15.7252C1093.28 19.412 1093.18 24.7455 1090.04 27.6378Z" fill="white"/>
<path d="M1112.01 73.0145C1108.87 75.9067 1103.87 75.2626 1100.85 71.5758C1097.82 67.8889 1097.92 62.5555 1101.06 59.6632C1104.2 56.7709 1109.2 57.415 1112.22 61.1019C1115.25 64.7887 1115.15 70.1222 1112.01 73.0145Z" fill="white"/>
<path d="M1081.66 35.3554C1078.51 38.2477 1073.52 37.6036 1070.49 33.9167C1067.47 30.2299 1067.57 24.8964 1070.71 22.0041C1073.85 19.1119 1078.85 19.756 1081.87 23.4428C1084.89 27.1297 1084.8 32.4631 1081.66 35.3554Z" fill="white"/>
<path d="M833.744 151.949L879.254 139.849L883.075 156.267L837.565 168.366L833.744 151.949Z" fill="white"/>
<path d="M888.356 138.883C889.47 143.668 886.798 148.498 882.388 149.671C877.979 150.843 873.501 147.914 872.387 143.128C871.273 138.343 873.945 133.513 878.355 132.341C882.765 131.168 887.242 134.097 888.356 138.883Z" fill="white"/>
<path d="M843.538 150.313C844.652 155.099 841.98 159.929 837.57 161.101C833.16 162.274 828.683 159.345 827.569 154.559C826.455 149.773 829.127 144.944 833.537 143.771C837.946 142.599 842.424 145.528 843.538 150.313Z" fill="white"/>
<path d="M891.328 151.651C892.442 156.437 889.77 161.267 885.361 162.439C880.951 163.612 876.474 160.683 875.36 155.897C874.246 151.111 876.918 146.282 881.327 145.109C885.737 143.937 890.215 146.866 891.328 151.651Z" fill="white"/>
<path d="M846.51 163.082C847.624 167.868 844.952 172.698 840.543 173.87C836.133 175.042 831.655 172.113 830.542 167.328C829.428 162.542 832.1 157.712 836.509 156.54C840.919 155.368 845.397 158.297 846.51 163.082Z" fill="white"/>
<path d="M888.255 240.683L933.955 251.996L929.872 268.347L884.172 257.033L888.255 240.683Z" fill="white"/>
<path d="M942.434 255.543C941.244 260.309 936.69 263.284 932.262 262.188C927.834 261.091 925.209 256.339 926.399 251.573C927.589 246.807 932.144 243.833 936.572 244.929C941 246.025 943.625 250.777 942.434 255.543Z" fill="white"/>
<path d="M897.65 243.973C896.459 248.739 891.905 251.714 887.477 250.618C883.049 249.522 880.424 244.769 881.614 240.004C882.805 235.238 887.359 232.263 891.787 233.359C896.215 234.455 898.84 239.207 897.65 243.973Z" fill="white"/>
<path d="M939.259 268.26C938.069 273.026 933.515 276 929.087 274.904C924.659 273.808 922.034 269.056 923.224 264.29C924.414 259.524 928.969 256.549 933.397 257.645C937.825 258.742 940.45 263.494 939.259 268.26Z" fill="white"/>
<path d="M894.475 256.69C893.284 261.456 888.73 264.431 884.302 263.335C879.874 262.238 877.249 257.486 878.439 252.72C879.63 247.954 884.184 244.98 888.612 246.076C893.04 247.172 895.665 251.924 894.475 256.69Z" fill="white"/>
<path d="M820.916 274.792L831.746 321.97L815.759 325.587L804.928 278.41L820.916 274.792Z" fill="white"/>
<path d="M832.503 331.376C827.843 332.43 823.215 329.579 822.165 325.008C821.116 320.437 824.043 315.877 828.703 314.822C833.363 313.768 837.991 316.619 839.041 321.19C840.09 325.761 837.163 330.321 832.503 331.376Z" fill="white"/>
<path d="M822.308 284.926C817.648 285.98 813.019 283.13 811.97 278.559C810.92 273.987 813.847 269.427 818.507 268.373C823.168 267.318 827.796 270.169 828.845 274.74C829.895 279.311 826.968 283.872 822.308 284.926Z" fill="white"/>
<path d="M820.069 334.19C815.409 335.244 810.781 332.393 809.731 327.822C808.682 323.251 811.609 318.691 816.269 317.637C820.929 316.582 825.557 319.433 826.607 324.004C827.656 328.575 824.729 333.136 820.069 334.19Z" fill="white"/>
<path d="M809.874 287.74C805.213 288.795 800.585 285.944 799.536 281.373C798.486 276.802 801.413 272.241 806.073 271.187C810.734 270.132 815.362 272.983 816.411 277.554C817.461 282.125 814.534 286.686 809.874 287.74Z" fill="white"/>
<path d="M1026.95 301.258L1053.09 260.964L1066.54 270.585L1040.4 310.879L1026.95 301.258Z" fill="white"/>
<path d="M1059.25 253.99C1063.17 256.794 1064.3 262.233 1061.77 266.137C1059.23 270.041 1054 270.933 1050.08 268.128C1046.16 265.324 1045.04 259.886 1047.57 255.981C1050.1 252.077 1055.33 251.186 1059.25 253.99Z" fill="white"/>
<path d="M1033.2 293.309C1037.12 296.114 1038.25 301.552 1035.72 305.456C1033.18 309.361 1027.95 310.252 1024.03 307.448C1020.11 304.643 1018.99 299.205 1021.52 295.301C1024.05 291.397 1029.28 290.505 1033.2 293.309Z" fill="white"/>
<path d="M1069.71 261.472C1073.64 264.276 1074.76 269.715 1072.23 273.619C1069.7 277.523 1064.46 278.415 1060.54 275.61C1056.62 272.806 1055.5 267.368 1058.03 263.463C1060.56 259.559 1065.79 258.668 1069.71 261.472Z" fill="white"/>
<path d="M1043.66 300.792C1047.58 303.596 1048.71 309.034 1046.18 312.939C1043.65 316.843 1038.41 317.734 1034.49 314.93C1030.57 312.126 1029.45 306.687 1031.98 302.783C1034.51 298.879 1039.74 297.987 1043.66 300.792Z" fill="white"/>
<path d="M763.95 92.31L773.643 44.8704L789.6 48.6269L779.907 96.0665L763.95 92.31Z" fill="white"/>
<path d="M776.845 36.0285C781.496 37.1235 784.505 41.7373 783.566 46.3338C782.627 50.9304 778.095 53.7689 773.443 52.674C768.792 51.579 765.783 46.9651 766.722 42.3686C767.661 37.7721 772.193 34.9335 776.845 36.0285Z" fill="white"/>
<path d="M766.877 82.5308C771.528 83.6258 774.538 88.2396 773.598 92.8362C772.659 97.4327 768.127 100.271 763.476 99.1763C758.825 98.0813 755.815 93.4675 756.755 88.8709C757.694 84.2744 762.226 81.4358 766.877 82.5308Z" fill="white"/>
<path d="M789.255 38.9493C793.907 40.0443 796.916 44.6581 795.977 49.2547C795.037 53.8512 790.505 56.6897 785.854 55.5948C781.203 54.4998 778.194 49.8859 779.133 45.2894C780.072 40.6929 784.604 37.8543 789.255 38.9493Z" fill="white"/>
<path d="M779.288 85.4516C783.939 86.5466 786.949 91.1605 786.009 95.757C785.07 100.354 780.538 103.192 775.887 102.097C771.236 101.002 768.226 96.3883 769.166 91.7918C770.105 87.1952 774.637 84.3567 779.288 85.4516Z" fill="white"/>
<path d="M749.466 222.895L726.267 180.731L740.634 172.642L763.832 214.806L749.466 222.895Z" fill="white"/>
<path d="M722.988 171.92C727.176 169.562 732.393 170.962 734.641 175.048C736.888 179.133 735.316 184.356 731.128 186.714C726.94 189.072 721.723 187.671 719.476 183.586C717.228 179.501 718.801 174.277 722.988 171.92Z" fill="white"/>
<path d="M745.38 213.569C749.567 211.211 754.784 212.611 757.032 216.697C759.28 220.782 757.707 226.005 753.52 228.363C749.332 230.721 744.115 229.32 741.867 225.235C739.619 221.15 741.192 215.926 745.38 213.569Z" fill="white"/>
<path d="M734.162 165.628C738.349 163.27 743.566 164.67 745.814 168.756C748.062 172.841 746.489 178.064 742.301 180.422C738.114 182.78 732.897 181.38 730.649 177.294C728.401 173.209 729.974 167.986 734.162 165.628Z" fill="white"/>
<path d="M756.553 207.277C760.741 204.919 765.958 206.319 768.206 210.405C770.453 214.49 768.881 219.713 764.693 222.071C760.505 224.429 755.288 223.029 753.041 218.943C750.793 214.858 752.365 209.635 756.553 207.277Z" fill="white"/>
<path d="M975.125 149.602L1010.05 116.148L1019.63 127.577L984.709 161.031L975.125 149.602Z" fill="white"/>
<path d="M1017.59 110.644C1020.38 113.976 1019.9 119.304 1016.52 122.546C1013.14 125.787 1008.13 125.714 1005.33 122.383C1002.54 119.051 1003.02 113.723 1006.4 110.481C1009.79 107.24 1014.79 107.313 1017.59 110.644Z" fill="white"/>
<path d="M983.01 143.194C985.803 146.525 985.325 151.854 981.941 155.095C978.557 158.336 973.549 158.263 970.756 154.932C967.962 151.6 968.441 146.272 971.825 143.031C975.209 139.789 980.216 139.862 983.01 143.194Z" fill="white"/>
<path d="M1025.04 119.534C1027.84 122.866 1027.36 128.194 1023.97 131.435C1020.59 134.677 1015.58 134.604 1012.79 131.272C1009.99 127.941 1010.47 122.612 1013.86 119.371C1017.24 116.129 1022.25 116.202 1025.04 119.534Z" fill="white"/>
<path d="M990.464 152.083C993.258 155.415 992.779 160.743 989.395 163.985C986.011 167.226 981.003 167.153 978.21 163.821C975.416 160.49 975.895 155.162 979.279 151.92C982.663 148.679 987.671 148.752 990.464 152.083Z" fill="white"/>
<path d="M1084.39 170.107L1131.73 178.356L1129.79 193.222L1082.45 184.973L1084.39 170.107Z" fill="white"/>
<path d="M1140.7 181.187C1140.14 185.52 1135.96 188.385 1131.38 187.586C1126.79 186.787 1123.53 182.626 1124.09 178.293C1124.66 173.96 1128.83 171.095 1133.42 171.894C1138.01 172.693 1141.27 176.854 1140.7 181.187Z" fill="white"/>
<path d="M1094.24 172.669C1093.68 177.003 1089.5 179.867 1084.92 179.068C1080.33 178.269 1077.07 174.108 1077.63 169.775C1078.2 165.442 1082.37 162.577 1086.96 163.376C1091.55 164.176 1094.81 168.336 1094.24 172.669Z" fill="white"/>
<path d="M1139.2 192.75C1138.63 197.083 1134.46 199.947 1129.87 199.148C1125.28 198.349 1122.02 194.188 1122.59 189.855C1123.15 185.522 1127.33 182.657 1131.91 183.456C1136.5 184.256 1139.76 188.416 1139.2 192.75Z" fill="white"/>
<path d="M1092.74 184.232C1092.17 188.565 1088 191.43 1083.41 190.63C1078.82 189.831 1075.56 185.67 1076.13 181.337C1076.69 177.004 1080.87 174.139 1085.45 174.939C1090.04 175.738 1093.3 179.899 1092.74 184.232Z" fill="white"/>
<path d="M435.303 286.828L472.055 255.69L480.975 267.717L444.224 298.855L435.303 286.828Z" fill="white"/>
<path d="M479.89 250.683C482.49 254.189 481.712 259.477 478.151 262.494C474.59 265.511 469.595 265.115 466.995 261.609C464.395 258.103 465.174 252.815 468.735 249.798C472.296 246.781 477.29 247.178 479.89 250.683Z" fill="white"/>
<path d="M443.536 280.941C446.136 284.447 445.357 289.735 441.797 292.752C438.236 295.769 433.241 295.372 430.641 291.867C428.041 288.361 428.82 283.073 432.381 280.056C435.941 277.039 440.936 277.435 443.536 280.941Z" fill="white"/>
<path d="M486.828 260.038C489.429 263.544 488.65 268.831 485.089 271.848C481.528 274.865 476.533 274.469 473.933 270.964C471.333 267.458 472.112 262.17 475.673 259.153C479.234 256.136 484.228 256.532 486.828 260.038Z" fill="white"/>
<path d="M450.474 290.296C453.074 293.801 452.295 299.089 448.735 302.106C445.174 305.123 440.179 304.727 437.579 301.221C434.979 297.715 435.758 292.428 439.319 289.411C442.88 286.394 447.874 286.79 450.474 290.296Z" fill="white"/>
<path d="M414.853 43.9865L420.602 93.1449L406.229 95.446L400.48 46.2876L414.853 43.9865Z" fill="white"/>
<path d="M420.514 102.823C416.325 103.494 412.477 100.177 411.92 95.4136C411.363 90.6506 414.307 86.2456 418.497 85.5749C422.686 84.9042 426.534 88.2216 427.091 92.9847C427.648 97.7478 424.704 102.153 420.514 102.823Z" fill="white"/>
<path d="M415.265 54.4635C411.075 55.1342 407.227 51.8168 406.67 47.0537C406.113 42.2906 409.058 37.8857 413.247 37.215C417.437 36.5442 421.285 39.8617 421.842 44.6248C422.399 49.3878 419.454 53.7928 415.265 54.4635Z" fill="white"/>
<path d="M409.335 104.613C405.146 105.284 401.298 101.966 400.741 97.2033C400.184 92.4403 403.128 88.0353 407.318 87.3646C411.507 86.6939 415.355 90.0113 415.912 94.7744C416.469 99.5375 413.525 103.942 409.335 104.613Z" fill="white"/>
<path d="M404.086 56.2533C399.896 56.924 396.048 53.6065 395.491 48.8434C394.934 44.0804 397.879 39.6754 402.068 39.0047C406.258 38.334 410.106 41.6515 410.663 46.4145C411.22 51.1776 408.275 55.5825 404.086 56.2533Z" fill="white"/>
<path d="M319.613 145.232L354.149 179.619L344.408 190.761L309.872 156.374L319.613 145.232Z" fill="white"/>
<path d="M360.002 187.183C357.163 190.431 352.148 190.363 348.802 187.031C345.456 183.7 345.045 178.366 347.884 175.118C350.723 171.87 355.738 171.938 359.084 175.27C362.43 178.602 362.841 183.935 360.002 187.183Z" fill="white"/>
<path d="M326.342 153.09C323.503 156.338 318.489 156.27 315.142 152.938C311.796 149.606 311.385 144.272 314.224 141.024C317.064 137.776 322.078 137.844 325.424 141.176C328.771 144.508 329.182 149.842 326.342 153.09Z" fill="white"/>
<path d="M352.426 195.85C349.586 199.098 344.572 199.03 341.226 195.698C337.88 192.366 337.469 187.032 340.308 183.784C343.147 180.536 348.161 180.604 351.508 183.936C354.854 187.268 355.265 192.602 352.426 195.85Z" fill="white"/>
<path d="M318.766 161.757C315.927 165.004 310.913 164.936 307.566 161.605C304.22 158.273 303.809 152.939 306.648 149.691C309.488 146.443 314.502 146.511 317.848 149.843C321.194 153.175 321.605 158.509 318.766 161.757Z" fill="white"/>
</svg>
