<svg width="340" height="218" viewBox="0 0 340 218" fill="none" xmlns="http://www.w3.org/2000/svg">
<mask id="path-1-outside-1_2105_76" maskUnits="userSpaceOnUse" x="0.0195312" y="19.0786" width="211" height="71" fill="black">
<rect fill="white" x="0.0195312" y="19.0786" width="211" height="71"/>
<path d="M44.7345 37.6686H32.7865V86.0786H15.1735V37.6686H2.50453L3.53453 22.1156H45.7645L44.7345 37.6686ZM96.7656 86.0786H79.5646L77.6076 75.9846H65.4536L63.4966 86.0786H47.1196L58.8616 22.1156H85.0236L96.7656 86.0786ZM75.6506 63.9336L72.0456 41.0676H71.3246L67.7196 63.9336H75.6506ZM121.696 86.0786H104.186V22.1156H121.696V86.0786ZM165.401 86.0786H132.853V22.1156H150.466V71.7616H166.431L165.401 86.0786ZM168.317 41.3766C168.317 35.2653 170.102 30.3556 173.673 26.6476C177.243 22.9396 182.119 21.0856 188.299 21.0856C194.547 21.0856 200.933 21.7036 207.457 22.9396L205.397 39.4196C198.599 37.8403 193.929 37.0506 191.389 37.0506C188.161 37.0506 186.548 38.3553 186.548 40.9646C186.548 41.9946 187.303 42.9903 188.814 43.9516C190.393 44.9129 192.281 45.9429 194.479 47.0416C196.676 48.0716 198.873 49.3419 201.071 50.8526C203.268 52.2946 205.122 54.3889 206.633 57.1356C208.212 59.8823 209.002 63.0409 209.002 66.6116C209.002 73.1349 207.251 78.1819 203.749 81.7526C200.247 85.3233 195.268 87.1086 188.814 87.1086C182.428 87.1086 176.179 86.1129 170.068 84.1216L171.201 68.7746C178.548 70.9033 183.664 71.9676 186.548 71.9676C189.432 71.9676 190.874 70.6973 190.874 68.1566C190.874 66.8519 190.084 65.6503 188.505 64.5516C186.994 63.4529 185.14 62.3543 182.943 61.2556C180.745 60.1569 178.514 58.8866 176.248 57.4446C174.05 56.0026 172.162 53.9083 170.583 51.1616C169.072 48.4149 168.317 45.1533 168.317 41.3766Z"/>
</mask>
<path d="M44.7345 37.6686H32.7865V86.0786H15.1735V37.6686H2.50453L3.53453 22.1156H45.7645L44.7345 37.6686ZM96.7656 86.0786H79.5646L77.6076 75.9846H65.4536L63.4966 86.0786H47.1196L58.8616 22.1156H85.0236L96.7656 86.0786ZM75.6506 63.9336L72.0456 41.0676H71.3246L67.7196 63.9336H75.6506ZM121.696 86.0786H104.186V22.1156H121.696V86.0786ZM165.401 86.0786H132.853V22.1156H150.466V71.7616H166.431L165.401 86.0786ZM168.317 41.3766C168.317 35.2653 170.102 30.3556 173.673 26.6476C177.243 22.9396 182.119 21.0856 188.299 21.0856C194.547 21.0856 200.933 21.7036 207.457 22.9396L205.397 39.4196C198.599 37.8403 193.929 37.0506 191.389 37.0506C188.161 37.0506 186.548 38.3553 186.548 40.9646C186.548 41.9946 187.303 42.9903 188.814 43.9516C190.393 44.9129 192.281 45.9429 194.479 47.0416C196.676 48.0716 198.873 49.3419 201.071 50.8526C203.268 52.2946 205.122 54.3889 206.633 57.1356C208.212 59.8823 209.002 63.0409 209.002 66.6116C209.002 73.1349 207.251 78.1819 203.749 81.7526C200.247 85.3233 195.268 87.1086 188.814 87.1086C182.428 87.1086 176.179 86.1129 170.068 84.1216L171.201 68.7746C178.548 70.9033 183.664 71.9676 186.548 71.9676C189.432 71.9676 190.874 70.6973 190.874 68.1566C190.874 66.8519 190.084 65.6503 188.505 64.5516C186.994 63.4529 185.14 62.3543 182.943 61.2556C180.745 60.1569 178.514 58.8866 176.248 57.4446C174.05 56.0026 172.162 53.9083 170.583 51.1616C169.072 48.4149 168.317 45.1533 168.317 41.3766Z" fill="#EB865B"/>
<path d="M44.7345 37.6686V39.6686H46.6065L46.7302 37.8008L44.7345 37.6686ZM32.7865 37.6686V35.6686H30.7865V37.6686H32.7865ZM32.7865 86.0786V88.0786H34.7865V86.0786H32.7865ZM15.1735 86.0786H13.1735V88.0786H15.1735V86.0786ZM15.1735 37.6686H17.1735V35.6686H15.1735V37.6686ZM2.50453 37.6686L0.508903 37.5364L0.3677 39.6686H2.50453V37.6686ZM3.53453 22.1156V20.1156H1.6626L1.5389 21.9834L3.53453 22.1156ZM45.7645 22.1156L47.7602 22.2478L47.9014 20.1156H45.7645V22.1156ZM44.7345 35.6686H32.7865V39.6686H44.7345V35.6686ZM30.7865 37.6686V86.0786H34.7865V37.6686H30.7865ZM32.7865 84.0786H15.1735V88.0786H32.7865V84.0786ZM17.1735 86.0786V37.6686H13.1735V86.0786H17.1735ZM15.1735 35.6686H2.50453V39.6686H15.1735V35.6686ZM4.50016 37.8008L5.53016 22.2478L1.5389 21.9834L0.508903 37.5364L4.50016 37.8008ZM3.53453 24.1156H45.7645V20.1156H3.53453V24.1156ZM43.7689 21.9834L42.7389 37.5364L46.7302 37.8008L47.7602 22.2478L43.7689 21.9834ZM96.7656 86.0786V88.0786H99.1662L98.7328 85.7175L96.7656 86.0786ZM79.5646 86.0786L77.6012 86.4593L77.9151 88.0786H79.5646V86.0786ZM77.6076 75.9846L79.5711 75.6039L79.2571 73.9846H77.6076V75.9846ZM65.4536 75.9846V73.9846H63.8041L63.4902 75.6039L65.4536 75.9846ZM63.4966 86.0786V88.0786H65.1461L65.4601 86.4593L63.4966 86.0786ZM47.1196 86.0786L45.1525 85.7175L44.7191 88.0786H47.1196V86.0786ZM58.8616 22.1156V20.1156H57.1954L56.8945 21.7545L58.8616 22.1156ZM85.0236 22.1156L86.9908 21.7545L86.6899 20.1156H85.0236V22.1156ZM75.6506 63.9336V65.9336H77.9906L77.6262 63.6221L75.6506 63.9336ZM72.0456 41.0676L74.0212 40.7561L73.755 39.0676H72.0456V41.0676ZM71.3246 41.0676V39.0676H69.6152L69.349 40.7561L71.3246 41.0676ZM67.7196 63.9336L65.744 63.6221L65.3796 65.9336H67.7196V63.9336ZM96.7656 84.0786H79.5646V88.0786H96.7656V84.0786ZM81.5281 85.6979L79.5711 75.6039L75.6442 76.3653L77.6012 86.4593L81.5281 85.6979ZM77.6076 73.9846H65.4536V77.9846H77.6076V73.9846ZM63.4902 75.6039L61.5332 85.6979L65.4601 86.4593L67.4171 76.3653L63.4902 75.6039ZM63.4966 84.0786H47.1196V88.0786H63.4966V84.0786ZM49.0868 86.4397L60.8288 22.4767L56.8945 21.7545L45.1525 85.7175L49.0868 86.4397ZM58.8616 24.1156H85.0236V20.1156H58.8616V24.1156ZM83.0565 22.4767L94.7985 86.4397L98.7328 85.7175L86.9908 21.7545L83.0565 22.4767ZM77.6262 63.6221L74.0212 40.7561L70.07 41.3791L73.675 64.2451L77.6262 63.6221ZM72.0456 39.0676H71.3246V43.0676H72.0456V39.0676ZM69.349 40.7561L65.744 63.6221L69.6952 64.2451L73.3002 41.3791L69.349 40.7561ZM67.7196 65.9336H75.6506V61.9336H67.7196V65.9336ZM121.696 86.0786V88.0786H123.696V86.0786H121.696ZM104.186 86.0786H102.186V88.0786H104.186V86.0786ZM104.186 22.1156V20.1156H102.186V22.1156H104.186ZM121.696 22.1156H123.696V20.1156H121.696V22.1156ZM121.696 84.0786H104.186V88.0786H121.696V84.0786ZM106.186 86.0786V22.1156H102.186V86.0786H106.186ZM104.186 24.1156H121.696V20.1156H104.186V24.1156ZM119.696 22.1156V86.0786H123.696V22.1156H119.696ZM165.401 86.0786V88.0786H167.263L167.396 86.2221L165.401 86.0786ZM132.853 86.0786H130.853V88.0786H132.853V86.0786ZM132.853 22.1156V20.1156H130.853V22.1156H132.853ZM150.466 22.1156H152.466V20.1156H150.466V22.1156ZM150.466 71.7616H148.466V73.7616H150.466V71.7616ZM166.431 71.7616L168.426 71.9051L168.58 69.7616H166.431V71.7616ZM165.401 84.0786H132.853V88.0786H165.401V84.0786ZM134.853 86.0786V22.1156H130.853V86.0786H134.853ZM132.853 24.1156H150.466V20.1156H132.853V24.1156ZM148.466 22.1156V71.7616H152.466V22.1156H148.466ZM150.466 73.7616H166.431V69.7616H150.466V73.7616ZM164.437 71.6181L163.407 85.9351L167.396 86.2221L168.426 71.9051L164.437 71.6181ZM173.673 26.6476L175.113 28.0349L175.113 28.0349L173.673 26.6476ZM207.457 22.9396L209.441 23.1877L209.674 21.3242L207.829 20.9746L207.457 22.9396ZM205.397 39.4196L204.944 41.3677L207.106 41.87L207.381 39.6677L205.397 39.4196ZM188.814 43.9516L187.74 45.6389L187.757 45.6496L187.774 45.66L188.814 43.9516ZM194.479 47.0416L193.584 48.8305L193.607 48.8418L193.63 48.8525L194.479 47.0416ZM201.071 50.8526L199.938 52.5007L199.956 52.5129L199.974 52.5247L201.071 50.8526ZM206.633 57.1356L204.88 58.0994L204.89 58.1161L204.899 58.1326L206.633 57.1356ZM203.749 81.7526L202.321 80.3522L202.321 80.3522L203.749 81.7526ZM170.068 84.1216L168.073 83.9744L167.958 85.5376L169.448 86.0232L170.068 84.1216ZM171.201 68.7746L171.757 66.8536L169.388 66.1671L169.206 68.6274L171.201 68.7746ZM188.505 64.5516L187.328 66.1691L187.345 66.1814L187.363 66.1934L188.505 64.5516ZM182.943 61.2556L183.837 59.4668L183.837 59.4668L182.943 61.2556ZM176.248 57.4446L175.151 59.1167L175.162 59.1244L175.174 59.1319L176.248 57.4446ZM170.583 51.1616L168.83 52.1254L168.84 52.1421L168.849 52.1586L170.583 51.1616ZM170.317 41.3766C170.317 35.6792 171.968 31.3018 175.113 28.0349L172.232 25.2603C168.237 29.4094 166.317 34.8513 166.317 41.3766H170.317ZM175.113 28.0349C178.233 24.7956 182.545 23.0856 188.299 23.0856V19.0856C181.693 19.0856 176.254 21.0837 172.232 25.2603L175.113 28.0349ZM188.299 23.0856C194.415 23.0856 200.676 23.6905 207.085 24.9046L207.829 20.9746C201.191 19.7168 194.68 19.0856 188.299 19.0856V23.0856ZM205.472 22.6915L203.412 39.1715L207.381 39.6677L209.441 23.1877L205.472 22.6915ZM205.849 37.4715C199.075 35.8977 194.192 35.0506 191.389 35.0506V39.0506C193.667 39.0506 198.123 39.7829 204.944 41.3677L205.849 37.4715ZM191.389 35.0506C189.558 35.0506 187.814 35.4123 186.501 36.4739C185.106 37.6012 184.548 39.2258 184.548 40.9646H188.548C188.548 40.0941 188.796 39.7617 189.016 39.5844C189.316 39.3413 189.993 39.0506 191.389 39.0506V35.0506ZM184.548 40.9646C184.548 43.0641 186.079 44.5817 187.74 45.6389L189.888 42.2643C189.253 41.8605 188.894 41.5211 188.708 41.2751C188.619 41.1579 188.58 41.0764 188.563 41.0319C188.548 40.9911 188.548 40.9719 188.548 40.9646H184.548ZM187.774 45.66C189.413 46.6577 191.352 47.7145 193.584 48.8305L195.373 45.2528C193.21 44.1714 191.373 43.1682 189.854 42.2432L187.774 45.66ZM193.63 48.8525C195.719 49.8318 197.822 51.046 199.938 52.5007L202.204 49.2045C199.925 47.6379 197.633 46.3114 195.328 45.2307L193.63 48.8525ZM199.974 52.5247C201.85 53.7561 203.497 55.5839 204.88 58.0994L208.385 56.1718C206.747 53.194 204.686 50.8331 202.168 49.1805L199.974 52.5247ZM204.899 58.1326C206.283 60.5389 207.002 63.3455 207.002 66.6116H211.002C211.002 62.7364 210.142 59.2256 208.367 56.1387L204.899 58.1326ZM207.002 66.6116C207.002 72.7767 205.355 77.2589 202.321 80.3522L205.177 83.153C209.147 79.105 211.002 73.4932 211.002 66.6116H207.002ZM202.321 80.3522C199.296 83.4365 194.895 85.1086 188.814 85.1086V89.1086C195.642 89.1086 201.198 87.2101 205.177 83.153L202.321 80.3522ZM188.814 85.1086C182.64 85.1086 176.6 84.1466 170.687 82.22L169.448 86.0232C175.758 88.0793 182.216 89.1086 188.814 89.1086V85.1086ZM172.062 84.2689L173.195 68.9219L169.206 68.6274L168.073 83.9744L172.062 84.2689ZM170.644 70.6956C177.969 72.8178 183.342 73.9676 186.548 73.9676V69.9676C183.986 69.9676 179.127 68.9888 171.757 66.8536L170.644 70.6956ZM186.548 73.9676C188.24 73.9676 189.883 73.6004 191.114 72.5156C192.394 71.3882 192.874 69.8057 192.874 68.1566H188.874C188.874 69.0482 188.632 69.3712 188.47 69.5141C188.26 69.6997 187.739 69.9676 186.548 69.9676V73.9676ZM192.874 68.1566C192.874 65.9259 191.494 64.1946 189.647 62.9098L187.363 66.1934C188.674 67.1059 188.874 67.778 188.874 68.1566H192.874ZM189.681 62.9341C188.059 61.7542 186.104 60.6003 183.837 59.4668L182.048 63.0445C184.176 64.1083 185.93 65.1517 187.328 66.1691L189.681 62.9341ZM183.837 59.4668C181.707 58.4015 179.535 57.1658 177.322 55.7573L175.174 59.1319C177.493 60.6075 179.784 61.9124 182.048 63.0445L183.837 59.4668ZM177.345 55.7725C175.459 54.5344 173.771 52.6948 172.317 50.1647L168.849 52.1586C170.553 55.1218 172.642 57.4708 175.151 59.1167L177.345 55.7725ZM172.335 50.1978C171.017 47.8013 170.317 44.885 170.317 41.3766H166.317C166.317 45.4216 167.127 49.0286 168.83 52.1254L172.335 50.1978Z" fill="#3C1308" mask="url(#path-1-outside-1_2105_76)"/>
<mask id="path-3-outside-2_2105_76" maskUnits="userSpaceOnUse" x="3.01953" y="98.9216" width="337" height="71" fill="black">
<rect fill="white" x="3.01953" y="98.9216" width="337" height="71"/>
<path d="M5.28553 141.099C5.28553 132.035 7.0022 125.477 10.4355 121.426C13.9375 117.374 19.3622 115.349 26.7095 115.349C34.1255 115.349 39.5159 117.34 42.8805 121.323C46.2452 125.305 47.9275 131.863 47.9275 140.996C47.9275 150.06 46.2795 156.652 42.9835 160.772C39.6875 164.892 34.2972 166.952 26.8125 166.952C19.3279 166.952 13.8689 164.892 10.4355 160.772C7.0022 156.652 5.28553 150.094 5.28553 141.099ZM30.0055 131.314C29.5935 129.94 28.4949 129.254 26.7095 129.254C24.9242 129.254 23.7912 129.94 23.3105 131.314C22.8299 132.687 22.5895 135.571 22.5895 139.966V142.438C22.5895 147.313 22.8299 150.472 23.3105 151.914C23.7912 153.356 24.8899 154.077 26.6065 154.077C28.3919 154.077 29.5249 153.356 30.0055 151.914C30.4862 150.472 30.7265 147.519 30.7265 143.056V140.069C30.7265 135.605 30.4862 132.687 30.0055 131.314ZM71.5153 120.19C75.292 116.962 79.4463 115.349 83.9783 115.349C88.5103 115.349 91.669 116.413 93.4543 118.542C95.3083 120.602 96.2353 123.726 96.2353 127.915V165.922H78.7253V133.786C78.7253 132.069 77.97 131.211 76.4593 131.211C74.5367 131.211 72.923 131.691 71.6183 132.653V165.922H54.3143V116.585H70.0733L71.1033 120.19H71.5153ZM143.384 134.61C143.384 140.652 143.968 144.978 145.135 147.588C146.371 150.128 148.363 151.399 151.109 151.399C153.856 151.399 157.736 150.746 162.748 149.442L165.426 163.965C160.002 165.956 154.543 166.952 149.049 166.952C140.809 166.952 134.801 164.239 131.024 158.815C127.316 153.321 125.462 145.184 125.462 134.404C125.462 123.554 127.419 115.28 131.333 109.581C135.247 103.813 141.633 100.929 150.491 100.929C155.71 100.929 160.688 102.027 165.426 104.225L162.645 120.19C157.289 118.404 153.547 117.512 151.418 117.512C148.397 117.512 146.303 118.851 145.135 121.529C143.968 124.138 143.384 128.498 143.384 134.61ZM216.736 165.922H199.535L197.578 155.828H185.424L183.467 165.922H167.09L178.832 101.959H204.994L216.736 165.922ZM195.621 143.777L192.016 120.911H191.295L187.69 143.777H195.621ZM285.03 165.922H268.859V132.55H267.932L261.855 165.922H245.272L239.504 132.55H238.474V165.922H222.509L224.672 101.959H247.847L253.615 136.567H254.439L260.001 101.959H282.867L285.03 165.922ZM316.509 145.013H311.771V165.922H294.467V101.959H315.376C322.723 101.959 328.182 103.641 331.753 107.006C335.324 110.37 337.109 115.898 337.109 123.589C337.109 131.279 335.427 136.773 332.062 140.069C328.697 143.365 323.513 145.013 316.509 145.013ZM318.466 131.108C319.084 129.94 319.393 127.846 319.393 124.825C319.393 121.803 319.05 119.675 318.363 118.439C317.676 117.203 316.303 116.585 314.243 116.585H311.771V132.859H314.655C316.578 132.859 317.848 132.275 318.466 131.108Z"/>
</mask>
<path d="M5.28553 141.099C5.28553 132.035 7.0022 125.477 10.4355 121.426C13.9375 117.374 19.3622 115.349 26.7095 115.349C34.1255 115.349 39.5159 117.34 42.8805 121.323C46.2452 125.305 47.9275 131.863 47.9275 140.996C47.9275 150.06 46.2795 156.652 42.9835 160.772C39.6875 164.892 34.2972 166.952 26.8125 166.952C19.3279 166.952 13.8689 164.892 10.4355 160.772C7.0022 156.652 5.28553 150.094 5.28553 141.099ZM30.0055 131.314C29.5935 129.94 28.4949 129.254 26.7095 129.254C24.9242 129.254 23.7912 129.94 23.3105 131.314C22.8299 132.687 22.5895 135.571 22.5895 139.966V142.438C22.5895 147.313 22.8299 150.472 23.3105 151.914C23.7912 153.356 24.8899 154.077 26.6065 154.077C28.3919 154.077 29.5249 153.356 30.0055 151.914C30.4862 150.472 30.7265 147.519 30.7265 143.056V140.069C30.7265 135.605 30.4862 132.687 30.0055 131.314ZM71.5153 120.19C75.292 116.962 79.4463 115.349 83.9783 115.349C88.5103 115.349 91.669 116.413 93.4543 118.542C95.3083 120.602 96.2353 123.726 96.2353 127.915V165.922H78.7253V133.786C78.7253 132.069 77.97 131.211 76.4593 131.211C74.5367 131.211 72.923 131.691 71.6183 132.653V165.922H54.3143V116.585H70.0733L71.1033 120.19H71.5153ZM143.384 134.61C143.384 140.652 143.968 144.978 145.135 147.588C146.371 150.128 148.363 151.399 151.109 151.399C153.856 151.399 157.736 150.746 162.748 149.442L165.426 163.965C160.002 165.956 154.543 166.952 149.049 166.952C140.809 166.952 134.801 164.239 131.024 158.815C127.316 153.321 125.462 145.184 125.462 134.404C125.462 123.554 127.419 115.28 131.333 109.581C135.247 103.813 141.633 100.929 150.491 100.929C155.71 100.929 160.688 102.027 165.426 104.225L162.645 120.19C157.289 118.404 153.547 117.512 151.418 117.512C148.397 117.512 146.303 118.851 145.135 121.529C143.968 124.138 143.384 128.498 143.384 134.61ZM216.736 165.922H199.535L197.578 155.828H185.424L183.467 165.922H167.09L178.832 101.959H204.994L216.736 165.922ZM195.621 143.777L192.016 120.911H191.295L187.69 143.777H195.621ZM285.03 165.922H268.859V132.55H267.932L261.855 165.922H245.272L239.504 132.55H238.474V165.922H222.509L224.672 101.959H247.847L253.615 136.567H254.439L260.001 101.959H282.867L285.03 165.922ZM316.509 145.013H311.771V165.922H294.467V101.959H315.376C322.723 101.959 328.182 103.641 331.753 107.006C335.324 110.37 337.109 115.898 337.109 123.589C337.109 131.279 335.427 136.773 332.062 140.069C328.697 143.365 323.513 145.013 316.509 145.013ZM318.466 131.108C319.084 129.94 319.393 127.846 319.393 124.825C319.393 121.803 319.05 119.675 318.363 118.439C317.676 117.203 316.303 116.585 314.243 116.585H311.771V132.859H314.655C316.578 132.859 317.848 132.275 318.466 131.108Z" fill="#EB865B"/>
<path d="M10.4355 121.426L8.92246 120.118L8.91607 120.125L8.90974 120.133L10.4355 121.426ZM42.9835 160.772L44.5453 162.021L44.5453 162.021L42.9835 160.772ZM10.4355 160.772L8.89909 162.052L8.89909 162.052L10.4355 160.772ZM30.0055 131.314L28.0899 131.888L28.1029 131.932L28.1178 131.974L30.0055 131.314ZM23.3105 131.314L21.4228 130.653L21.4228 130.653L23.3105 131.314ZM23.3105 151.914L25.2079 151.281L25.2079 151.281L23.3105 151.914ZM30.0055 151.914L28.1082 151.281L28.1082 151.281L30.0055 151.914ZM7.28553 141.099C7.28553 132.202 8.98641 126.229 11.9613 122.719L8.90974 120.133C5.01799 124.725 3.28553 131.867 3.28553 141.099H7.28553ZM11.9486 122.734C14.9442 119.268 19.7169 117.349 26.7095 117.349V113.349C19.0075 113.349 12.9308 115.481 8.92246 120.118L11.9486 122.734ZM26.7095 117.349C33.7946 117.349 38.5079 119.246 41.3528 122.613L44.4083 120.032C40.5239 115.434 34.4565 113.349 26.7095 113.349V117.349ZM41.3528 122.613C44.2551 126.049 45.9275 132.015 45.9275 140.996H49.9275C49.9275 131.711 48.2353 124.562 44.4083 120.032L41.3528 122.613ZM45.9275 140.996C45.9275 149.901 44.2927 155.934 41.4218 159.522L44.5453 162.021C48.2664 157.37 49.9275 150.219 49.9275 140.996H45.9275ZM41.4218 159.522C38.6453 162.993 33.9561 164.952 26.8125 164.952V168.952C34.6383 168.952 40.7297 166.79 44.5453 162.021L41.4218 159.522ZM26.8125 164.952C19.6756 164.952 14.8919 162.995 11.972 159.491L8.89909 162.052C12.8458 166.788 18.9801 168.952 26.8125 168.952V164.952ZM11.972 159.491C8.98286 155.904 7.28553 149.917 7.28553 141.099H3.28553C3.28553 150.271 5.02154 157.399 8.89909 162.052L11.972 159.491ZM31.9212 130.739C31.5916 129.64 30.9387 128.702 29.9325 128.073C28.9667 127.469 27.8407 127.254 26.7095 127.254V131.254C27.3637 131.254 27.6797 131.382 27.8125 131.465C27.905 131.522 28.0074 131.614 28.0899 131.888L31.9212 130.739ZM26.7095 127.254C25.5743 127.254 24.4539 127.471 23.4842 128.058C22.481 128.666 21.8004 129.574 21.4228 130.653L25.1982 131.974C25.3014 131.68 25.4276 131.558 25.5574 131.479C25.7207 131.38 26.0595 131.254 26.7095 131.254V127.254ZM21.4228 130.653C21.0953 131.589 20.9 132.861 20.7767 134.341C20.6502 135.858 20.5895 137.738 20.5895 139.966H24.5895C24.5895 137.799 24.649 136.039 24.7629 134.673C24.8799 133.268 25.0451 132.412 25.1982 131.974L21.4228 130.653ZM20.5895 139.966V142.438H24.5895V139.966H20.5895ZM20.5895 142.438C20.5895 144.902 20.6501 146.966 20.7755 148.615C20.8978 150.221 21.0906 151.578 21.4132 152.546L25.2079 151.281C25.0498 150.807 24.8821 149.864 24.764 148.311C24.6492 146.802 24.5895 144.848 24.5895 142.438H20.5895ZM21.4132 152.546C21.7724 153.624 22.4151 154.563 23.3977 155.208C24.3592 155.839 25.476 156.077 26.6065 156.077V152.077C26.0204 152.077 25.7295 151.954 25.5923 151.864C25.4763 151.788 25.3293 151.646 25.2079 151.281L21.4132 152.546ZM26.6065 156.077C27.7572 156.077 28.892 155.845 29.869 155.223C30.8738 154.584 31.5376 153.642 31.9029 152.546L28.1082 151.281C27.9928 151.627 27.8497 151.767 27.7215 151.849C27.5655 151.948 27.2412 152.077 26.6065 152.077V156.077ZM31.9029 152.546C32.2217 151.59 32.4163 150.295 32.5397 148.78C32.6658 147.23 32.7265 145.317 32.7265 143.056H28.7265C28.7265 145.257 28.6671 147.053 28.5529 148.455C28.4359 149.892 28.27 150.796 28.1082 151.281L31.9029 152.546ZM32.7265 143.056V140.069H28.7265V143.056H32.7265ZM32.7265 140.069C32.7265 137.807 32.6659 135.902 32.5395 134.368C32.4165 132.874 32.2215 131.591 31.8933 130.653L28.1178 131.974C28.2703 132.41 28.4357 133.272 28.553 134.697C28.667 136.081 28.7265 137.867 28.7265 140.069H32.7265ZM71.5153 120.19V122.19H72.2535L72.8146 121.71L71.5153 120.19ZM93.4543 118.542L91.922 119.827L91.9444 119.854L91.9677 119.88L93.4543 118.542ZM96.2353 165.922V167.922H98.2353V165.922H96.2353ZM78.7253 165.922H76.7253V167.922H78.7253V165.922ZM71.6183 132.653L70.4319 131.043L69.6183 131.642V132.653H71.6183ZM71.6183 165.922V167.922H73.6183V165.922H71.6183ZM54.3143 165.922H52.3143V167.922H54.3143V165.922ZM54.3143 116.585V114.585H52.3143V116.585H54.3143ZM70.0733 116.585L71.9964 116.035L71.5819 114.585H70.0733V116.585ZM71.1033 120.19L69.1803 120.739L69.5947 122.19H71.1033V120.19ZM72.8146 121.71C76.2666 118.76 79.9697 117.349 83.9783 117.349V113.349C78.9229 113.349 74.3174 115.164 70.216 118.669L72.8146 121.71ZM83.9783 117.349C88.2853 117.349 90.7018 118.372 91.922 119.827L94.9867 117.256C92.6362 114.454 88.7353 113.349 83.9783 113.349V117.349ZM91.9677 119.88C93.3575 121.424 94.2353 123.975 94.2353 127.915H98.2353C98.2353 123.477 97.2592 119.78 94.9409 117.204L91.9677 119.88ZM94.2353 127.915V165.922H98.2353V127.915H94.2353ZM96.2353 163.922H78.7253V167.922H96.2353V163.922ZM80.7253 165.922V133.786H76.7253V165.922H80.7253ZM80.7253 133.786C80.7253 132.677 80.4871 131.473 79.6603 130.533C78.7905 129.545 77.5941 129.211 76.4593 129.211V133.211C76.6525 133.211 76.7335 133.239 76.7423 133.242C76.7452 133.243 76.7334 133.239 76.7135 133.225C76.6932 133.211 76.6735 133.194 76.6574 133.176C76.5859 133.094 76.7253 133.177 76.7253 133.786H80.7253ZM76.4593 129.211C74.1917 129.211 72.1409 129.783 70.4319 131.043L72.8047 134.263C73.7051 133.599 74.8817 133.211 76.4593 133.211V129.211ZM69.6183 132.653V165.922H73.6183V132.653H69.6183ZM71.6183 163.922H54.3143V167.922H71.6183V163.922ZM56.3143 165.922V116.585H52.3143V165.922H56.3143ZM54.3143 118.585H70.0733V114.585H54.3143V118.585ZM68.1503 117.134L69.1803 120.739L73.0264 119.64L71.9964 116.035L68.1503 117.134ZM71.1033 122.19H71.5153V118.19H71.1033V122.19ZM145.135 147.588L143.31 148.404L143.323 148.434L143.337 148.463L145.135 147.588ZM162.748 149.442L164.715 149.079L164.325 146.965L162.245 147.506L162.748 149.442ZM165.426 163.965L166.116 165.842L167.699 165.261L167.393 163.602L165.426 163.965ZM131.024 158.815L129.367 159.934L129.375 159.946L129.383 159.957L131.024 158.815ZM131.333 109.581L132.982 110.713L132.988 110.704L131.333 109.581ZM165.426 104.225L167.397 104.568L167.66 103.056L166.268 102.41L165.426 104.225ZM162.645 120.19L162.013 122.087L164.217 122.822L164.616 120.533L162.645 120.19ZM145.135 121.529L146.961 122.345L146.965 122.337L146.969 122.328L145.135 121.529ZM141.384 134.61C141.384 140.689 141.958 145.382 143.31 148.404L146.961 146.771C145.978 144.574 145.384 140.616 145.384 134.61H141.384ZM143.337 148.463C144.084 149.999 145.117 151.262 146.48 152.132C147.847 153.004 149.418 153.399 151.109 153.399V149.399C150.054 149.399 149.256 149.158 148.632 148.76C148.003 148.359 147.422 147.717 146.934 146.713L143.337 148.463ZM151.109 153.399C154.115 153.399 158.193 152.694 163.252 151.377L162.245 147.506C157.279 148.799 153.597 149.399 151.109 149.399V153.399ZM160.782 149.804L163.46 164.327L167.393 163.602L164.715 149.079L160.782 149.804ZM164.737 162.087C159.522 164.002 154.296 164.952 149.049 164.952V168.952C154.79 168.952 160.482 167.91 166.116 165.842L164.737 162.087ZM149.049 164.952C141.282 164.952 135.976 162.426 132.666 157.672L129.383 159.957C133.627 166.053 140.337 168.952 149.049 168.952V164.952ZM132.682 157.696C129.297 152.681 127.462 145.013 127.462 134.404H123.462C123.462 145.356 125.336 153.962 129.367 159.934L132.682 157.696ZM127.462 134.404C127.462 123.746 129.393 115.939 132.982 110.713L129.685 108.448C125.445 114.621 123.462 123.363 123.462 134.404H127.462ZM132.988 110.704C136.43 105.632 142.095 102.929 150.491 102.929V98.9286C141.172 98.9286 134.065 101.993 129.678 108.458L132.988 110.704ZM150.491 102.929C155.419 102.929 160.11 103.964 164.585 106.039L166.268 102.41C161.266 100.091 156.001 98.9286 150.491 98.9286V102.929ZM163.456 103.881L160.675 119.846L164.616 120.533L167.397 104.568L163.456 103.881ZM163.278 118.292C157.948 116.516 153.915 115.512 151.418 115.512V119.512C153.179 119.512 156.631 120.293 162.013 122.087L163.278 118.292ZM151.418 115.512C149.609 115.512 147.936 115.915 146.504 116.831C145.068 117.749 144.016 119.092 143.302 120.729L146.969 122.328C147.422 121.287 148.001 120.621 148.659 120.201C149.321 119.778 150.207 119.512 151.418 119.512V115.512ZM143.31 120.712C141.957 123.736 141.384 128.465 141.384 134.61H145.384C145.384 128.531 145.979 124.54 146.961 122.345L143.31 120.712ZM216.736 165.922V167.922H219.137L218.704 165.561L216.736 165.922ZM199.535 165.922L197.572 166.302L197.886 167.922H199.535V165.922ZM197.578 155.828L199.542 155.447L199.228 153.828H197.578V155.828ZM185.424 155.828V153.828H183.775L183.461 155.447L185.424 155.828ZM183.467 165.922V167.922H185.117L185.431 166.302L183.467 165.922ZM167.09 165.922L165.123 165.561L164.69 167.922H167.09V165.922ZM178.832 101.959V99.9586H177.166L176.865 101.598L178.832 101.959ZM204.994 101.959L206.962 101.598L206.661 99.9586H204.994V101.959ZM195.621 143.777V145.777H197.962L197.597 143.465L195.621 143.777ZM192.016 120.911L193.992 120.599L193.726 118.911H192.016V120.911ZM191.295 120.911V118.911H189.586L189.32 120.599L191.295 120.911ZM187.69 143.777L185.715 143.465L185.35 145.777H187.69V143.777ZM216.736 163.922H199.535V167.922H216.736V163.922ZM201.499 165.541L199.542 155.447L195.615 156.208L197.572 166.302L201.499 165.541ZM197.578 153.828H185.424V157.828H197.578V153.828ZM183.461 155.447L181.504 165.541L185.431 166.302L187.388 156.208L183.461 155.447ZM183.467 163.922H167.09V167.922H183.467V163.922ZM169.058 166.283L180.8 102.32L176.865 101.598L165.123 165.561L169.058 166.283ZM178.832 103.959H204.994V99.9586H178.832V103.959ZM203.027 102.32L214.769 166.283L218.704 165.561L206.962 101.598L203.027 102.32ZM197.597 143.465L193.992 120.599L190.041 121.222L193.646 144.088L197.597 143.465ZM192.016 118.911H191.295V122.911H192.016V118.911ZM189.32 120.599L185.715 143.465L189.666 144.088L193.271 121.222L189.32 120.599ZM187.69 145.777H195.621V141.777H187.69V145.777ZM285.03 165.922V167.922H287.099L287.029 165.854L285.03 165.922ZM268.859 165.922H266.859V167.922H268.859V165.922ZM268.859 132.55H270.859V130.55H268.859V132.55ZM267.932 132.55V130.55H266.264L265.965 132.191L267.932 132.55ZM261.855 165.922V167.922H263.524L263.823 166.28L261.855 165.922ZM245.272 165.922L243.302 166.262L243.588 167.922H245.272V165.922ZM239.504 132.55L241.475 132.209L241.188 130.55H239.504V132.55ZM238.474 132.55V130.55H236.474V132.55H238.474ZM238.474 165.922V167.922H240.474V165.922H238.474ZM222.509 165.922L220.51 165.854L220.441 167.922H222.509V165.922ZM224.672 101.959V99.9586H222.739L222.673 101.891L224.672 101.959ZM247.847 101.959L249.82 101.63L249.542 99.9586H247.847V101.959ZM253.615 136.567L251.643 136.895L251.921 138.567H253.615V136.567ZM254.439 136.567V138.567H256.144L256.414 136.884L254.439 136.567ZM260.001 101.959V99.9586H258.297L258.027 101.641L260.001 101.959ZM282.867 101.959L284.866 101.891L284.801 99.9586H282.867V101.959ZM285.03 163.922H268.859V167.922H285.03V163.922ZM270.859 165.922V132.55H266.859V165.922H270.859ZM268.859 130.55H267.932V134.55H268.859V130.55ZM265.965 132.191L259.888 165.563L263.823 166.28L269.9 132.908L265.965 132.191ZM261.855 163.922H245.272V167.922H261.855V163.922ZM247.243 165.581L241.475 132.209L237.534 132.89L243.302 166.262L247.243 165.581ZM239.504 130.55H238.474V134.55H239.504V130.55ZM236.474 132.55V165.922H240.474V132.55H236.474ZM238.474 163.922H222.509V167.922H238.474V163.922ZM224.508 165.989L226.671 102.026L222.673 101.891L220.51 165.854L224.508 165.989ZM224.672 103.959H247.847V99.9586H224.672V103.959ZM245.875 102.287L251.643 136.895L255.588 136.238L249.82 101.63L245.875 102.287ZM253.615 138.567H254.439V134.567H253.615V138.567ZM256.414 136.884L261.976 102.276L258.027 101.641L252.465 136.249L256.414 136.884ZM260.001 103.959H282.867V99.9586H260.001V103.959ZM280.868 102.026L283.031 165.989L287.029 165.854L284.866 101.891L280.868 102.026ZM311.771 145.013V143.013H309.771V145.013H311.771ZM311.771 165.922V167.922H313.771V165.922H311.771ZM294.467 165.922H292.467V167.922H294.467V165.922ZM294.467 101.959V99.9586H292.467V101.959H294.467ZM332.062 140.069L330.662 138.64L330.662 138.64L332.062 140.069ZM318.466 131.108L316.698 130.172L316.698 130.172L318.466 131.108ZM318.363 118.439L320.111 117.467L320.111 117.467L318.363 118.439ZM311.771 116.585V114.585H309.771V116.585H311.771ZM311.771 132.859H309.771V134.859H311.771V132.859ZM316.509 143.013H311.771V147.013H316.509V143.013ZM309.771 145.013V165.922H313.771V145.013H309.771ZM311.771 163.922H294.467V167.922H311.771V163.922ZM296.467 165.922V101.959H292.467V165.922H296.467ZM294.467 103.959H315.376V99.9586H294.467V103.959ZM315.376 103.959C322.462 103.959 327.33 105.586 330.381 108.461L333.124 105.55C329.034 101.696 322.984 99.9586 315.376 99.9586V103.959ZM330.381 108.461C333.372 111.28 335.109 116.143 335.109 123.589H339.109C339.109 115.653 337.275 109.461 333.124 105.55L330.381 108.461ZM335.109 123.589C335.109 131.067 333.46 135.899 330.662 138.64L333.461 141.497C337.393 137.646 339.109 131.491 339.109 123.589H335.109ZM330.662 138.64C327.819 141.425 323.242 143.013 316.509 143.013V147.013C323.784 147.013 329.575 145.304 333.461 141.497L330.662 138.64ZM320.233 132.043C321.104 130.399 321.393 127.854 321.393 124.825H317.393C317.393 127.838 317.064 129.482 316.698 130.172L320.233 132.043ZM321.393 124.825C321.393 121.768 321.065 119.185 320.111 117.467L316.615 119.41C317.034 120.164 317.393 121.839 317.393 124.825H321.393ZM320.111 117.467C318.923 115.329 316.661 114.585 314.243 114.585V118.585C315.944 118.585 316.429 119.076 316.615 119.41L320.111 117.467ZM314.243 114.585H311.771V118.585H314.243V114.585ZM309.771 116.585V132.859H313.771V116.585H309.771ZM311.771 134.859H314.655V130.859H311.771V134.859ZM314.655 134.859C316.941 134.859 319.122 134.143 320.233 132.043L316.698 130.172C316.574 130.407 316.214 130.859 314.655 130.859V134.859Z" fill="#3C1308" mask="url(#path-3-outside-2_2105_76)"/>
<mask id="path-5-outside-3_2105_76" maskUnits="userSpaceOnUse" x="235.02" y="178.254" width="104" height="36" fill="black">
<rect fill="white" x="235.02" y="178.254" width="104" height="36"/>
<path d="M247.46 186.654C249.966 186.654 251.633 187.387 252.46 188.854C253.286 190.294 253.7 192.787 253.7 196.334C253.7 199.854 253.26 202.454 252.38 204.134C251.5 205.814 249.78 206.654 247.22 206.654C245.22 206.654 243.82 206.134 243.02 205.094H242.86L242.46 206.254H237.22V180.614H243.9V187.534H244.06C244.94 186.947 246.073 186.654 247.46 186.654ZM246.74 200.254C246.846 199.774 246.913 199.307 246.94 198.854C246.966 198.401 246.98 197.547 246.98 196.294C246.98 195.014 246.886 194.041 246.7 193.374C246.513 192.681 246.126 192.334 245.54 192.334C244.98 192.334 244.42 192.494 243.86 192.814V201.094C244.366 201.334 244.846 201.454 245.3 201.454C245.78 201.454 246.113 201.374 246.3 201.214C246.513 201.027 246.66 200.707 246.74 200.254ZM272.852 187.094L267.892 206.814C267.386 208.787 266.639 210.161 265.652 210.934C264.666 211.734 263.052 212.134 260.812 212.134H256.812L256.212 206.974H258.452C259.359 206.974 259.812 206.614 259.812 205.894C259.812 205.734 259.759 205.387 259.652 204.854L255.052 187.094H262.172L263.972 199.054H264.332L266.292 187.094H272.852ZM291.263 192.334C290.57 192.334 290.117 192.574 289.903 193.054C289.69 193.507 289.583 194.214 289.583 195.174H293.063V194.214C293.063 192.961 292.463 192.334 291.263 192.334ZM291.423 186.614C294.17 186.614 296.13 187.281 297.303 188.614C298.503 189.921 299.103 191.801 299.103 194.254C299.103 194.574 299.01 196.014 298.823 198.574H289.703C289.703 200.574 290.623 201.574 292.463 201.574C293.343 201.574 295.063 201.267 297.623 200.654L298.183 205.614C295.943 206.307 293.703 206.654 291.463 206.654C288.717 206.654 286.61 205.761 285.143 203.974C283.677 202.161 282.943 199.707 282.943 196.614C282.943 189.947 285.77 186.614 291.423 186.614ZM301.359 201.854V180.614H307.959V199.734C307.959 200.187 308.052 200.507 308.239 200.694C308.452 200.881 308.812 200.974 309.319 200.974L308.799 206.654H306.599C304.839 206.654 303.519 206.294 302.639 205.574C301.785 204.827 301.359 203.587 301.359 201.854ZM311.095 201.854V180.614H317.695V199.734C317.695 200.187 317.788 200.507 317.975 200.694C318.188 200.881 318.548 200.974 319.055 200.974L318.535 206.654H316.335C314.575 206.654 313.255 206.294 312.375 205.574C311.521 204.827 311.095 203.587 311.095 201.854ZM328.83 192.334C328.137 192.334 327.684 192.574 327.47 193.054C327.257 193.507 327.15 194.214 327.15 195.174H330.63V194.214C330.63 192.961 330.03 192.334 328.83 192.334ZM328.99 186.614C331.737 186.614 333.697 187.281 334.87 188.614C336.07 189.921 336.67 191.801 336.67 194.254C336.67 194.574 336.577 196.014 336.39 198.574H327.27C327.27 200.574 328.19 201.574 330.03 201.574C330.91 201.574 332.63 201.267 335.19 200.654L335.75 205.614C333.51 206.307 331.27 206.654 329.03 206.654C326.284 206.654 324.177 205.761 322.71 203.974C321.244 202.161 320.51 199.707 320.51 196.614C320.51 189.947 323.337 186.614 328.99 186.614Z"/>
</mask>
<path d="M247.46 186.654C249.966 186.654 251.633 187.387 252.46 188.854C253.286 190.294 253.7 192.787 253.7 196.334C253.7 199.854 253.26 202.454 252.38 204.134C251.5 205.814 249.78 206.654 247.22 206.654C245.22 206.654 243.82 206.134 243.02 205.094H242.86L242.46 206.254H237.22V180.614H243.9V187.534H244.06C244.94 186.947 246.073 186.654 247.46 186.654ZM246.74 200.254C246.846 199.774 246.913 199.307 246.94 198.854C246.966 198.401 246.98 197.547 246.98 196.294C246.98 195.014 246.886 194.041 246.7 193.374C246.513 192.681 246.126 192.334 245.54 192.334C244.98 192.334 244.42 192.494 243.86 192.814V201.094C244.366 201.334 244.846 201.454 245.3 201.454C245.78 201.454 246.113 201.374 246.3 201.214C246.513 201.027 246.66 200.707 246.74 200.254ZM272.852 187.094L267.892 206.814C267.386 208.787 266.639 210.161 265.652 210.934C264.666 211.734 263.052 212.134 260.812 212.134H256.812L256.212 206.974H258.452C259.359 206.974 259.812 206.614 259.812 205.894C259.812 205.734 259.759 205.387 259.652 204.854L255.052 187.094H262.172L263.972 199.054H264.332L266.292 187.094H272.852ZM291.263 192.334C290.57 192.334 290.117 192.574 289.903 193.054C289.69 193.507 289.583 194.214 289.583 195.174H293.063V194.214C293.063 192.961 292.463 192.334 291.263 192.334ZM291.423 186.614C294.17 186.614 296.13 187.281 297.303 188.614C298.503 189.921 299.103 191.801 299.103 194.254C299.103 194.574 299.01 196.014 298.823 198.574H289.703C289.703 200.574 290.623 201.574 292.463 201.574C293.343 201.574 295.063 201.267 297.623 200.654L298.183 205.614C295.943 206.307 293.703 206.654 291.463 206.654C288.717 206.654 286.61 205.761 285.143 203.974C283.677 202.161 282.943 199.707 282.943 196.614C282.943 189.947 285.77 186.614 291.423 186.614ZM301.359 201.854V180.614H307.959V199.734C307.959 200.187 308.052 200.507 308.239 200.694C308.452 200.881 308.812 200.974 309.319 200.974L308.799 206.654H306.599C304.839 206.654 303.519 206.294 302.639 205.574C301.785 204.827 301.359 203.587 301.359 201.854ZM311.095 201.854V180.614H317.695V199.734C317.695 200.187 317.788 200.507 317.975 200.694C318.188 200.881 318.548 200.974 319.055 200.974L318.535 206.654H316.335C314.575 206.654 313.255 206.294 312.375 205.574C311.521 204.827 311.095 203.587 311.095 201.854ZM328.83 192.334C328.137 192.334 327.684 192.574 327.47 193.054C327.257 193.507 327.15 194.214 327.15 195.174H330.63V194.214C330.63 192.961 330.03 192.334 328.83 192.334ZM328.99 186.614C331.737 186.614 333.697 187.281 334.87 188.614C336.07 189.921 336.67 191.801 336.67 194.254C336.67 194.574 336.577 196.014 336.39 198.574H327.27C327.27 200.574 328.19 201.574 330.03 201.574C330.91 201.574 332.63 201.267 335.19 200.654L335.75 205.614C333.51 206.307 331.27 206.654 329.03 206.654C326.284 206.654 324.177 205.761 322.71 203.974C321.244 202.161 320.51 199.707 320.51 196.614C320.51 189.947 323.337 186.614 328.99 186.614Z" fill="#78EB5B"/>
<path d="M252.46 188.854L250.717 189.836L250.721 189.843L250.725 189.85L252.46 188.854ZM252.38 204.134L250.608 203.206L250.608 203.206L252.38 204.134ZM243.02 205.094L244.605 203.874L244.004 203.094H243.02V205.094ZM242.86 205.094V203.094H241.434L240.969 204.442L242.86 205.094ZM242.46 206.254V208.254H243.885L244.35 206.906L242.46 206.254ZM237.22 206.254H235.22V208.254H237.22V206.254ZM237.22 180.614V178.614H235.22V180.614H237.22ZM243.9 180.614H245.9V178.614H243.9V180.614ZM243.9 187.534H241.9V189.534H243.9V187.534ZM244.06 187.534V189.534H244.665L245.169 189.198L244.06 187.534ZM246.74 200.254L244.787 199.82L244.778 199.863L244.77 199.906L246.74 200.254ZM246.94 198.854L244.943 198.736L244.943 198.736L246.94 198.854ZM246.7 193.374L244.768 193.894L244.771 193.904L244.774 193.913L246.7 193.374ZM243.86 192.814L242.867 191.077L241.86 191.653V192.814H243.86ZM243.86 201.094H241.86V202.36L243.003 202.901L243.86 201.094ZM246.3 201.214L247.601 202.732L247.609 202.726L247.617 202.719L246.3 201.214ZM247.46 188.654C249.631 188.654 250.401 189.275 250.717 189.836L254.202 187.872C252.865 185.5 250.302 184.654 247.46 184.654V188.654ZM250.725 189.85C251.27 190.798 251.7 192.823 251.7 196.334H255.7C255.7 192.751 255.303 189.79 254.194 187.858L250.725 189.85ZM251.7 196.334C251.7 199.763 251.258 201.964 250.608 203.206L254.151 205.062C255.261 202.943 255.7 199.945 255.7 196.334H251.7ZM250.608 203.206C250.193 203.998 249.336 204.654 247.22 204.654V208.654C250.223 208.654 252.806 207.63 254.151 205.062L250.608 203.206ZM247.22 204.654C245.507 204.654 244.861 204.207 244.605 203.874L241.434 206.313C242.778 208.06 244.932 208.654 247.22 208.654V204.654ZM243.02 203.094H242.86V207.094H243.02V203.094ZM240.969 204.442L240.569 205.602L244.35 206.906L244.75 205.746L240.969 204.442ZM242.46 204.254H237.22V208.254H242.46V204.254ZM239.22 206.254V180.614H235.22V206.254H239.22ZM237.22 182.614H243.9V178.614H237.22V182.614ZM241.9 180.614V187.534H245.9V180.614H241.9ZM243.9 189.534H244.06V185.534H243.9V189.534ZM245.169 189.198C245.632 188.889 246.347 188.654 247.46 188.654V184.654C245.799 184.654 244.247 185.005 242.95 185.87L245.169 189.198ZM248.692 200.688C248.82 200.112 248.903 199.54 248.936 198.971L244.943 198.736C244.923 199.075 244.873 199.436 244.787 199.82L248.692 200.688ZM248.936 198.971C248.967 198.451 248.98 197.541 248.98 196.294H244.98C244.98 197.553 244.966 198.35 244.943 198.736L248.936 198.971ZM248.98 196.294C248.98 194.958 248.887 193.767 248.625 192.835L244.774 193.913C244.886 194.314 244.98 195.07 244.98 196.294H248.98ZM248.631 192.854C248.474 192.271 248.177 191.618 247.605 191.105C246.996 190.559 246.257 190.334 245.54 190.334V194.334C245.488 194.334 245.392 194.326 245.271 194.283C245.146 194.239 245.03 194.169 244.934 194.083C244.749 193.917 244.738 193.783 244.768 193.894L248.631 192.854ZM245.54 190.334C244.582 190.334 243.683 190.611 242.867 191.077L244.852 194.55C245.156 194.377 245.377 194.334 245.54 194.334V190.334ZM241.86 192.814V201.094H245.86V192.814H241.86ZM243.003 202.901C243.716 203.239 244.488 203.454 245.3 203.454V199.454C245.204 199.454 245.017 199.429 244.716 199.286L243.003 202.901ZM245.3 203.454C245.866 203.454 246.837 203.387 247.601 202.732L244.998 199.695C245.221 199.504 245.416 199.456 245.443 199.449C245.476 199.441 245.44 199.454 245.3 199.454V203.454ZM247.617 202.719C248.329 202.095 248.596 201.244 248.709 200.601L244.77 199.906C244.751 200.014 244.736 200.034 244.751 200.001C244.768 199.964 244.832 199.841 244.983 199.709L247.617 202.719ZM272.852 187.094L274.792 187.582L275.418 185.094H272.852V187.094ZM267.892 206.814L269.83 207.311L269.832 207.302L267.892 206.814ZM265.652 210.934L264.419 209.36L264.406 209.37L264.393 209.38L265.652 210.934ZM256.812 212.134L254.826 212.365L255.031 214.134H256.812V212.134ZM256.212 206.974V204.974H253.966L254.226 207.205L256.212 206.974ZM259.652 204.854L261.614 204.462L261.603 204.407L261.588 204.352L259.652 204.854ZM255.052 187.094V185.094H252.468L253.116 187.595L255.052 187.094ZM262.172 187.094L264.15 186.796L263.894 185.094H262.172V187.094ZM263.972 199.054L261.995 199.352L262.251 201.054H263.972V199.054ZM264.332 199.054V201.054H266.031L266.306 199.377L264.332 199.054ZM266.292 187.094V185.094H264.593L264.319 186.77L266.292 187.094ZM270.913 186.606L265.953 206.326L269.832 207.302L274.792 187.582L270.913 186.606ZM265.955 206.317C265.495 208.109 264.901 208.982 264.419 209.36L266.886 212.508C268.377 211.34 269.276 209.465 269.83 207.311L265.955 206.317ZM264.393 209.38C263.947 209.742 262.907 210.134 260.812 210.134V214.134C263.197 214.134 265.384 213.726 266.912 212.487L264.393 209.38ZM260.812 210.134H256.812V214.134H260.812V210.134ZM258.799 211.903L258.199 206.743L254.226 207.205L254.826 212.365L258.799 211.903ZM256.212 208.974H258.452V204.974H256.212V208.974ZM258.452 208.974C259.117 208.974 259.985 208.851 260.716 208.27C261.535 207.619 261.812 206.7 261.812 205.894H257.812C257.812 205.867 257.816 205.752 257.883 205.592C257.955 205.421 258.075 205.26 258.229 205.138C258.507 204.917 258.695 204.974 258.452 204.974V208.974ZM261.812 205.894C261.812 205.497 261.71 204.944 261.614 204.462L257.691 205.246C257.741 205.498 257.775 205.686 257.796 205.818C257.806 205.884 257.811 205.926 257.813 205.948C257.816 205.978 257.812 205.952 257.812 205.894H261.812ZM261.588 204.352L256.988 186.592L253.116 187.595L257.716 205.355L261.588 204.352ZM255.052 189.094H262.172V185.094H255.052V189.094ZM260.195 187.392L261.995 199.352L265.95 198.756L264.15 186.796L260.195 187.392ZM263.972 201.054H264.332V197.054H263.972V201.054ZM266.306 199.377L268.266 187.417L264.319 186.77L262.359 198.73L266.306 199.377ZM266.292 189.094H272.852V185.094H266.292V189.094ZM289.903 193.054L291.713 193.906L291.722 193.886L291.731 193.866L289.903 193.054ZM289.583 195.174H287.583V197.174H289.583V195.174ZM293.063 195.174V197.174H295.063V195.174H293.063ZM297.303 188.614L295.802 189.935L295.816 189.951L295.83 189.967L297.303 188.614ZM298.823 198.574V200.574H300.683L300.818 198.719L298.823 198.574ZM289.703 198.574V196.574H287.703V198.574H289.703ZM297.623 200.654L299.611 200.43L299.357 198.182L297.157 198.709L297.623 200.654ZM298.183 205.614L298.775 207.524L300.356 207.035L300.171 205.39L298.183 205.614ZM285.143 203.974L283.588 205.232L283.593 205.237L283.597 205.243L285.143 203.974ZM291.263 190.334C290.7 190.334 290.066 190.43 289.468 190.746C288.835 191.081 288.36 191.603 288.076 192.242L291.731 193.866C291.701 193.933 291.652 194.016 291.576 194.098C291.499 194.18 291.416 194.241 291.339 194.281C291.194 194.358 291.133 194.334 291.263 194.334V190.334ZM288.094 192.202C287.686 193.068 287.583 194.141 287.583 195.174H291.583C291.583 194.762 291.607 194.45 291.641 194.222C291.677 193.986 291.716 193.9 291.713 193.906L288.094 192.202ZM289.583 197.174H293.063V193.174H289.583V197.174ZM295.063 195.174V194.214H291.063V195.174H295.063ZM295.063 194.214C295.063 193.3 294.846 192.244 294.058 191.421C293.254 190.581 292.194 190.334 291.263 190.334V194.334C291.395 194.334 291.426 194.352 291.393 194.34C291.375 194.334 291.341 194.32 291.298 194.293C291.255 194.266 291.21 194.23 291.169 194.187C291.081 194.095 291.05 194.015 291.045 193.999C291.043 193.993 291.063 194.054 291.063 194.214H295.063ZM291.423 188.614C293.908 188.614 295.175 189.223 295.802 189.935L298.805 187.293C297.085 185.338 294.432 184.614 291.423 184.614V188.614ZM295.83 189.967C296.58 190.783 297.103 192.108 297.103 194.254H301.103C301.103 191.493 300.426 189.058 298.776 187.261L295.83 189.967ZM297.103 194.254C297.103 194.251 297.103 194.258 297.103 194.276C297.102 194.294 297.102 194.318 297.1 194.349C297.098 194.411 297.094 194.493 297.089 194.598C297.078 194.807 297.061 195.088 297.037 195.445C296.991 196.157 296.922 197.15 296.829 198.428L300.818 198.719C301.001 196.216 301.103 194.669 301.103 194.254H297.103ZM298.823 196.574H289.703V200.574H298.823V196.574ZM287.703 198.574C287.703 199.843 287.992 201.167 288.921 202.178C289.88 203.22 291.19 203.574 292.463 203.574V199.574C292.179 199.574 292.016 199.535 291.937 199.506C291.899 199.492 291.88 199.481 291.874 199.477C291.868 199.473 291.866 199.471 291.865 199.47C291.864 199.468 291.855 199.459 291.842 199.436C291.829 199.411 291.809 199.368 291.788 199.3C291.745 199.159 291.703 198.927 291.703 198.574H287.703ZM292.463 203.574C293.619 203.574 295.569 203.203 298.089 202.599L297.157 198.709C294.558 199.332 293.068 199.574 292.463 199.574V203.574ZM295.636 200.878L296.196 205.838L300.171 205.39L299.611 200.43L295.636 200.878ZM297.592 203.703C295.534 204.34 293.494 204.654 291.463 204.654V208.654C293.913 208.654 296.352 208.274 298.775 207.524L297.592 203.703ZM291.463 204.654C289.19 204.654 287.703 203.94 286.689 202.705L283.597 205.243C285.517 207.581 288.243 208.654 291.463 208.654V204.654ZM286.698 202.716C285.602 201.36 284.943 199.399 284.943 196.614H280.943C280.943 200.015 281.752 202.961 283.588 205.232L286.698 202.716ZM284.943 196.614C284.943 193.516 285.607 191.565 286.589 190.407C287.517 189.313 288.999 188.614 291.423 188.614V184.614C288.194 184.614 285.437 185.581 283.538 187.82C281.693 189.996 280.943 193.045 280.943 196.614H284.943ZM301.359 180.614V178.614H299.359V180.614H301.359ZM307.959 180.614H309.959V178.614H307.959V180.614ZM308.239 200.694L306.824 202.108L306.871 202.155L306.922 202.199L308.239 200.694ZM309.319 200.974L311.31 201.156L311.51 198.974H309.319V200.974ZM308.799 206.654V208.654H310.624L310.79 206.836L308.799 206.654ZM302.639 205.574L301.322 207.079L301.346 207.101L301.372 207.122L302.639 205.574ZM303.359 201.854V180.614H299.359V201.854H303.359ZM301.359 182.614H307.959V178.614H301.359V182.614ZM305.959 180.614V199.734H309.959V180.614H305.959ZM305.959 199.734C305.959 200.363 306.07 201.354 306.824 202.108L309.653 199.28C309.852 199.479 309.925 199.674 309.949 199.754C309.97 199.828 309.959 199.834 309.959 199.734H305.959ZM306.922 202.199C307.694 202.875 308.67 202.974 309.319 202.974V198.974C309.178 198.974 309.14 198.96 309.171 198.968C309.202 198.976 309.366 199.023 309.556 199.189L306.922 202.199ZM307.327 200.792L306.807 206.472L310.79 206.836L311.31 201.156L307.327 200.792ZM308.799 204.654H306.599V208.654H308.799V204.654ZM306.599 204.654C305.06 204.654 304.278 204.331 303.905 204.026L301.372 207.122C302.759 208.257 304.617 208.654 306.599 208.654V204.654ZM303.956 204.069C303.723 203.865 303.359 203.316 303.359 201.854H299.359C299.359 203.859 299.848 205.789 301.322 207.079L303.956 204.069ZM311.095 180.614V178.614H309.095V180.614H311.095ZM317.695 180.614H319.695V178.614H317.695V180.614ZM317.975 200.694L316.56 202.108L316.607 202.155L316.658 202.199L317.975 200.694ZM319.055 200.974L321.046 201.156L321.246 198.974H319.055V200.974ZM318.535 206.654V208.654H320.36L320.526 206.836L318.535 206.654ZM312.375 205.574L311.058 207.079L311.082 207.101L311.108 207.122L312.375 205.574ZM313.095 201.854V180.614H309.095V201.854H313.095ZM311.095 182.614H317.695V178.614H311.095V182.614ZM315.695 180.614V199.734H319.695V180.614H315.695ZM315.695 199.734C315.695 200.363 315.806 201.354 316.56 202.108L319.389 199.28C319.588 199.479 319.661 199.674 319.685 199.754C319.706 199.828 319.695 199.834 319.695 199.734H315.695ZM316.658 202.199C317.43 202.875 318.406 202.974 319.055 202.974V198.974C318.914 198.974 318.876 198.96 318.906 198.968C318.938 198.976 319.102 199.023 319.292 199.189L316.658 202.199ZM317.063 200.792L316.543 206.472L320.526 206.836L321.046 201.156L317.063 200.792ZM318.535 204.654H316.335V208.654H318.535V204.654ZM316.335 204.654C314.796 204.654 314.014 204.331 313.641 204.026L311.108 207.122C312.495 208.257 314.353 208.654 316.335 208.654V204.654ZM313.692 204.069C313.459 203.865 313.095 203.316 313.095 201.854H309.095C309.095 203.859 309.584 205.789 311.058 207.079L313.692 204.069ZM327.47 193.054L329.28 193.906L329.289 193.886L329.298 193.866L327.47 193.054ZM327.15 195.174H325.15V197.174H327.15V195.174ZM330.63 195.174V197.174H332.63V195.174H330.63ZM334.87 188.614L333.369 189.935L333.383 189.951L333.397 189.967L334.87 188.614ZM336.39 198.574V200.574H338.25L338.385 198.719L336.39 198.574ZM327.27 198.574V196.574H325.27V198.574H327.27ZM335.19 200.654L337.178 200.43L336.924 198.182L334.724 198.709L335.19 200.654ZM335.75 205.614L336.342 207.524L337.924 207.035L337.738 205.39L335.75 205.614ZM322.71 203.974L321.155 205.232L321.16 205.237L321.165 205.243L322.71 203.974ZM328.83 190.334C328.267 190.334 327.633 190.43 327.035 190.746C326.402 191.081 325.927 191.603 325.643 192.242L329.298 193.866C329.269 193.933 329.219 194.016 329.143 194.098C329.066 194.18 328.983 194.241 328.906 194.281C328.761 194.358 328.7 194.334 328.83 194.334V190.334ZM325.661 192.202C325.253 193.068 325.15 194.141 325.15 195.174H329.15C329.15 194.762 329.174 194.45 329.208 194.222C329.244 193.986 329.283 193.9 329.28 193.906L325.661 192.202ZM327.15 197.174H330.63V193.174H327.15V197.174ZM332.63 195.174V194.214H328.63V195.174H332.63ZM332.63 194.214C332.63 193.3 332.413 192.244 331.625 191.421C330.822 190.581 329.761 190.334 328.83 190.334V194.334C328.962 194.334 328.994 194.352 328.96 194.34C328.942 194.334 328.908 194.32 328.865 194.293C328.822 194.266 328.777 194.23 328.736 194.187C328.648 194.095 328.617 194.015 328.613 193.999C328.611 193.993 328.63 194.054 328.63 194.214H332.63ZM328.99 188.614C331.475 188.614 332.742 189.223 333.369 189.935L336.372 187.293C334.652 185.338 331.999 184.614 328.99 184.614V188.614ZM333.397 189.967C334.147 190.783 334.67 192.108 334.67 194.254H338.67C338.67 191.493 337.994 189.058 336.344 187.261L333.397 189.967ZM334.67 194.254C334.67 194.251 334.67 194.258 334.67 194.276C334.67 194.294 334.669 194.318 334.668 194.349C334.665 194.411 334.661 194.493 334.656 194.598C334.645 194.807 334.628 195.088 334.605 195.445C334.559 196.157 334.489 197.15 334.396 198.428L338.385 198.719C338.568 196.216 338.67 194.669 338.67 194.254H334.67ZM336.39 196.574H327.27V200.574H336.39V196.574ZM325.27 198.574C325.27 199.843 325.559 201.167 326.489 202.178C327.447 203.22 328.757 203.574 330.03 203.574V199.574C329.746 199.574 329.583 199.535 329.504 199.506C329.466 199.492 329.448 199.481 329.441 199.477C329.435 199.473 329.434 199.471 329.432 199.47C329.431 199.468 329.422 199.459 329.41 199.436C329.396 199.411 329.376 199.368 329.355 199.3C329.312 199.159 329.27 198.927 329.27 198.574H325.27ZM330.03 203.574C331.186 203.574 333.136 203.203 335.656 202.599L334.724 198.709C332.125 199.332 330.635 199.574 330.03 199.574V203.574ZM333.203 200.878L333.763 205.838L337.738 205.39L337.178 200.43L333.203 200.878ZM335.159 203.703C333.102 204.34 331.061 204.654 329.03 204.654V208.654C331.48 208.654 333.919 208.274 336.342 207.524L335.159 203.703ZM329.03 204.654C326.757 204.654 325.27 203.94 324.256 202.705L321.165 205.243C323.084 207.581 325.81 208.654 329.03 208.654V204.654ZM324.265 202.716C323.169 201.36 322.51 199.399 322.51 196.614H318.51C318.51 200.015 319.319 202.961 321.155 205.232L324.265 202.716ZM322.51 196.614C322.51 193.516 323.174 191.565 324.156 190.407C325.084 189.313 326.566 188.614 328.99 188.614V184.614C325.761 184.614 323.004 185.581 321.105 187.82C319.26 189.996 318.51 193.045 318.51 196.614H322.51Z" fill="#3C1308" mask="url(#path-5-outside-3_2105_76)"/>
</svg>
