<svg width="70" height="70" viewBox="0 0 70 70" fill="none" xmlns="http://www.w3.org/2000/svg">
<path fill-rule="evenodd" clip-rule="evenodd" d="M0.227051 14.1615C0.227051 10.5604 1.57921 7.10672 3.98608 4.56033C6.39294 2.01394 9.65735 0.583387 13.0612 0.583387H22.5117C24.3132 0.583387 25.7996 1.49189 26.726 2.82007H42.932C43.4169 2.12146 44.0514 1.55447 44.7836 1.16566C45.5158 0.776848 46.3247 0.577296 47.1439 0.583387H56.5945C59.9983 0.583387 63.2627 2.01394 65.6696 4.56033C68.0764 7.10672 69.4286 10.5604 69.4286 14.1615V31.5539C69.4286 34.5114 67.4662 36.516 65.2004 37.0024V49.7263C65.2004 53.0001 63.9711 56.1398 61.7831 58.4547C59.595 60.7696 56.6274 62.0701 53.533 62.0701H48.8287C48.5891 62.0701 48.3597 62.0339 48.1403 61.9615C46.8242 63.1539 45.3565 64.2327 43.765 65.1141C44.0591 64.1562 44.2177 63.1316 44.2177 62.0701V58.9718C45.0641 58.2847 45.8598 57.5304 46.5979 56.7154C49.7201 53.269 51.3465 49.3165 51.3465 46.8725C51.3465 42.3225 49.3514 39.4563 46.3855 37.6023C43.282 35.6643 39.0818 34.8373 35.0098 34.8373C30.4362 34.8373 26.2173 35.7631 23.2258 37.7257C20.3626 39.602 18.5308 42.4559 18.5308 46.8725C18.5308 50.8323 20.5913 54.7354 23.8512 57.73C24.3832 58.2172 24.937 58.6723 25.5126 59.0952V62.0701C25.5126 63.1242 25.6689 64.1414 25.9606 65.0918C24.2967 64.2207 22.7318 63.1522 21.296 61.9071C21.03 62.0148 20.7477 62.07 20.463 62.0701H16.1974C13.103 62.0701 10.1353 60.7696 7.94728 58.4547C5.75922 56.1398 4.52998 53.0001 4.52998 49.7263V37.0172C2.23384 36.558 0.227051 34.5435 0.227051 31.5539V14.1615ZM41.8843 62.0701C41.8807 63.6291 41.4134 65.1474 40.5487 66.4098C39.684 67.6721 38.4656 68.6146 37.0664 69.1035C35.6671 69.5924 34.1579 69.603 32.7526 69.1337C31.3473 68.6645 30.1173 67.7393 29.2368 66.4891C28.3331 65.2143 27.8451 63.6636 27.8461 62.0701V57.0091C27.4908 57.0662 27.132 57.0943 26.7727 57.0931C26.4632 57.0931 26.1665 56.963 25.9477 56.7315C25.7289 56.5001 25.6059 56.1861 25.6059 55.8587C25.6059 55.5313 25.7289 55.2174 25.9477 54.9859C26.1665 54.7544 26.4632 54.6243 26.7727 54.6243C27.6617 54.6243 28.6908 54.3528 29.6778 53.7924L31.4186 52.4148C32.639 51.1113 33.5584 49.2128 33.6821 46.6626C33.6752 46.4627 33.672 46.2627 33.6728 46.0627C33.6728 45.7353 33.7957 45.4214 34.0145 45.1899C34.2333 44.9584 34.5301 44.8283 34.8395 44.8283H34.8652C35.1746 44.8283 35.4714 44.9584 35.6902 45.1899C35.909 45.4214 36.0319 45.7353 36.0319 46.0627C36.0319 46.2668 36.028 46.4676 36.0202 46.6651C36.1439 49.161 37.0283 51.0348 38.2137 52.3383L40.1178 53.8442C41.0745 54.37 42.0686 54.6243 42.932 54.6243C43.2414 54.6243 43.5382 54.7544 43.757 54.9859C43.9758 55.2174 44.0987 55.5313 44.0987 55.8587C44.0987 56.1861 43.9758 56.5001 43.757 56.7315C43.5382 56.963 43.2414 57.0931 42.932 57.0931C42.5898 57.0931 42.2397 57.0667 41.8819 57.0141L41.8843 62.0701ZM26.796 9.34992C27.1367 8.84136 27.384 8.30317 27.5427 7.75758H42.1153C42.274 8.30317 42.5213 8.84136 42.862 9.34992L59.8964 34.7657C60.0939 35.062 60.3063 35.3269 60.5334 35.5606V49.7263C60.5334 51.6906 59.7959 53.5744 58.483 54.9633C57.1702 56.3523 55.3896 57.1326 53.533 57.1326H52.3219C54.5854 53.7874 56.0111 50.0621 56.0111 46.8725C56.0111 40.3747 52.9753 35.9853 48.7587 33.3511C44.6751 30.8009 39.5461 29.8998 35.0098 29.8998C29.9625 29.8998 24.7729 30.9021 20.7663 33.5289C16.6221 36.247 13.8639 40.6413 13.8639 46.8725C13.8639 50.6398 15.124 54.1454 17.0934 57.1326H16.1974C14.3407 57.1326 12.5601 56.3523 11.2473 54.9633C9.93447 53.5744 9.19693 51.6906 9.19693 49.7263V35.4816C9.39605 35.2677 9.58429 35.029 9.76163 34.7657L26.796 9.34992ZM27.8647 20.1013C27.2459 20.1013 26.6523 20.3614 26.2147 20.8244C25.7771 21.2874 25.5313 21.9153 25.5313 22.5701V25.0388C25.5313 25.6936 25.7771 26.3215 26.2147 26.7845C26.6523 27.2475 27.2459 27.5076 27.8647 27.5076C28.4836 27.5076 29.0771 27.2475 29.5148 26.7845C29.9524 26.3215 30.1982 25.6936 30.1982 25.0388V22.5701C30.1982 21.9153 29.9524 21.2874 29.5148 20.8244C29.0771 20.3614 28.4836 20.1013 27.8647 20.1013ZM41.8656 20.1013C41.2467 20.1013 40.6532 20.3614 40.2156 20.8244C39.778 21.2874 39.5321 21.9153 39.5321 22.5701V25.0388C39.5321 25.6936 39.778 26.3215 40.2156 26.7845C40.6532 27.2475 41.2467 27.5076 41.8656 27.5076C42.4845 27.5076 43.078 27.2475 43.5156 26.7845C43.9532 26.3215 44.1991 25.6936 44.1991 25.0388V22.5701C44.1991 21.9153 43.9532 21.2874 43.5156 20.8244C43.078 20.3614 42.4845 20.1013 41.8656 20.1013ZM37.537 37.3826H32.1303C30.7676 37.3826 29.5005 39.3971 30.6416 41.019C31.4163 42.1201 33.3624 44.3222 34.9375 44.3222C36.5126 44.3222 38.3607 42.1201 39.0864 41.019C40.3442 38.9354 38.6547 37.4122 37.537 37.3826Z" fill="black"/>
</svg>
