<svg width="126" height="126" viewBox="0 0 126 126" fill="none" xmlns="http://www.w3.org/2000/svg">
<path d="M114.669 66.6386C114.212 66.6413 113.759 66.5537 113.336 66.3809C112.913 66.2081 112.529 65.9535 112.204 65.6317L62.5861 15.9789L12.9681 65.6317C12.3038 66.2005 11.4494 66.4978 10.5755 66.464C9.70164 66.4303 8.87268 66.068 8.2543 65.4496C7.63591 64.8312 7.27365 64.0023 7.23989 63.1284C7.20614 62.2545 7.50338 61.4001 8.07223 60.7358L60.1556 8.65252C60.8061 8.00581 61.6862 7.64282 62.6035 7.64282C63.5208 7.64282 64.4008 8.00581 65.0514 8.65252L117.135 60.7358C117.613 61.2233 117.936 61.8408 118.065 62.511C118.194 63.1813 118.122 63.8747 117.859 64.5046C117.596 65.1344 117.153 65.6728 116.586 66.0523C116.019 66.4319 115.352 66.6358 114.669 66.6386Z" fill="black"/>
<path d="M62.5856 27.7151L20.9189 69.5206V111.778C20.9189 113.619 21.6506 115.386 22.9529 116.688C24.2553 117.99 26.0216 118.722 27.8634 118.722H52.1689V83.9998H73.0023V118.722H97.3078C99.1496 118.722 100.916 117.99 102.218 116.688C103.521 115.386 104.252 113.619 104.252 111.778V69.2776L62.5856 27.7151Z" fill="black"/>
</svg>
