<svg width="571" height="136" viewBox="0 0 571 136" fill="none" xmlns="http://www.w3.org/2000/svg">
<mask id="path-1-outside-1_2105_259" maskUnits="userSpaceOnUse" x="-0.193848" y="19.4209" width="571" height="71" fill="black">
<rect fill="white" x="-0.193848" y="19.4209" width="571" height="71"/>
<path d="M44.5212 38.0109H32.5732V86.4209H14.9602V38.0109H2.29115L3.32115 22.4579H45.5512L44.5212 38.0109ZM96.5522 86.4209H79.3512L77.3942 76.3269H65.2402L63.2832 86.4209H46.9062L58.6482 22.4579H84.8102L96.5522 86.4209ZM75.4372 64.2759L71.8322 41.4099H71.1112L67.5062 64.2759H75.4372ZM121.483 86.4209H103.973V22.4579H121.483V86.4209ZM165.188 86.4209H132.64V22.4579H150.253V72.1039H166.218L165.188 86.4209ZM168.103 41.7189C168.103 35.6076 169.889 30.6979 173.459 26.9899C177.03 23.2819 181.905 21.4279 188.085 21.4279C194.334 21.4279 200.72 22.0459 207.243 23.2819L205.183 39.7619C198.385 38.1826 193.716 37.3929 191.175 37.3929C187.948 37.3929 186.334 38.6976 186.334 41.3069C186.334 42.3369 187.09 43.3326 188.6 44.2939C190.18 45.2552 192.068 46.2852 194.265 47.3839C196.463 48.4139 198.66 49.6842 200.857 51.1949C203.055 52.6369 204.909 54.7312 206.419 57.4779C207.999 60.2246 208.788 63.3832 208.788 66.9539C208.788 73.4772 207.037 78.5242 203.535 82.0949C200.033 85.6656 195.055 87.4509 188.6 87.4509C182.214 87.4509 175.966 86.4552 169.854 84.4639L170.987 69.1169C178.335 71.2456 183.45 72.3099 186.334 72.3099C189.218 72.3099 190.66 71.0396 190.66 68.4989C190.66 67.1942 189.871 65.9926 188.291 64.8939C186.781 63.7952 184.927 62.6966 182.729 61.5979C180.532 60.4992 178.3 59.2289 176.034 57.7869C173.837 56.3449 171.949 54.2506 170.369 51.5039C168.859 48.7572 168.103 45.4956 168.103 41.7189ZM236.363 61.5979C236.363 52.5339 238.08 45.9762 241.513 41.9249C245.015 37.8736 250.44 35.8479 257.787 35.8479C265.203 35.8479 270.594 37.8392 273.958 41.8219C277.323 45.8046 279.005 52.3622 279.005 61.4949C279.005 70.5589 277.357 77.1509 274.061 81.2709C270.765 85.3909 265.375 87.4509 257.89 87.4509C250.406 87.4509 244.947 85.3909 241.513 81.2709C238.08 77.1509 236.363 70.5932 236.363 61.5979ZM261.083 51.8129C260.671 50.4396 259.573 49.7529 257.787 49.7529C256.002 49.7529 254.869 50.4396 254.388 51.8129C253.908 53.1862 253.667 56.0702 253.667 60.4649V62.9369C253.667 67.8122 253.908 70.9709 254.388 72.4129C254.869 73.8549 255.968 74.5759 257.684 74.5759C259.47 74.5759 260.603 73.8549 261.083 72.4129C261.564 70.9709 261.804 68.0182 261.804 63.5549V60.5679C261.804 56.1046 261.564 53.1862 261.083 51.8129ZM302.593 40.6889C306.37 37.4616 310.524 35.8479 315.056 35.8479C319.588 35.8479 322.747 36.9122 324.532 39.0409C326.386 41.1009 327.313 44.2252 327.313 48.4139V86.4209H309.803V54.2849C309.803 52.5682 309.048 51.7099 307.537 51.7099C305.615 51.7099 304.001 52.1906 302.696 53.1519V86.4209H285.392V37.0839H301.151L302.181 40.6889H302.593ZM374.462 55.1089C374.462 61.1516 375.046 65.4776 376.213 68.0869C377.449 70.6276 379.441 71.8979 382.187 71.8979C384.934 71.8979 388.814 71.2456 393.826 69.9409L396.504 84.4639C391.08 86.4552 385.621 87.4509 380.127 87.4509C371.887 87.4509 365.879 84.7386 362.102 79.3139C358.394 73.8206 356.54 65.6836 356.54 54.9029C356.54 44.0536 358.497 35.7792 362.411 30.0799C366.325 24.3119 372.711 21.4279 381.569 21.4279C386.788 21.4279 391.766 22.5266 396.504 24.7239L393.723 40.6889C388.367 38.9036 384.625 38.0109 382.496 38.0109C379.475 38.0109 377.381 39.3499 376.213 42.0279C375.046 44.6372 374.462 48.9976 374.462 55.1089ZM447.814 86.4209H430.613L428.656 76.3269H416.502L414.545 86.4209H398.168L409.91 22.4579H436.072L447.814 86.4209ZM426.699 64.2759L423.094 41.4099H422.373L418.768 64.2759H426.699ZM516.108 86.4209H499.937V53.0489H499.01L492.933 86.4209H476.35L470.582 53.0489H469.552V86.4209H453.587L455.75 22.4579H478.925L484.693 57.0659H485.517L491.079 22.4579H513.945L516.108 86.4209ZM547.587 65.5119H542.849V86.4209H525.545V22.4579H546.454C553.801 22.4579 559.26 24.1402 562.831 27.5049C566.401 30.8696 568.187 36.3972 568.187 44.0879C568.187 51.7786 566.504 57.2719 563.14 60.5679C559.775 63.8639 554.591 65.5119 547.587 65.5119ZM549.544 51.6069C550.162 50.4396 550.471 48.3452 550.471 45.3239C550.471 42.3026 550.127 40.1739 549.441 38.9379C548.754 37.7019 547.381 37.0839 545.321 37.0839H542.849V53.3579H545.733C547.655 53.3579 548.926 52.7742 549.544 51.6069Z"/>
</mask>
<path d="M44.5212 38.0109H32.5732V86.4209H14.9602V38.0109H2.29115L3.32115 22.4579H45.5512L44.5212 38.0109ZM96.5522 86.4209H79.3512L77.3942 76.3269H65.2402L63.2832 86.4209H46.9062L58.6482 22.4579H84.8102L96.5522 86.4209ZM75.4372 64.2759L71.8322 41.4099H71.1112L67.5062 64.2759H75.4372ZM121.483 86.4209H103.973V22.4579H121.483V86.4209ZM165.188 86.4209H132.64V22.4579H150.253V72.1039H166.218L165.188 86.4209ZM168.103 41.7189C168.103 35.6076 169.889 30.6979 173.459 26.9899C177.03 23.2819 181.905 21.4279 188.085 21.4279C194.334 21.4279 200.72 22.0459 207.243 23.2819L205.183 39.7619C198.385 38.1826 193.716 37.3929 191.175 37.3929C187.948 37.3929 186.334 38.6976 186.334 41.3069C186.334 42.3369 187.09 43.3326 188.6 44.2939C190.18 45.2552 192.068 46.2852 194.265 47.3839C196.463 48.4139 198.66 49.6842 200.857 51.1949C203.055 52.6369 204.909 54.7312 206.419 57.4779C207.999 60.2246 208.788 63.3832 208.788 66.9539C208.788 73.4772 207.037 78.5242 203.535 82.0949C200.033 85.6656 195.055 87.4509 188.6 87.4509C182.214 87.4509 175.966 86.4552 169.854 84.4639L170.987 69.1169C178.335 71.2456 183.45 72.3099 186.334 72.3099C189.218 72.3099 190.66 71.0396 190.66 68.4989C190.66 67.1942 189.871 65.9926 188.291 64.8939C186.781 63.7952 184.927 62.6966 182.729 61.5979C180.532 60.4992 178.3 59.2289 176.034 57.7869C173.837 56.3449 171.949 54.2506 170.369 51.5039C168.859 48.7572 168.103 45.4956 168.103 41.7189ZM236.363 61.5979C236.363 52.5339 238.08 45.9762 241.513 41.9249C245.015 37.8736 250.44 35.8479 257.787 35.8479C265.203 35.8479 270.594 37.8392 273.958 41.8219C277.323 45.8046 279.005 52.3622 279.005 61.4949C279.005 70.5589 277.357 77.1509 274.061 81.2709C270.765 85.3909 265.375 87.4509 257.89 87.4509C250.406 87.4509 244.947 85.3909 241.513 81.2709C238.08 77.1509 236.363 70.5932 236.363 61.5979ZM261.083 51.8129C260.671 50.4396 259.573 49.7529 257.787 49.7529C256.002 49.7529 254.869 50.4396 254.388 51.8129C253.908 53.1862 253.667 56.0702 253.667 60.4649V62.9369C253.667 67.8122 253.908 70.9709 254.388 72.4129C254.869 73.8549 255.968 74.5759 257.684 74.5759C259.47 74.5759 260.603 73.8549 261.083 72.4129C261.564 70.9709 261.804 68.0182 261.804 63.5549V60.5679C261.804 56.1046 261.564 53.1862 261.083 51.8129ZM302.593 40.6889C306.37 37.4616 310.524 35.8479 315.056 35.8479C319.588 35.8479 322.747 36.9122 324.532 39.0409C326.386 41.1009 327.313 44.2252 327.313 48.4139V86.4209H309.803V54.2849C309.803 52.5682 309.048 51.7099 307.537 51.7099C305.615 51.7099 304.001 52.1906 302.696 53.1519V86.4209H285.392V37.0839H301.151L302.181 40.6889H302.593ZM374.462 55.1089C374.462 61.1516 375.046 65.4776 376.213 68.0869C377.449 70.6276 379.441 71.8979 382.187 71.8979C384.934 71.8979 388.814 71.2456 393.826 69.9409L396.504 84.4639C391.08 86.4552 385.621 87.4509 380.127 87.4509C371.887 87.4509 365.879 84.7386 362.102 79.3139C358.394 73.8206 356.54 65.6836 356.54 54.9029C356.54 44.0536 358.497 35.7792 362.411 30.0799C366.325 24.3119 372.711 21.4279 381.569 21.4279C386.788 21.4279 391.766 22.5266 396.504 24.7239L393.723 40.6889C388.367 38.9036 384.625 38.0109 382.496 38.0109C379.475 38.0109 377.381 39.3499 376.213 42.0279C375.046 44.6372 374.462 48.9976 374.462 55.1089ZM447.814 86.4209H430.613L428.656 76.3269H416.502L414.545 86.4209H398.168L409.91 22.4579H436.072L447.814 86.4209ZM426.699 64.2759L423.094 41.4099H422.373L418.768 64.2759H426.699ZM516.108 86.4209H499.937V53.0489H499.01L492.933 86.4209H476.35L470.582 53.0489H469.552V86.4209H453.587L455.75 22.4579H478.925L484.693 57.0659H485.517L491.079 22.4579H513.945L516.108 86.4209ZM547.587 65.5119H542.849V86.4209H525.545V22.4579H546.454C553.801 22.4579 559.26 24.1402 562.831 27.5049C566.401 30.8696 568.187 36.3972 568.187 44.0879C568.187 51.7786 566.504 57.2719 563.14 60.5679C559.775 63.8639 554.591 65.5119 547.587 65.5119ZM549.544 51.6069C550.162 50.4396 550.471 48.3452 550.471 45.3239C550.471 42.3026 550.127 40.1739 549.441 38.9379C548.754 37.7019 547.381 37.0839 545.321 37.0839H542.849V53.3579H545.733C547.655 53.3579 548.926 52.7742 549.544 51.6069Z" fill="#EB865B"/>
<path d="M44.5212 38.0109V40.0109H46.3931L46.5168 38.1431L44.5212 38.0109ZM32.5732 38.0109V36.0109H30.5732V38.0109H32.5732ZM32.5732 86.4209V88.4209H34.5732V86.4209H32.5732ZM14.9602 86.4209H12.9602V88.4209H14.9602V86.4209ZM14.9602 38.0109H16.9602V36.0109H14.9602V38.0109ZM2.29115 38.0109L0.295524 37.8787L0.154321 40.0109H2.29115V38.0109ZM3.32115 22.4579V20.4579H1.44922L1.32552 22.3257L3.32115 22.4579ZM45.5512 22.4579L47.5468 22.5901L47.688 20.4579H45.5512V22.4579ZM44.5212 36.0109H32.5732V40.0109H44.5212V36.0109ZM30.5732 38.0109V86.4209H34.5732V38.0109H30.5732ZM32.5732 84.4209H14.9602V88.4209H32.5732V84.4209ZM16.9602 86.4209V38.0109H12.9602V86.4209H16.9602ZM14.9602 36.0109H2.29115V40.0109H14.9602V36.0109ZM4.28678 38.1431L5.31678 22.5901L1.32552 22.3257L0.295524 37.8787L4.28678 38.1431ZM3.32115 24.4579H45.5512V20.4579H3.32115V24.4579ZM43.5555 22.3257L42.5255 37.8787L46.5168 38.1431L47.5468 22.5901L43.5555 22.3257ZM96.5522 86.4209V88.4209H98.9528L98.5194 86.0598L96.5522 86.4209ZM79.3512 86.4209L77.3878 86.8016L77.7018 88.4209H79.3512V86.4209ZM77.3942 76.3269L79.3577 75.9462L79.0437 74.3269H77.3942V76.3269ZM65.2402 76.3269V74.3269H63.5908L63.2768 75.9462L65.2402 76.3269ZM63.2832 86.4209V88.4209H64.9327L65.2467 86.8016L63.2832 86.4209ZM46.9062 86.4209L44.9391 86.0598L44.5057 88.4209H46.9062V86.4209ZM58.6482 22.4579V20.4579H56.982L56.6811 22.0968L58.6482 22.4579ZM84.8102 22.4579L86.7774 22.0968L86.4765 20.4579H84.8102V22.4579ZM75.4372 64.2759V66.2759H77.7773L77.4128 63.9644L75.4372 64.2759ZM71.8322 41.4099L73.8078 41.0984L73.5416 39.4099H71.8322V41.4099ZM71.1112 41.4099V39.4099H69.4019L69.1357 41.0984L71.1112 41.4099ZM67.5062 64.2759L65.5306 63.9644L65.1662 66.2759H67.5062V64.2759ZM96.5522 84.4209H79.3512V88.4209H96.5522V84.4209ZM81.3147 86.0402L79.3577 75.9462L75.4308 76.7076L77.3878 86.8016L81.3147 86.0402ZM77.3942 74.3269H65.2402V78.3269H77.3942V74.3269ZM63.2768 75.9462L61.3198 86.0402L65.2467 86.8016L67.2037 76.7076L63.2768 75.9462ZM63.2832 84.4209H46.9062V88.4209H63.2832V84.4209ZM48.8734 86.782L60.6154 22.819L56.6811 22.0968L44.9391 86.0598L48.8734 86.782ZM58.6482 24.4579H84.8102V20.4579H58.6482V24.4579ZM82.8431 22.819L94.5851 86.782L98.5194 86.0598L86.7774 22.0968L82.8431 22.819ZM77.4128 63.9644L73.8078 41.0984L69.8566 41.7214L73.4616 64.5874L77.4128 63.9644ZM71.8322 39.4099H71.1112V43.4099H71.8322V39.4099ZM69.1357 41.0984L65.5306 63.9644L69.4818 64.5874L73.0868 41.7214L69.1357 41.0984ZM67.5062 66.2759H75.4372V62.2759H67.5062V66.2759ZM121.483 86.4209V88.4209H123.483V86.4209H121.483ZM103.973 86.4209H101.973V88.4209H103.973V86.4209ZM103.973 22.4579V20.4579H101.973V22.4579H103.973ZM121.483 22.4579H123.483V20.4579H121.483V22.4579ZM121.483 84.4209H103.973V88.4209H121.483V84.4209ZM105.973 86.4209V22.4579H101.973V86.4209H105.973ZM103.973 24.4579H121.483V20.4579H103.973V24.4579ZM119.483 22.4579V86.4209H123.483V22.4579H119.483ZM165.188 86.4209V88.4209H167.049L167.183 86.5644L165.188 86.4209ZM132.64 86.4209H130.64V88.4209H132.64V86.4209ZM132.64 22.4579V20.4579H130.64V22.4579H132.64ZM150.253 22.4579H152.253V20.4579H150.253V22.4579ZM150.253 72.1039H148.253V74.1039H150.253V72.1039ZM166.218 72.1039L168.213 72.2474L168.367 70.1039H166.218V72.1039ZM165.188 84.4209H132.64V88.4209H165.188V84.4209ZM134.64 86.4209V22.4579H130.64V86.4209H134.64ZM132.64 24.4579H150.253V20.4579H132.64V24.4579ZM148.253 22.4579V72.1039H152.253V22.4579H148.253ZM150.253 74.1039H166.218V70.1039H150.253V74.1039ZM164.223 71.9604L163.193 86.2774L167.183 86.5644L168.213 72.2474L164.223 71.9604ZM173.459 26.9899L174.9 28.3772L173.459 26.9899ZM207.243 23.2819L209.228 23.53L209.461 21.6665L207.616 21.3169L207.243 23.2819ZM205.183 39.7619L204.731 41.71L206.893 42.2123L207.168 40.01L205.183 39.7619ZM188.6 44.2939L187.527 45.9812L187.544 45.9919L187.561 46.0023L188.6 44.2939ZM194.265 47.3839L193.371 49.1728L193.394 49.1841L193.417 49.1948L194.265 47.3839ZM200.857 51.1949L199.724 52.843L199.742 52.8552L199.76 52.867L200.857 51.1949ZM206.419 57.4779L204.667 58.4417L204.676 58.4584L204.686 58.4748L206.419 57.4779ZM203.535 82.0949L202.108 80.6945L203.535 82.0949ZM169.854 84.4639L167.86 84.3167L167.744 85.8799L169.235 86.3655L169.854 84.4639ZM170.987 69.1169L171.544 67.1959L169.174 66.5094L168.993 68.9697L170.987 69.1169ZM188.291 64.8939L187.115 66.5114L187.132 66.5237L187.149 66.5357L188.291 64.8939ZM182.729 61.5979L183.624 59.809L182.729 61.5979ZM176.034 57.7869L174.937 59.459L174.949 59.4667L174.961 59.4742L176.034 57.7869ZM170.369 51.5039L168.617 52.4677L168.626 52.4844L168.636 52.5008L170.369 51.5039ZM170.103 41.7189C170.103 36.0215 171.754 31.6441 174.9 28.3772L172.019 25.6026C168.023 29.7517 166.103 35.1936 166.103 41.7189H170.103ZM174.9 28.3772C178.019 25.1378 182.332 23.4279 188.085 23.4279V19.4279C181.479 19.4279 176.041 21.4259 172.019 25.6026L174.9 28.3772ZM188.085 23.4279C194.202 23.4279 200.463 24.0327 206.871 25.2469L207.616 21.3169C200.977 20.059 194.467 19.4279 188.085 19.4279V23.4279ZM205.259 23.0338L203.199 39.5138L207.168 40.01L209.228 23.53L205.259 23.0338ZM205.636 37.8138C198.862 36.2399 193.978 35.3929 191.175 35.3929V39.3929C193.454 39.3929 197.909 40.1252 204.731 41.71L205.636 37.8138ZM191.175 35.3929C189.344 35.3929 187.6 35.7546 186.287 36.8161C184.893 37.9434 184.334 39.5681 184.334 41.3069H188.334C188.334 40.4364 188.583 40.104 188.802 39.9267C189.103 39.6836 189.779 39.3929 191.175 39.3929V35.3929ZM184.334 41.3069C184.334 43.4064 185.865 44.924 187.527 45.9812L189.674 42.6066C189.04 42.2028 188.681 41.8634 188.494 41.6174C188.405 41.5002 188.367 41.4187 188.35 41.3742C188.335 41.3333 188.334 41.3142 188.334 41.3069H184.334ZM187.561 46.0023C189.2 47 191.139 48.0568 193.371 49.1728L195.16 45.595C192.997 44.5137 191.16 43.5104 189.64 42.5855L187.561 46.0023ZM193.417 49.1948C195.506 50.1741 197.608 51.3883 199.724 52.843L201.991 49.5468C199.712 47.9802 197.42 46.6537 195.114 45.573L193.417 49.1948ZM199.76 52.867C201.637 54.0984 203.283 55.9262 204.667 58.4417L208.172 56.5141C206.534 53.5363 204.473 51.1754 201.955 49.5228L199.76 52.867ZM204.686 58.4748C206.069 60.8812 206.788 63.6878 206.788 66.9539H210.788C210.788 63.0787 209.928 59.5679 208.153 56.481L204.686 58.4748ZM206.788 66.9539C206.788 73.1189 205.141 77.6012 202.108 80.6945L204.963 83.4953C208.934 79.4473 210.788 73.8355 210.788 66.9539H206.788ZM202.108 80.6945C199.083 83.7788 194.682 85.4509 188.6 85.4509V89.4509C195.429 89.4509 200.984 87.5524 204.963 83.4953L202.108 80.6945ZM188.6 85.4509C182.426 85.4509 176.387 84.4889 170.474 82.5623L169.235 86.3655C175.545 88.4216 182.003 89.4509 188.6 89.4509V85.4509ZM171.849 84.6111L172.982 69.2641L168.993 68.9697L167.86 84.3167L171.849 84.6111ZM170.431 71.0379C177.756 73.1601 183.129 74.3099 186.334 74.3099V70.3099C183.772 70.3099 178.914 69.331 171.544 67.1959L170.431 71.0379ZM186.334 74.3099C188.027 74.3099 189.67 73.9427 190.901 72.8579C192.181 71.7304 192.66 70.148 192.66 68.4989H188.66C188.66 69.3905 188.419 69.7135 188.257 69.8564C188.046 70.042 187.526 70.3099 186.334 70.3099V74.3099ZM192.66 68.4989C192.66 66.2682 191.281 64.5369 189.434 63.2521L187.149 66.5357C188.461 67.4482 188.66 68.1202 188.66 68.4989H192.66ZM189.468 63.2764C187.845 62.0964 185.891 60.9426 183.624 59.809L181.835 63.3868C183.963 64.4506 185.716 65.494 187.115 66.5114L189.468 63.2764ZM183.624 59.809C181.493 58.7438 179.322 57.508 177.108 56.0996L174.961 59.4742C177.279 60.9498 179.571 62.2547 181.835 63.3868L183.624 59.809ZM177.132 56.1148C175.245 54.8767 173.558 53.037 172.103 50.507L168.636 52.5008C170.339 55.4641 172.429 57.8131 174.937 59.459L177.132 56.1148ZM172.122 50.5401C170.804 48.1436 170.103 45.2273 170.103 41.7189H166.103C166.103 45.7639 166.914 49.3709 168.617 52.4677L172.122 50.5401ZM241.513 41.9249L240 40.617L239.994 40.6244L239.988 40.6319L241.513 41.9249ZM274.061 81.2709L275.623 82.5203L274.061 81.2709ZM241.513 81.2709L239.977 82.5513L241.513 81.2709ZM261.083 51.8129L259.168 52.3876L259.181 52.4309L259.196 52.4736L261.083 51.8129ZM254.388 51.8129L252.501 51.1522L254.388 51.8129ZM254.388 72.4129L256.286 71.7804L254.388 72.4129ZM261.083 72.4129L259.186 71.7804L261.083 72.4129ZM238.363 61.5979C238.363 52.7014 240.064 46.7283 243.039 43.2179L239.988 40.6319C236.096 45.2241 234.363 52.3664 234.363 61.5979H238.363ZM243.027 43.2328C246.022 39.7673 250.795 37.8479 257.787 37.8479V33.8479C250.085 33.8479 244.009 35.9798 240 40.617L243.027 43.2328ZM257.787 37.8479C264.873 37.8479 269.586 39.7452 272.431 43.1126L275.486 40.5312C271.602 35.9333 265.534 33.8479 257.787 33.8479V37.8479ZM272.431 43.1126C275.333 46.548 277.005 52.5139 277.005 61.4949H281.005C281.005 52.2106 279.313 45.0611 275.486 40.5312L272.431 43.1126ZM277.005 61.4949C277.005 70.3998 275.371 76.4329 272.5 80.0215L275.623 82.5203C279.344 77.8689 281.005 70.718 281.005 61.4949H277.005ZM272.5 80.0215C269.723 83.4921 265.034 85.4509 257.89 85.4509V89.4509C265.716 89.4509 271.808 87.2897 275.623 82.5203L272.5 80.0215ZM257.89 85.4509C250.754 85.4509 245.97 83.4945 243.05 79.9905L239.977 82.5513C243.924 87.2873 250.058 89.4509 257.89 89.4509V85.4509ZM243.05 79.9905C240.061 76.4036 238.363 70.4167 238.363 61.5979H234.363C234.363 70.7698 236.099 77.8982 239.977 82.5513L243.05 79.9905ZM262.999 51.2382C262.67 50.1396 262.017 49.2008 261.01 48.5719C260.045 47.9683 258.919 47.7529 257.787 47.7529V51.7529C258.442 51.7529 258.758 51.8809 258.89 51.9639C258.983 52.0217 259.085 52.1128 259.168 52.3876L262.999 51.2382ZM257.787 47.7529C256.652 47.7529 255.532 47.9698 254.562 48.5575C253.559 49.1655 252.878 50.0735 252.501 51.1522L256.276 52.4736C256.379 52.179 256.506 52.057 256.635 51.9783C256.799 51.8793 257.137 51.7529 257.787 51.7529V47.7529ZM252.501 51.1522C252.173 52.0878 251.978 53.3607 251.855 54.8398C251.728 56.3575 251.667 58.2373 251.667 60.4649H255.667C255.667 58.2978 255.727 56.5383 255.841 55.172C255.958 53.7671 256.123 52.9113 256.276 52.4736L252.501 51.1522ZM251.667 60.4649V62.9369H255.667V60.4649H251.667ZM251.667 62.9369C251.667 65.4014 251.728 67.4651 251.853 69.1141C251.976 70.7204 252.169 72.0775 252.491 73.0454L256.286 71.7804C256.128 71.3063 255.96 70.363 255.842 68.8107C255.727 67.301 255.667 65.3477 255.667 62.9369H251.667ZM252.491 73.0454C252.85 74.123 253.493 75.0624 254.476 75.7072C255.437 76.3382 256.554 76.5759 257.684 76.5759V72.5759C257.098 72.5759 256.807 72.4531 256.67 72.3631C256.554 72.2869 256.407 72.1448 256.286 71.7804L252.491 73.0454ZM257.684 76.5759C258.835 76.5759 259.97 76.3442 260.947 75.7225C261.952 75.083 262.616 74.1414 262.981 73.0454L259.186 71.7804C259.071 72.1264 258.928 72.2663 258.799 72.3478C258.643 72.4471 258.319 72.5759 257.684 72.5759V76.5759ZM262.981 73.0454C263.3 72.0889 263.494 70.7947 263.618 69.2792C263.744 67.7292 263.804 65.8166 263.804 63.5549H259.804C259.804 65.7565 259.745 67.5519 259.631 68.9546C259.514 70.3917 259.348 71.2949 259.186 71.7804L262.981 73.0454ZM263.804 63.5549V60.5679H259.804V63.5549H263.804ZM263.804 60.5679C263.804 58.3066 263.744 56.4016 263.617 54.8675C263.494 53.3734 263.299 52.0899 262.971 51.1522L259.196 52.4736C259.348 52.9092 259.514 53.7715 259.631 55.1958C259.745 56.58 259.804 58.3659 259.804 60.5679H263.804ZM302.593 40.6889V42.6889H303.331L303.893 42.2094L302.593 40.6889ZM324.532 39.0409L323 40.3261L323.022 40.3529L323.046 40.3788L324.532 39.0409ZM327.313 86.4209V88.4209H329.313V86.4209H327.313ZM309.803 86.4209H307.803V88.4209H309.803V86.4209ZM302.696 53.1519L301.51 51.5418L300.696 52.1413V53.1519H302.696ZM302.696 86.4209V88.4209H304.696V86.4209H302.696ZM285.392 86.4209H283.392V88.4209H285.392V86.4209ZM285.392 37.0839V35.0839H283.392V37.0839H285.392ZM301.151 37.0839L303.074 36.5345L302.66 35.0839H301.151V37.0839ZM302.181 40.6889L300.258 41.2383L300.673 42.6889H302.181V40.6889ZM303.893 42.2094C307.345 39.2595 311.048 37.8479 315.056 37.8479V33.8479C310.001 33.8479 305.395 35.6636 301.294 39.1684L303.893 42.2094ZM315.056 37.8479C319.363 37.8479 321.78 38.8713 323 40.3261L326.065 37.7557C323.714 34.9532 319.813 33.8479 315.056 33.8479V37.8479ZM323.046 40.3788C324.435 41.923 325.313 44.4742 325.313 48.4139H329.313C329.313 43.9763 328.337 40.2788 326.019 37.703L323.046 40.3788ZM325.313 48.4139V86.4209H329.313V48.4139H325.313ZM327.313 84.4209H309.803V88.4209H327.313V84.4209ZM311.803 86.4209V54.2849H307.803V86.4209H311.803ZM311.803 54.2849C311.803 53.1767 311.565 51.9719 310.738 51.0324C309.868 50.044 308.672 49.7099 307.537 49.7099V53.7099C307.73 53.7099 307.811 53.7379 307.82 53.7412C307.823 53.7423 307.811 53.738 307.791 53.7245C307.771 53.7106 307.751 53.6932 307.735 53.6749C307.664 53.5937 307.803 53.6765 307.803 54.2849H311.803ZM307.537 49.7099C305.27 49.7099 303.219 50.2825 301.51 51.5418L303.883 54.762C304.783 54.0986 305.96 53.7099 307.537 53.7099V49.7099ZM300.696 53.1519V86.4209H304.696V53.1519H300.696ZM302.696 84.4209H285.392V88.4209H302.696V84.4209ZM287.392 86.4209V37.0839H283.392V86.4209H287.392ZM285.392 39.0839H301.151V35.0839H285.392V39.0839ZM299.228 37.6333L300.258 41.2383L304.104 40.1395L303.074 36.5345L299.228 37.6333ZM302.181 42.6889H302.593V38.6889H302.181V42.6889ZM376.213 68.0869L374.388 68.9036L374.401 68.9329L374.415 68.9618L376.213 68.0869ZM393.826 69.9409L395.793 69.5782L395.403 67.4638L393.323 68.0054L393.826 69.9409ZM396.504 84.4639L397.194 86.3414L398.777 85.7601L398.471 84.1012L396.504 84.4639ZM362.102 79.3139L360.445 80.4328L360.453 80.4448L360.461 80.4566L362.102 79.3139ZM362.411 30.0799L364.06 31.2121L364.066 31.2029L362.411 30.0799ZM396.504 24.7239L398.475 25.0671L398.738 23.5552L397.346 22.9095L396.504 24.7239ZM393.723 40.6889L393.091 42.5863L395.295 43.321L395.694 41.0321L393.723 40.6889ZM376.213 42.0279L378.039 42.8446L378.043 42.8359L378.047 42.8271L376.213 42.0279ZM372.462 55.1089C372.462 61.1883 373.036 65.8817 374.388 68.9036L378.039 67.2702C377.056 65.0735 376.462 61.1148 376.462 55.1089H372.462ZM374.415 68.9618C375.162 70.4985 376.195 71.7617 377.558 72.6313C378.925 73.503 380.496 73.8979 382.187 73.8979V69.8979C381.132 69.8979 380.334 69.6576 379.709 69.259C379.081 68.8583 378.5 68.216 378.012 67.212L374.415 68.9618ZM382.187 73.8979C385.193 73.8979 389.271 73.1932 394.33 71.8764L393.323 68.0054C388.357 69.2979 384.675 69.8979 382.187 69.8979V73.8979ZM391.859 70.3036L394.538 84.8266L398.471 84.1012L395.793 69.5782L391.859 70.3036ZM395.815 82.5864C390.6 84.501 385.373 85.4509 380.127 85.4509V89.4509C385.868 89.4509 391.56 88.4095 397.194 86.3414L395.815 82.5864ZM380.127 85.4509C372.36 85.4509 367.053 82.9252 363.744 78.1712L360.461 80.4566C364.705 86.552 371.415 89.4509 380.127 89.4509V85.4509ZM363.76 78.195C360.375 73.1803 358.54 65.512 358.54 54.9029H354.54C354.54 65.8552 356.414 74.4608 360.445 80.4328L363.76 78.195ZM358.54 54.9029C358.54 44.2451 360.471 36.4378 364.06 31.2121L360.763 28.9477C356.523 35.1206 354.54 43.862 354.54 54.9029H358.54ZM364.066 31.2029C367.508 26.1315 373.173 23.4279 381.569 23.4279V19.4279C372.25 19.4279 365.143 22.4923 360.756 28.9569L364.066 31.2029ZM381.569 23.4279C386.497 23.4279 391.188 24.4631 395.663 26.5383L397.346 22.9095C392.344 20.59 387.079 19.4279 381.569 19.4279V23.4279ZM394.534 24.3807L391.753 40.3457L395.694 41.0321L398.475 25.0671L394.534 24.3807ZM394.356 38.7915C389.026 37.0149 384.993 36.0109 382.496 36.0109V40.0109C384.257 40.0109 387.709 40.7922 393.091 42.5863L394.356 38.7915ZM382.496 36.0109C380.687 36.0109 379.014 36.4145 377.582 37.3301C376.146 38.2487 375.094 39.5911 374.38 41.2287L378.047 42.8271C378.5 41.7867 379.079 41.1206 379.737 40.7002C380.399 40.2768 381.285 40.0109 382.496 40.0109V36.0109ZM374.388 41.2112C373.035 44.2348 372.462 48.9647 372.462 55.1089H376.462C376.462 49.0305 377.057 45.0397 378.039 42.8446L374.388 41.2112ZM447.814 86.4209V88.4209H450.215L449.782 86.0598L447.814 86.4209ZM430.613 86.4209L428.65 86.8016L428.964 88.4209H430.613V86.4209ZM428.656 76.3269L430.62 75.9462L430.306 74.3269H428.656V76.3269ZM416.502 76.3269V74.3269H414.853L414.539 75.9462L416.502 76.3269ZM414.545 86.4209V88.4209H416.195L416.509 86.8016L414.545 86.4209ZM398.168 86.4209L396.201 86.0598L395.768 88.4209H398.168V86.4209ZM409.91 22.4579V20.4579H408.244L407.943 22.0968L409.91 22.4579ZM436.072 22.4579L438.04 22.0968L437.739 20.4579H436.072V22.4579ZM426.699 64.2759V66.2759H429.039L428.675 63.9644L426.699 64.2759ZM423.094 41.4099L425.07 41.0984L424.804 39.4099H423.094V41.4099ZM422.373 41.4099V39.4099H420.664L420.398 41.0984L422.373 41.4099ZM418.768 64.2759L416.793 63.9644L416.428 66.2759H418.768V64.2759ZM447.814 84.4209H430.613V88.4209H447.814V84.4209ZM432.577 86.0402L430.62 75.9462L426.693 76.7076L428.65 86.8016L432.577 86.0402ZM428.656 74.3269H416.502V78.3269H428.656V74.3269ZM414.539 75.9462L412.582 86.0402L416.509 86.8016L418.466 76.7076L414.539 75.9462ZM414.545 84.4209H398.168V88.4209H414.545V84.4209ZM400.136 86.782L411.878 22.819L407.943 22.0968L396.201 86.0598L400.136 86.782ZM409.91 24.4579H436.072V20.4579H409.91V24.4579ZM434.105 22.819L445.847 86.782L449.782 86.0598L438.04 22.0968L434.105 22.819ZM428.675 63.9644L425.07 41.0984L421.119 41.7214L424.724 64.5874L428.675 63.9644ZM423.094 39.4099H422.373V43.4099H423.094V39.4099ZM420.398 41.0984L416.793 63.9644L420.744 64.5874L424.349 41.7214L420.398 41.0984ZM418.768 66.2759H426.699V62.2759H418.768V66.2759ZM516.108 86.4209V88.4209H518.177L518.107 86.3533L516.108 86.4209ZM499.937 86.4209H497.937V88.4209H499.937V86.4209ZM499.937 53.0489H501.937V51.0489H499.937V53.0489ZM499.01 53.0489V51.0489H497.342L497.043 52.6906L499.01 53.0489ZM492.933 86.4209V88.4209H494.602L494.901 86.7792L492.933 86.4209ZM476.35 86.4209L474.379 86.7615L474.666 88.4209H476.35V86.4209ZM470.582 53.0489L472.553 52.7083L472.266 51.0489H470.582V53.0489ZM469.552 53.0489V51.0489H467.552V53.0489H469.552ZM469.552 86.4209V88.4209H471.552V86.4209H469.552ZM453.587 86.4209L451.588 86.3533L451.518 88.4209H453.587V86.4209ZM455.75 22.4579V20.4579H453.817L453.751 22.3903L455.75 22.4579ZM478.925 22.4579L480.898 22.1291L480.62 20.4579H478.925V22.4579ZM484.693 57.0659L482.72 57.3947L482.999 59.0659H484.693V57.0659ZM485.517 57.0659V59.0659H487.221L487.492 57.3833L485.517 57.0659ZM491.079 22.4579V20.4579H489.375L489.105 22.1405L491.079 22.4579ZM513.945 22.4579L515.944 22.3903L515.879 20.4579H513.945V22.4579ZM516.108 84.4209H499.937V88.4209H516.108V84.4209ZM501.937 86.4209V53.0489H497.937V86.4209H501.937ZM499.937 51.0489H499.01V55.0489H499.937V51.0489ZM497.043 52.6906L490.966 86.0626L494.901 86.7792L500.978 53.4072L497.043 52.6906ZM492.933 84.4209H476.35V88.4209H492.933V84.4209ZM478.321 86.0803L472.553 52.7083L468.611 53.3895L474.379 86.7615L478.321 86.0803ZM470.582 51.0489H469.552V55.0489H470.582V51.0489ZM467.552 53.0489V86.4209H471.552V53.0489H467.552ZM469.552 84.4209H453.587V88.4209H469.552V84.4209ZM455.586 86.4885L457.749 22.5255L453.751 22.3903L451.588 86.3533L455.586 86.4885ZM455.75 24.4579H478.925V20.4579H455.75V24.4579ZM476.952 22.7867L482.72 57.3947L486.666 56.7371L480.898 22.1291L476.952 22.7867ZM484.693 59.0659H485.517V55.0659H484.693V59.0659ZM487.492 57.3833L493.054 22.7752L489.105 22.1405L483.543 56.7485L487.492 57.3833ZM491.079 24.4579H513.945V20.4579H491.079V24.4579ZM511.946 22.5255L514.109 86.4885L518.107 86.3533L515.944 22.3903L511.946 22.5255ZM542.849 65.5119V63.5119H540.849V65.5119H542.849ZM542.849 86.4209V88.4209H544.849V86.4209H542.849ZM525.545 86.4209H523.545V88.4209H525.545V86.4209ZM525.545 22.4579V20.4579H523.545V22.4579H525.545ZM563.14 60.5679L561.74 59.1392L563.14 60.5679ZM549.544 51.6069L547.776 50.6711L549.544 51.6069ZM549.441 38.9379L551.189 37.9666L549.441 38.9379ZM542.849 37.0839V35.0839H540.849V37.0839H542.849ZM542.849 53.3579H540.849V55.3579H542.849V53.3579ZM547.587 63.5119H542.849V67.5119H547.587V63.5119ZM540.849 65.5119V86.4209H544.849V65.5119H540.849ZM542.849 84.4209H525.545V88.4209H542.849V84.4209ZM527.545 86.4209V22.4579H523.545V86.4209H527.545ZM525.545 24.4579H546.454V20.4579H525.545V24.4579ZM546.454 24.4579C553.54 24.4579 558.408 26.0852 561.459 28.9605L564.202 26.0493C560.112 22.1953 554.062 20.4579 546.454 20.4579V24.4579ZM561.459 28.9605C564.45 31.7789 566.187 36.6419 566.187 44.0879H570.187C570.187 36.1525 568.353 29.9603 564.202 26.0493L561.459 28.9605ZM566.187 44.0879C566.187 51.5665 564.538 56.3984 561.74 59.1392L564.539 61.9966C568.471 58.1454 570.187 51.9906 570.187 44.0879H566.187ZM561.74 59.1392C558.897 61.9241 554.319 63.5119 547.587 63.5119V67.5119C554.862 67.5119 560.653 65.8037 564.539 61.9966L561.74 59.1392ZM551.311 52.5427C552.182 50.8979 552.471 48.3535 552.471 45.3239H548.471C548.471 48.337 548.141 49.9813 547.776 50.6711L551.311 52.5427ZM552.471 45.3239C552.471 42.2668 552.143 39.6842 551.189 37.9666L547.693 39.9092C548.112 40.6636 548.471 42.3383 548.471 45.3239H552.471ZM551.189 37.9666C550.001 35.8287 547.739 35.0839 545.321 35.0839V39.0839C547.022 39.0839 547.507 39.575 547.693 39.9092L551.189 37.9666ZM545.321 35.0839H542.849V39.0839H545.321V35.0839ZM540.849 37.0839V53.3579H544.849V37.0839H540.849ZM542.849 55.3579H545.733V51.3579H542.849V55.3579ZM545.733 55.3579C548.019 55.3579 550.2 54.6419 551.311 52.5427L547.776 50.6711C547.652 50.9065 547.292 51.3579 545.733 51.3579V55.3579Z" fill="#3C1308" mask="url(#path-1-outside-1_2105_259)"/>
<mask id="path-3-outside-2_2105_259" maskUnits="userSpaceOnUse" x="466.5" y="96.4209" width="104" height="36" fill="black">
<rect fill="white" x="466.5" y="96.4209" width="104" height="36"/>
<path d="M478.94 104.821C481.447 104.821 483.113 105.554 483.94 107.021C484.767 108.461 485.18 110.954 485.18 114.501C485.18 118.021 484.74 120.621 483.86 122.301C482.98 123.981 481.26 124.821 478.7 124.821C476.7 124.821 475.3 124.301 474.5 123.261H474.34L473.94 124.421H468.7V98.7809H475.38V105.701H475.54C476.42 105.114 477.553 104.821 478.94 104.821ZM478.22 118.421C478.327 117.941 478.393 117.474 478.42 117.021C478.447 116.568 478.46 115.714 478.46 114.461C478.46 113.181 478.367 112.208 478.18 111.541C477.993 110.848 477.607 110.501 477.02 110.501C476.46 110.501 475.9 110.661 475.34 110.981V119.261C475.847 119.501 476.327 119.621 476.78 119.621C477.26 119.621 477.593 119.541 477.78 119.381C477.993 119.194 478.14 118.874 478.22 118.421ZM504.333 105.261L499.373 124.981C498.866 126.954 498.119 128.328 497.133 129.101C496.146 129.901 494.533 130.301 492.293 130.301H488.293L487.693 125.141H489.933C490.839 125.141 491.293 124.781 491.293 124.061C491.293 123.901 491.239 123.554 491.133 123.021L486.533 105.261H493.653L495.453 117.221H495.813L497.773 105.261H504.333ZM522.744 110.501C522.05 110.501 521.597 110.741 521.384 111.221C521.17 111.674 521.064 112.381 521.064 113.341H524.544V112.381C524.544 111.128 523.944 110.501 522.744 110.501ZM522.904 104.781C525.65 104.781 527.61 105.448 528.784 106.781C529.984 108.088 530.584 109.968 530.584 112.421C530.584 112.741 530.49 114.181 530.304 116.741H521.184C521.184 118.741 522.104 119.741 523.944 119.741C524.824 119.741 526.544 119.434 529.104 118.821L529.664 123.781C527.424 124.474 525.184 124.821 522.944 124.821C520.197 124.821 518.09 123.928 516.624 122.141C515.157 120.328 514.424 117.874 514.424 114.781C514.424 108.114 517.25 104.781 522.904 104.781ZM532.839 120.021V98.7809H539.439V117.901C539.439 118.354 539.532 118.674 539.719 118.861C539.932 119.048 540.292 119.141 540.799 119.141L540.279 124.821H538.079C536.319 124.821 534.999 124.461 534.119 123.741C533.266 122.994 532.839 121.754 532.839 120.021ZM542.575 120.021V98.7809H549.175V117.901C549.175 118.354 549.268 118.674 549.455 118.861C549.668 119.048 550.028 119.141 550.535 119.141L550.015 124.821H547.815C546.055 124.821 544.735 124.461 543.855 123.741C543.002 122.994 542.575 121.754 542.575 120.021ZM560.311 110.501C559.617 110.501 559.164 110.741 558.951 111.221C558.737 111.674 558.631 112.381 558.631 113.341H562.111V112.381C562.111 111.128 561.511 110.501 560.311 110.501ZM560.471 104.781C563.217 104.781 565.177 105.448 566.351 106.781C567.551 108.088 568.151 109.968 568.151 112.421C568.151 112.741 568.057 114.181 567.871 116.741H558.751C558.751 118.741 559.671 119.741 561.511 119.741C562.391 119.741 564.111 119.434 566.671 118.821L567.231 123.781C564.991 124.474 562.751 124.821 560.511 124.821C557.764 124.821 555.657 123.928 554.191 122.141C552.724 120.328 551.991 117.874 551.991 114.781C551.991 108.114 554.817 104.781 560.471 104.781Z"/>
</mask>
<path d="M478.94 104.821C481.447 104.821 483.113 105.554 483.94 107.021C484.767 108.461 485.18 110.954 485.18 114.501C485.18 118.021 484.74 120.621 483.86 122.301C482.98 123.981 481.26 124.821 478.7 124.821C476.7 124.821 475.3 124.301 474.5 123.261H474.34L473.94 124.421H468.7V98.7809H475.38V105.701H475.54C476.42 105.114 477.553 104.821 478.94 104.821ZM478.22 118.421C478.327 117.941 478.393 117.474 478.42 117.021C478.447 116.568 478.46 115.714 478.46 114.461C478.46 113.181 478.367 112.208 478.18 111.541C477.993 110.848 477.607 110.501 477.02 110.501C476.46 110.501 475.9 110.661 475.34 110.981V119.261C475.847 119.501 476.327 119.621 476.78 119.621C477.26 119.621 477.593 119.541 477.78 119.381C477.993 119.194 478.14 118.874 478.22 118.421ZM504.333 105.261L499.373 124.981C498.866 126.954 498.119 128.328 497.133 129.101C496.146 129.901 494.533 130.301 492.293 130.301H488.293L487.693 125.141H489.933C490.839 125.141 491.293 124.781 491.293 124.061C491.293 123.901 491.239 123.554 491.133 123.021L486.533 105.261H493.653L495.453 117.221H495.813L497.773 105.261H504.333ZM522.744 110.501C522.05 110.501 521.597 110.741 521.384 111.221C521.17 111.674 521.064 112.381 521.064 113.341H524.544V112.381C524.544 111.128 523.944 110.501 522.744 110.501ZM522.904 104.781C525.65 104.781 527.61 105.448 528.784 106.781C529.984 108.088 530.584 109.968 530.584 112.421C530.584 112.741 530.49 114.181 530.304 116.741H521.184C521.184 118.741 522.104 119.741 523.944 119.741C524.824 119.741 526.544 119.434 529.104 118.821L529.664 123.781C527.424 124.474 525.184 124.821 522.944 124.821C520.197 124.821 518.09 123.928 516.624 122.141C515.157 120.328 514.424 117.874 514.424 114.781C514.424 108.114 517.25 104.781 522.904 104.781ZM532.839 120.021V98.7809H539.439V117.901C539.439 118.354 539.532 118.674 539.719 118.861C539.932 119.048 540.292 119.141 540.799 119.141L540.279 124.821H538.079C536.319 124.821 534.999 124.461 534.119 123.741C533.266 122.994 532.839 121.754 532.839 120.021ZM542.575 120.021V98.7809H549.175V117.901C549.175 118.354 549.268 118.674 549.455 118.861C549.668 119.048 550.028 119.141 550.535 119.141L550.015 124.821H547.815C546.055 124.821 544.735 124.461 543.855 123.741C543.002 122.994 542.575 121.754 542.575 120.021ZM560.311 110.501C559.617 110.501 559.164 110.741 558.951 111.221C558.737 111.674 558.631 112.381 558.631 113.341H562.111V112.381C562.111 111.128 561.511 110.501 560.311 110.501ZM560.471 104.781C563.217 104.781 565.177 105.448 566.351 106.781C567.551 108.088 568.151 109.968 568.151 112.421C568.151 112.741 568.057 114.181 567.871 116.741H558.751C558.751 118.741 559.671 119.741 561.511 119.741C562.391 119.741 564.111 119.434 566.671 118.821L567.231 123.781C564.991 124.474 562.751 124.821 560.511 124.821C557.764 124.821 555.657 123.928 554.191 122.141C552.724 120.328 551.991 117.874 551.991 114.781C551.991 108.114 554.817 104.781 560.471 104.781Z" fill="#78EB5B"/>
<path d="M483.94 107.021L482.198 108.003L482.201 108.01L482.205 108.017L483.94 107.021ZM483.86 122.301L482.088 121.373H482.088L483.86 122.301ZM474.5 123.261L476.085 122.041L475.485 121.261H474.5V123.261ZM474.34 123.261V121.261H472.914L472.449 122.609L474.34 123.261ZM473.94 124.421V126.421H475.366L475.831 125.073L473.94 124.421ZM468.7 124.421H466.7V126.421H468.7V124.421ZM468.7 98.7809V96.7809H466.7V98.7809H468.7ZM475.38 98.7809H477.38V96.7809H475.38V98.7809ZM475.38 105.701H473.38V107.701H475.38V105.701ZM475.54 105.701V107.701H476.145L476.649 107.365L475.54 105.701ZM478.22 118.421L476.268 117.987L476.258 118.03L476.25 118.073L478.22 118.421ZM478.42 117.021L476.423 116.903V116.903L478.42 117.021ZM478.18 111.541L476.249 112.061L476.251 112.071L476.254 112.08L478.18 111.541ZM475.34 110.981L474.348 109.244L473.34 109.82V110.981H475.34ZM475.34 119.261H473.34V120.527L474.484 121.068L475.34 119.261ZM477.78 119.381L479.081 120.899L479.089 120.893L479.097 120.886L477.78 119.381ZM478.94 106.821C481.111 106.821 481.881 107.442 482.198 108.003L485.682 106.039C484.345 103.667 481.782 102.821 478.94 102.821V106.821ZM482.205 108.017C482.75 108.965 483.18 110.99 483.18 114.501H487.18C487.18 110.918 486.783 107.957 485.674 106.025L482.205 108.017ZM483.18 114.501C483.18 117.93 482.739 120.131 482.088 121.373L485.632 123.229C486.741 121.11 487.18 118.112 487.18 114.501H483.18ZM482.088 121.373C481.674 122.165 480.816 122.821 478.7 122.821V126.821C481.703 126.821 484.286 125.797 485.632 123.229L482.088 121.373ZM478.7 122.821C476.987 122.821 476.341 122.374 476.085 122.041L472.915 124.48C474.259 126.227 476.413 126.821 478.7 126.821V122.821ZM474.5 121.261H474.34V125.261H474.5V121.261ZM472.449 122.609L472.049 123.769L475.831 125.073L476.231 123.913L472.449 122.609ZM473.94 122.421H468.7V126.421H473.94V122.421ZM470.7 124.421V98.7809H466.7V124.421H470.7ZM468.7 100.781H475.38V96.7809H468.7V100.781ZM473.38 98.7809V105.701H477.38V98.7809H473.38ZM475.38 107.701H475.54V103.701H475.38V107.701ZM476.649 107.365C477.113 107.056 477.827 106.821 478.94 106.821V102.821C477.279 102.821 475.727 103.172 474.43 104.037L476.649 107.365ZM480.172 118.855C480.3 118.279 480.383 117.706 480.416 117.138L476.423 116.903C476.403 117.242 476.353 117.603 476.268 117.987L480.172 118.855ZM480.416 117.138C480.447 116.618 480.46 115.708 480.46 114.461H476.46C476.46 115.72 476.446 116.517 476.423 116.903L480.416 117.138ZM480.46 114.461C480.46 113.125 480.367 111.934 480.106 111.002L476.254 112.08C476.366 112.481 476.46 113.237 476.46 114.461H480.46ZM480.111 111.021C479.954 110.438 479.657 109.785 479.085 109.272C478.477 108.726 477.737 108.501 477.02 108.501V112.501C476.969 112.501 476.872 112.493 476.751 112.45C476.627 112.406 476.511 112.336 476.415 112.25C476.229 112.084 476.219 111.95 476.249 112.061L480.111 111.021ZM477.02 108.501C476.062 108.501 475.163 108.778 474.348 109.244L476.332 112.717C476.636 112.544 476.858 112.501 477.02 112.501V108.501ZM473.34 110.981V119.261H477.34V110.981H473.34ZM474.484 121.068C475.196 121.406 475.969 121.621 476.78 121.621V117.621C476.684 117.621 476.497 117.596 476.196 117.453L474.484 121.068ZM476.78 121.621C477.346 121.621 478.318 121.554 479.081 120.899L476.478 117.862C476.701 117.671 476.896 117.623 476.923 117.616C476.957 117.608 476.92 117.621 476.78 117.621V121.621ZM479.097 120.886C479.81 120.262 480.076 119.411 480.189 118.768L476.25 118.073C476.231 118.181 476.216 118.201 476.232 118.168C476.248 118.131 476.312 118.008 476.463 117.876L479.097 120.886ZM504.333 105.261L506.272 105.749L506.898 103.261H504.333V105.261ZM499.373 124.981L501.31 125.478L501.312 125.469L499.373 124.981ZM497.133 129.101L495.899 127.527L495.886 127.537L495.873 127.547L497.133 129.101ZM488.293 130.301L486.306 130.532L486.512 132.301H488.293V130.301ZM487.693 125.141V123.141H485.447L485.706 125.372L487.693 125.141ZM491.133 123.021L493.094 122.629L493.083 122.574L493.069 122.519L491.133 123.021ZM486.533 105.261V103.261H483.949L484.597 105.762L486.533 105.261ZM493.653 105.261L495.63 104.963L495.374 103.261H493.653V105.261ZM495.453 117.221L493.475 117.519L493.731 119.221H495.453V117.221ZM495.813 117.221V119.221H497.512L497.786 117.544L495.813 117.221ZM497.773 105.261V103.261H496.074L495.799 104.937L497.773 105.261ZM502.393 104.773L497.433 124.493L501.312 125.469L506.272 105.749L502.393 104.773ZM497.436 124.484C496.975 126.276 496.382 127.149 495.899 127.527L498.366 130.675C499.857 129.507 500.757 127.632 501.31 125.478L497.436 124.484ZM495.873 127.547C495.427 127.909 494.388 128.301 492.293 128.301V132.301C494.678 132.301 496.865 131.893 498.392 130.654L495.873 127.547ZM492.293 128.301H488.293V132.301H492.293V128.301ZM490.279 130.07L489.679 124.91L485.706 125.372L486.306 130.532L490.279 130.07ZM487.693 127.141H489.933V123.141H487.693V127.141ZM489.933 127.141C490.597 127.141 491.465 127.018 492.196 126.437C493.016 125.786 493.293 124.867 493.293 124.061H489.293C489.293 124.034 489.297 123.919 489.364 123.759C489.436 123.588 489.555 123.427 489.709 123.305C489.987 123.084 490.175 123.141 489.933 123.141V127.141ZM493.293 124.061C493.293 123.664 493.19 123.111 493.094 122.629L489.172 123.413C489.222 123.665 489.256 123.853 489.276 123.985C489.286 124.051 489.291 124.093 489.294 124.115C489.297 124.145 489.293 124.119 489.293 124.061H493.293ZM493.069 122.519L488.469 104.759L484.597 105.762L489.197 123.522L493.069 122.519ZM486.533 107.261H493.653V103.261H486.533V107.261ZM491.675 105.559L493.475 117.519L497.43 116.923L495.63 104.963L491.675 105.559ZM495.453 119.221H495.813V115.221H495.453V119.221ZM497.786 117.544L499.746 105.584L495.799 104.937L493.839 116.897L497.786 117.544ZM497.773 107.261H504.333V103.261H497.773V107.261ZM521.384 111.221L523.193 112.072L523.202 112.053L523.211 112.033L521.384 111.221ZM521.064 113.341H519.064V115.341H521.064V113.341ZM524.544 113.341V115.341H526.544V113.341H524.544ZM528.784 106.781L527.282 108.102L527.296 108.118L527.311 108.134L528.784 106.781ZM530.304 116.741V118.741H532.163L532.298 116.886L530.304 116.741ZM521.184 116.741V114.741H519.184V116.741H521.184ZM529.104 118.821L531.091 118.597L530.837 116.349L528.638 116.876L529.104 118.821ZM529.664 123.781L530.255 125.691L531.837 125.202L531.651 123.557L529.664 123.781ZM516.624 122.141L515.069 123.399L515.073 123.404L515.078 123.41L516.624 122.141ZM522.744 108.501C522.18 108.501 521.546 108.597 520.948 108.913C520.315 109.248 519.84 109.77 519.556 110.409L523.211 112.033C523.182 112.1 523.132 112.183 523.056 112.265C522.98 112.347 522.896 112.408 522.819 112.448C522.674 112.525 522.614 112.501 522.744 112.501V108.501ZM519.574 110.369C519.167 111.235 519.064 112.308 519.064 113.341H523.064C523.064 112.929 523.087 112.617 523.121 112.389C523.157 112.153 523.196 112.067 523.193 112.072L519.574 110.369ZM521.064 115.341H524.544V111.341H521.064V115.341ZM526.544 113.341V112.381H522.544V113.341H526.544ZM526.544 112.381C526.544 111.467 526.326 110.411 525.538 109.588C524.735 108.748 523.675 108.501 522.744 108.501V112.501C522.875 112.501 522.907 112.519 522.874 112.507C522.855 112.501 522.821 112.487 522.778 112.46C522.735 112.433 522.69 112.397 522.649 112.354C522.561 112.262 522.531 112.182 522.526 112.166C522.524 112.16 522.544 112.221 522.544 112.381H526.544ZM522.904 106.781C525.388 106.781 526.655 107.39 527.282 108.102L530.285 105.46C528.565 103.505 525.912 102.781 522.904 102.781V106.781ZM527.311 108.134C528.06 108.95 528.584 110.275 528.584 112.421H532.584C532.584 109.66 531.907 107.225 530.257 105.428L527.311 108.134ZM528.584 112.421C528.584 112.418 528.584 112.425 528.583 112.443C528.583 112.461 528.582 112.485 528.581 112.516C528.578 112.578 528.574 112.66 528.569 112.765C528.558 112.974 528.541 113.255 528.518 113.612C528.472 114.324 528.402 115.317 528.309 116.595L532.298 116.886C532.481 114.383 532.584 112.836 532.584 112.421H528.584ZM530.304 114.741H521.184V118.741H530.304V114.741ZM519.184 116.741C519.184 118.01 519.472 119.334 520.402 120.345C521.361 121.387 522.67 121.741 523.944 121.741V117.741C523.659 117.741 523.497 117.702 523.417 117.673C523.38 117.659 523.361 117.648 523.354 117.644C523.348 117.64 523.347 117.638 523.345 117.637C523.344 117.635 523.336 117.626 523.323 117.602C523.309 117.578 523.289 117.535 523.268 117.467C523.225 117.326 523.184 117.094 523.184 116.741H519.184ZM523.944 121.741C525.099 121.741 527.049 121.37 529.57 120.766L528.638 116.876C526.038 117.499 524.548 117.741 523.944 117.741V121.741ZM527.116 119.045L527.676 124.005L531.651 123.557L531.091 118.597L527.116 119.045ZM529.072 121.87C527.015 122.507 524.974 122.821 522.944 122.821V126.821C525.393 126.821 527.832 126.441 530.255 125.691L529.072 121.87ZM522.944 122.821C520.671 122.821 519.183 122.107 518.169 120.872L515.078 123.41C516.997 125.748 519.723 126.821 522.944 126.821V122.821ZM518.179 120.883C517.082 119.527 516.424 117.566 516.424 114.781H512.424C512.424 118.182 513.232 121.128 515.069 123.399L518.179 120.883ZM516.424 114.781C516.424 111.683 517.087 109.732 518.069 108.574C518.997 107.48 520.48 106.781 522.904 106.781V102.781C519.674 102.781 516.917 103.748 515.018 105.987C513.173 108.163 512.424 111.212 512.424 114.781H516.424ZM532.839 98.7809V96.7809H530.839V98.7809H532.839ZM539.439 98.7809H541.439V96.7809H539.439V98.7809ZM539.719 118.861L538.305 120.275L538.352 120.322L538.402 120.366L539.719 118.861ZM540.799 119.141L542.791 119.323L542.99 117.141H540.799V119.141ZM540.279 124.821V126.821H542.104L542.271 125.003L540.279 124.821ZM534.119 123.741L532.802 125.246L532.827 125.268L532.852 125.289L534.119 123.741ZM534.839 120.021V98.7809H530.839V120.021H534.839ZM532.839 100.781H539.439V96.7809H532.839V100.781ZM537.439 98.7809V117.901H541.439V98.7809H537.439ZM537.439 117.901C537.439 118.53 537.55 119.521 538.305 120.275L541.133 117.447C541.332 117.646 541.406 117.841 541.429 117.921C541.451 117.995 541.439 118.001 541.439 117.901H537.439ZM538.402 120.366C539.174 121.042 540.151 121.141 540.799 121.141V117.141C540.658 117.141 540.62 117.127 540.651 117.135C540.682 117.143 540.847 117.19 541.036 117.356L538.402 120.366ZM538.807 118.959L538.287 124.639L542.271 125.003L542.791 119.323L538.807 118.959ZM540.279 122.821H538.079V126.821H540.279V122.821ZM538.079 122.821C536.541 122.821 535.758 122.498 535.385 122.193L532.852 125.289C534.24 126.424 536.097 126.821 538.079 126.821V122.821ZM535.436 122.236C535.203 122.032 534.839 121.483 534.839 120.021H530.839C530.839 122.026 531.328 123.956 532.802 125.246L535.436 122.236ZM542.575 98.7809V96.7809H540.575V98.7809H542.575ZM549.175 98.7809H551.175V96.7809H549.175V98.7809ZM549.455 118.861L548.041 120.275L548.088 120.322L548.138 120.366L549.455 118.861ZM550.535 119.141L552.527 119.323L552.726 117.141H550.535V119.141ZM550.015 124.821V126.821H551.84L552.007 125.003L550.015 124.821ZM543.855 123.741L542.538 125.246L542.563 125.268L542.588 125.289L543.855 123.741ZM544.575 120.021V98.7809H540.575V120.021H544.575ZM542.575 100.781H549.175V96.7809H542.575V100.781ZM547.175 98.7809V117.901H551.175V98.7809H547.175ZM547.175 117.901C547.175 118.53 547.286 119.521 548.041 120.275L550.869 117.447C551.068 117.646 551.142 117.841 551.165 117.921C551.186 117.995 551.175 118.001 551.175 117.901H547.175ZM548.138 120.366C548.91 121.042 549.887 121.141 550.535 121.141V117.141C550.394 117.141 550.356 117.127 550.387 117.135C550.418 117.143 550.583 117.19 550.772 117.356L548.138 120.366ZM548.543 118.959L548.023 124.639L552.007 125.003L552.527 119.323L548.543 118.959ZM550.015 122.821H547.815V126.821H550.015V122.821ZM547.815 122.821C546.277 122.821 545.494 122.498 545.121 122.193L542.588 125.289C543.975 126.424 545.833 126.821 547.815 126.821V122.821ZM545.172 122.236C544.939 122.032 544.575 121.483 544.575 120.021H540.575C540.575 122.026 541.064 123.956 542.538 125.246L545.172 122.236ZM558.951 111.221L560.76 112.072L560.77 112.053L560.778 112.033L558.951 111.221ZM558.631 113.341H556.631V115.341H558.631V113.341ZM562.111 113.341V115.341H564.111V113.341H562.111ZM566.351 106.781L564.849 108.102L564.863 108.118L564.878 108.134L566.351 106.781ZM567.871 116.741V118.741H569.73L569.866 116.886L567.871 116.741ZM558.751 116.741V114.741H556.751V116.741H558.751ZM566.671 118.821L568.658 118.597L568.404 116.349L566.205 116.876L566.671 118.821ZM567.231 123.781L567.822 125.691L569.404 125.202L569.218 123.557L567.231 123.781ZM554.191 122.141L552.636 123.399L552.64 123.404L552.645 123.41L554.191 122.141ZM560.311 108.501C559.748 108.501 559.113 108.597 558.515 108.913C557.882 109.248 557.407 109.77 557.123 110.409L560.778 112.033C560.749 112.1 560.699 112.183 560.623 112.265C560.547 112.347 560.463 112.408 560.387 112.448C560.242 112.525 560.181 112.501 560.311 112.501V108.501ZM557.141 110.369C556.734 111.235 556.631 112.308 556.631 113.341H560.631C560.631 112.929 560.654 112.617 560.688 112.389C560.724 112.153 560.763 112.067 560.76 112.072L557.141 110.369ZM558.631 115.341H562.111V111.341H558.631V115.341ZM564.111 113.341V112.381H560.111V113.341H564.111ZM564.111 112.381C564.111 111.467 563.893 110.411 563.105 109.588C562.302 108.748 561.242 108.501 560.311 108.501V112.501C560.442 112.501 560.474 112.519 560.441 112.507C560.422 112.501 560.388 112.487 560.346 112.46C560.302 112.433 560.258 112.397 560.216 112.354C560.128 112.262 560.098 112.182 560.093 112.166C560.091 112.16 560.111 112.221 560.111 112.381H564.111ZM560.471 106.781C562.956 106.781 564.222 107.39 564.849 108.102L567.852 105.46C566.133 103.505 563.479 102.781 560.471 102.781V106.781ZM564.878 108.134C565.628 108.95 566.151 110.275 566.151 112.421H570.151C570.151 109.66 569.474 107.225 567.824 105.428L564.878 108.134ZM566.151 112.421C566.151 112.418 566.151 112.425 566.15 112.443C566.15 112.461 566.149 112.485 566.148 112.516C566.146 112.578 566.142 112.66 566.136 112.765C566.125 112.974 566.108 113.255 566.085 113.612C566.039 114.324 565.969 115.317 565.876 116.595L569.866 116.886C570.048 114.383 570.151 112.836 570.151 112.421H566.151ZM567.871 114.741H558.751V118.741H567.871V114.741ZM556.751 116.741C556.751 118.01 557.039 119.334 557.969 120.345C558.928 121.387 560.238 121.741 561.511 121.741V117.741C561.227 117.741 561.064 117.702 560.985 117.673C560.947 117.659 560.928 117.648 560.921 117.644C560.916 117.64 560.914 117.638 560.913 117.637C560.911 117.635 560.903 117.626 560.89 117.602C560.877 117.578 560.856 117.535 560.835 117.467C560.792 117.326 560.751 117.094 560.751 116.741H556.751ZM561.511 121.741C562.666 121.741 564.616 121.37 567.137 120.766L566.205 116.876C563.606 117.499 562.115 117.741 561.511 117.741V121.741ZM564.683 119.045L565.243 124.005L569.218 123.557L568.658 118.597L564.683 119.045ZM566.639 121.87C564.582 122.507 562.541 122.821 560.511 122.821V126.821C562.961 126.821 565.4 126.441 567.822 125.691L566.639 121.87ZM560.511 122.821C558.238 122.821 556.751 122.107 555.737 120.872L552.645 123.41C554.564 125.748 557.29 126.821 560.511 126.821V122.821ZM555.746 120.883C554.649 119.527 553.991 117.566 553.991 114.781H549.991C549.991 118.182 550.799 121.128 552.636 123.399L555.746 120.883ZM553.991 114.781C553.991 111.683 554.655 109.732 555.636 108.574C556.564 107.48 558.047 106.781 560.471 106.781V102.781C557.242 102.781 554.484 103.748 552.585 105.987C550.74 108.163 549.991 111.212 549.991 114.781H553.991Z" fill="#3C1308" mask="url(#path-3-outside-2_2105_259)"/>
</svg>
