<svg width="69" height="70" viewBox="0 0 69 70" fill="none" xmlns="http://www.w3.org/2000/svg">
<path d="M36.9165 41.8527H31.8695C31.6299 41.8522 31.3956 41.9257 31.1963 42.0637C30.997 42.2017 30.8416 42.3981 30.7498 42.6279C30.6581 42.8577 30.6341 43.1106 30.681 43.3546C30.7278 43.5986 30.8434 43.8227 31.013 43.9984L33.5365 46.6164C33.7634 46.8519 34.071 46.9842 34.3918 46.9842C34.7126 46.9842 35.0203 46.8519 35.2471 46.6164L37.7706 43.9984C37.9401 43.8228 38.0556 43.599 38.1025 43.3552C38.1495 43.1115 38.1257 42.8588 38.0343 42.629C37.9428 42.3993 37.7878 42.2029 37.5889 42.0647C37.3899 41.9265 37.1559 41.8527 36.9165 41.8527ZM21.0859 34.5514C21.0859 33.7184 21.4045 32.9196 21.9717 32.3306C22.5389 31.7416 23.3082 31.4107 24.1103 31.4107C24.9124 31.4107 25.6816 31.7416 26.2488 32.3306C26.816 32.9196 27.1346 33.7184 27.1346 34.5514V38.3201C27.1346 39.1531 26.816 39.9519 26.2488 40.5409C25.6816 41.1298 24.9124 41.4607 24.1103 41.4607C23.3082 41.4607 22.5389 41.1298 21.9717 40.5409C21.4045 39.9519 21.0859 39.1531 21.0859 38.3201V34.5514ZM41.6515 34.5514C41.6515 34.1389 41.7297 33.7305 41.8817 33.3495C42.0337 32.9685 42.2564 32.6222 42.5373 32.3306C42.8181 32.039 43.1515 31.8076 43.5184 31.6498C43.8854 31.492 44.2786 31.4107 44.6758 31.4107C45.073 31.4107 45.4662 31.492 45.8332 31.6498C46.2001 31.8076 46.5335 32.039 46.8144 32.3306C47.0952 32.6222 47.318 32.9685 47.4699 33.3495C47.6219 33.7305 47.7002 34.1389 47.7002 34.5514V38.3201C47.7002 39.1531 47.3815 39.9519 46.8143 40.5409C46.2472 41.1298 45.4779 41.4607 44.6758 41.4607C43.8737 41.4607 43.1045 41.1298 42.5373 40.5409C41.9701 39.9519 41.6515 39.1531 41.6515 38.3201V34.5514ZM23.9603 49.154C26.7378 51.9605 30.8388 52.4906 34.4317 49.154C37.6811 52.375 42.3507 52.0182 45.092 49.154C45.1113 52.8122 43.004 60.1261 34.4317 60.1261C25.8571 60.1261 23.878 52.8122 23.9603 49.154ZM59.4201 23.9411V13.2454C59.4201 12.8862 59.3213 12.5344 59.1352 12.2315C58.9491 11.9287 58.6835 11.6874 58.3697 11.5361C58.056 11.3848 57.7071 11.3298 57.3642 11.3776C57.0213 11.4253 56.6987 11.5739 56.4345 11.8057L51.039 16.5317C50.7743 16.7638 50.5607 17.0522 50.4126 17.3773C50.2645 17.7025 50.1854 18.057 50.1805 18.4166C50.1757 18.7763 50.2453 19.1329 50.3847 19.4622C50.524 19.7916 50.7298 20.086 50.9882 20.3256L56.3958 25.3456C56.6568 25.5881 56.98 25.7469 57.3261 25.8029C57.6722 25.859 58.0265 25.8097 58.3463 25.6612C58.6661 25.5127 58.9376 25.2713 59.1282 24.9661C59.3187 24.6608 59.4201 24.3049 59.4201 23.9411ZM9.36597 13.2454V23.9411C9.36551 24.3051 9.46657 24.6614 9.65693 24.967C9.84729 25.2726 10.1188 25.5144 10.4387 25.6632C10.7585 25.8121 11.1131 25.8615 11.4594 25.8056C11.8057 25.7496 12.1291 25.5907 12.3903 25.3481L17.7978 20.3256C18.0562 20.086 18.262 19.7916 18.4014 19.4622C18.5407 19.1329 18.6103 18.7763 18.6055 18.4166C18.6007 18.057 18.5216 17.7025 18.3735 17.3773C18.2254 17.0522 18.0117 16.7638 17.747 16.5317L12.3516 11.8057C12.0873 11.5739 11.7648 11.4253 11.4219 11.3776C11.079 11.3298 10.7301 11.3848 10.4163 11.5361C10.1026 11.6874 9.83699 11.9287 9.65089 12.2315C9.46479 12.5344 9.36593 12.8862 9.36597 13.2454Z" fill="black"/>
<path d="M53.9473 69.49C59.9427 69.49 64.7333 64.5831 65.6769 58.6612L66.3906 59.0079C66.5346 59.0778 66.6903 59.1177 66.8491 59.1251C67.0079 59.1325 67.1665 59.1074 67.3159 59.0512C67.4653 58.9949 67.6025 58.9087 67.7199 58.7974C67.8372 58.6861 67.9322 58.5518 67.9996 58.4024C68.0669 58.2529 68.1053 58.0911 68.1124 57.9263C68.1196 57.7614 68.0954 57.5967 68.0413 57.4416C67.9871 57.2864 67.9041 57.1439 67.7969 57.022C67.6897 56.9002 67.5604 56.8015 67.4165 56.7316L65.8462 55.9728V45.0912L67.4165 44.3274C67.5604 44.2574 67.6897 44.1587 67.7969 44.0369C67.9041 43.9151 67.9871 43.7725 68.0413 43.6174C68.0954 43.4622 68.1196 43.2975 68.1124 43.1327C68.1053 42.9678 68.0669 42.806 67.9996 42.6566C67.9322 42.5071 67.8372 42.3729 67.7199 42.2616C67.6025 42.1502 67.4653 42.064 67.3159 42.0078C67.1665 41.9515 67.0079 41.9264 66.8491 41.9339C66.6903 41.9413 66.5346 41.9811 66.3906 42.0511L65.8462 42.3174V6.72787C65.8462 1.06973 59.2846 -1.30207 55.699 2.44407L46.8413 11.7026H21.9787L13.1089 2.6727C9.52808 -1.0282 2.93985 1.29083 2.93985 6.97158V42.3149L2.39305 42.0485C2.24874 41.9758 2.09194 41.9335 1.93176 41.9242C1.77158 41.915 1.61123 41.9389 1.46004 41.9946C1.30884 42.0503 1.16983 42.1367 1.05109 42.2487C0.932343 42.3607 0.83624 42.4961 0.768372 42.6471C0.700504 42.798 0.662226 42.9615 0.655766 43.128C0.649307 43.2944 0.674794 43.4606 0.730745 43.6167C0.786696 43.7728 0.871993 43.9158 0.981672 44.0374C1.09135 44.159 1.22322 44.2567 1.36961 44.3249L2.93985 45.0887V55.9678L1.36719 56.7316C1.22326 56.8015 1.094 56.9002 0.986803 57.022C0.879604 57.1439 0.796562 57.2864 0.742416 57.4416C0.688271 57.5967 0.664083 57.7614 0.671234 57.9263C0.678386 58.0911 0.716735 58.2529 0.784094 58.4024C0.851453 58.5518 0.946502 58.6861 1.06381 58.7974C1.18113 58.9087 1.3184 58.9949 1.46781 59.0512C1.61721 59.1074 1.77582 59.1325 1.93457 59.1251C2.09332 59.1177 2.24911 59.0778 2.39305 59.0079L3.07292 58.6788C3.93183 64.7213 8.82644 69.49 14.8388 69.49H53.9473ZM60.3492 5.73795C60.5474 5.80729 60.7187 5.94147 60.8374 6.12039C60.956 6.2993 61.0156 6.51332 61.0073 6.73038V44.664L57.0152 46.6037C56.8712 46.6736 56.742 46.7723 56.6348 46.8942C56.5276 47.016 56.4445 47.1585 56.3904 47.3137C56.3362 47.4688 56.312 47.6335 56.3192 47.7984C56.3263 47.9633 56.3647 48.125 56.4321 48.2745C56.4994 48.424 56.5945 48.5582 56.7118 48.6695C56.8291 48.7808 56.9664 48.8671 57.1158 48.9233C57.2652 48.9795 57.4238 49.0046 57.5825 48.9972C57.7413 48.9898 57.8971 48.95 58.041 48.88L61.0073 47.4378V53.6186L58.041 52.1789C57.8964 52.1021 57.7384 52.0564 57.5765 52.0443C57.4145 52.0323 57.2518 52.0543 57.0982 52.1089C56.9446 52.1635 56.8031 52.2497 56.6822 52.3623C56.5614 52.475 56.4636 52.6117 56.3947 52.7644C56.3258 52.9171 56.2872 53.0827 56.2812 53.2512C56.2753 53.4197 56.302 53.5877 56.3599 53.7453C56.4178 53.9028 56.5057 54.0467 56.6182 54.1682C56.7308 54.2898 56.8658 54.3865 57.0152 54.4527L61.0073 56.3924V56.5281C61.0073 60.9124 57.6684 64.465 53.9473 64.465H14.8388C11.0403 64.465 7.7788 61.0857 7.7788 56.7818V56.3924L11.7709 54.4527C12.0501 54.3044 12.263 54.0494 12.3646 53.7413C12.4662 53.4332 12.4486 53.0962 12.3155 52.8013C12.1825 52.5064 11.9444 52.2767 11.6514 52.1606C11.3584 52.0445 11.0335 52.0511 10.7451 52.1789L7.7788 53.6186V47.4378L10.7451 48.88C10.8894 48.9528 11.0462 48.995 11.2064 49.0043C11.3665 49.0136 11.5269 48.9897 11.6781 48.9339C11.8293 48.8782 11.9683 48.7919 12.087 48.6799C12.2058 48.5678 12.3019 48.4324 12.3698 48.2815C12.4376 48.1305 12.4759 47.967 12.4824 47.8006C12.4888 47.6341 12.4633 47.468 12.4074 47.3119C12.3514 47.1557 12.2661 47.0127 12.1565 46.8911C12.0468 46.7696 11.9149 46.6719 11.7685 46.6037L7.7788 44.664V6.97158C7.77218 6.75412 7.8337 6.54029 7.95412 6.36223C8.07453 6.18418 8.24734 6.05151 8.44658 5.98417C8.6554 5.89158 8.88614 5.86602 9.10908 5.9108C9.33201 5.95558 9.53693 6.06864 9.69745 6.23542L20.002 16.7276H48.8543L59.1322 5.98669C59.2866 5.82152 59.4858 5.70921 59.7032 5.66476C59.9207 5.62031 60.1461 5.64585 60.3492 5.73795Z" fill="black"/>
</svg>
