<svg width="310" height="161" viewBox="0 0 310 161" fill="none" xmlns="http://www.w3.org/2000/svg">
<path d="M292.465 84.2514C319.216 110.902 257.28 118.981 257.28 118.981C257.28 118.981 429.236 156.797 150.138 160.504C-128.96 164.211 64.7403 70.8077 75.1551 81.2953C85.5699 91.7829 44.0364 120.989 19.4656 97.5929C-8.5324 70.934 13.5831 9.05566 69.3803 44.9309C125.177 80.806 15.3204 48.7814 47.6259 27.5458C75.9768 8.90963 94.3048 43.2724 94.3048 43.2724C94.3048 43.2724 89.4697 -11.148 164.375 2.20093C239.281 15.5498 233.881 95.5704 233.881 95.5704C233.881 95.5704 265.714 57.6007 292.465 84.2514Z" fill="white"/>
</svg>
