<svg width="409" height="205" viewBox="0 0 409 205" fill="none" xmlns="http://www.w3.org/2000/svg">
<path d="M343.57 56.7145C426.974 71.5484 343.813 135.002 343.813 135.002C343.813 135.002 546.477 205.456 232.091 204.509C-82.2947 203.561 8.85583 156.25 26.3217 156.303C43.7875 156.355 43.5581 176.255 32.7039 166.3C-2.53698 133.976 42.011 95.7165 109.526 106.739C177.042 117.762 39.5904 117.743 72.9274 81.2268C116.95 33.0061 130.055 70.6537 130.055 70.6537C130.055 70.6537 155.982 -14.491 252.898 2.71529C349.813 19.9216 278.308 107.248 278.308 107.248C278.308 107.248 260.165 41.8806 343.57 56.7145Z" fill="white"/>
</svg>
