<svg width="126" height="126" viewBox="0 0 126 126" fill="none" xmlns="http://www.w3.org/2000/svg">
<path d="M92.4092 68.479L73.0029 83.9998H46.9613V78.7915H68.1331C68.6042 78.7913 69.0664 78.6633 69.4704 78.4211C69.8745 78.179 70.2053 77.8318 70.4276 77.4165C70.65 77.0012 70.7555 76.5334 70.733 76.0629C70.7105 75.5924 70.5608 75.1368 70.2998 74.7446L65.6748 67.8071C64.7243 66.3807 63.4366 65.2108 61.9257 64.4013C60.4148 63.5918 58.7274 63.1677 57.0133 63.1665H15.7113C14.3299 63.1665 13.0052 63.7152 12.0284 64.692C11.0517 65.6687 10.5029 66.9935 10.5029 68.3748V99.6248C10.5029 102.388 11.6004 105.037 13.5539 106.991C15.5074 108.944 18.1569 110.042 20.9196 110.042H71.1227C73.3498 110.042 75.5514 109.566 77.5797 108.647C79.608 107.727 81.4162 106.384 82.8831 104.708L114.67 68.3748L107.107 65.854C104.633 65.0302 101.992 64.8389 99.4243 65.2974C96.8571 65.7559 94.4454 66.8497 92.4092 68.479ZM100.388 39.1561C102.737 36.7342 104.19 33.3853 104.19 29.6873C104.19 25.9894 102.737 22.6405 100.388 20.2186C99.1999 18.9796 97.7736 17.9932 96.1949 17.3184C94.6163 16.6436 92.9177 16.2944 91.2008 16.2915C91.2008 16.2915 84.7217 16.2759 78.2113 22.9894C71.7008 16.2759 65.2217 16.2915 65.2217 16.2915C63.5052 16.2937 61.8068 16.6421 60.2282 17.316C58.6496 17.9899 57.2231 18.9753 56.0342 20.2134C53.6852 22.6405 52.2321 25.9842 52.2321 29.6821C52.2321 33.38 53.6852 36.7342 56.0342 39.1509L78.2113 63.1665L100.388 39.1561Z" fill="black"/>
</svg>
