<svg width="45" height="45" viewBox="0 0 45 45" fill="none" xmlns="http://www.w3.org/2000/svg">
<g clip-path="url(#clip0_2167_1215)">
<path d="M22.5 28.125C25.4837 28.125 28.3452 26.9397 30.455 24.83C32.5647 22.7202 33.75 19.8587 33.75 16.875C33.75 13.8913 32.5647 11.0298 30.455 8.92005C28.3452 6.81026 25.4837 5.625 22.5 5.625C19.5163 5.625 16.6548 6.81026 14.545 8.92005C12.4353 11.0298 11.25 13.8913 11.25 16.875C11.25 19.8587 12.4353 22.7202 14.545 24.83C16.6548 26.9397 19.5163 28.125 22.5 28.125ZM22.5 28.125V35.625M22.5 35.625V39.375M22.5 35.625H18.75M22.5 35.625H26.25" stroke="#DE64BC" stroke-width="2.8125" stroke-linecap="round" stroke-linejoin="round"/>
</g>
<defs>
<clipPath id="clip0_2167_1215">
<rect width="45" height="45" fill="white"/>
</clipPath>
</defs>
</svg>
