<svg width="45" height="45" viewBox="0 0 45 45" fill="none" xmlns="http://www.w3.org/2000/svg">
<path d="M23.9062 5.625V8.4375H34.5417L26.1464 16.8328C23.9173 15.0396 21.1422 14.0621 18.2812 14.0625C11.3063 14.0625 5.625 19.7437 5.625 26.7188C5.625 33.6938 11.3063 39.375 18.2812 39.375C25.2563 39.375 30.9375 33.6938 30.9375 26.7188C30.9361 23.8577 29.9588 21.0828 28.1672 18.8522L36.5625 10.4569V21.0938H39.375V5.625H23.9062ZM18.2812 16.875C23.7347 16.875 28.125 21.2653 28.125 26.7188C28.125 32.1722 23.7347 36.5625 18.2812 36.5625C12.8278 36.5625 8.4375 32.1722 8.4375 26.7188C8.4375 21.2653 12.8278 16.875 18.2812 16.875Z" fill="#5BC0EB"/>
</svg>
