<svg width="69" height="69" viewBox="0 0 69 69" fill="none" xmlns="http://www.w3.org/2000/svg">
<path d="M22.0387 2.71277C26.0673 2.09065 30.3349 6.81141 31.564 13.3253C32.793 19.8027 30.5739 25.5847 26.5453 26.2434C22.5508 26.9021 18.2491 22.1813 16.9859 15.6674C15.7227 9.19009 18.0101 3.40807 22.0387 2.71277ZM46.4493 2.71277C50.512 3.40807 52.7653 9.19009 51.5704 15.6674C50.273 22.1813 46.0054 26.9021 41.9769 26.2434C37.9141 25.5847 35.695 19.8027 36.9582 13.3253C38.1872 6.81141 42.4548 2.09065 46.4493 2.71277ZM3.7735 19.5465C7.66553 17.7533 12.9573 21.0103 15.7227 26.6825C18.3174 32.4645 17.4297 38.5393 13.5719 40.3325C9.71397 42.1256 4.45631 38.9053 1.7592 33.1598C-0.937906 27.4144 0.0180307 21.3031 3.7735 19.5465ZM65.2266 19.5465C68.9821 21.3031 69.938 27.4144 67.2409 33.1598C64.5438 38.9053 59.2861 42.1256 55.4283 40.3325C51.5704 38.5393 50.6827 32.4645 53.2774 26.6825C56.0428 21.0103 61.3346 17.7533 65.2266 19.5465ZM59.5251 58.996C59.6617 62.4359 57.2036 66.2418 54.2675 67.669C48.1563 70.6698 40.9185 64.4486 34.1245 64.4486C27.3305 64.4486 20.0244 70.9259 14.0157 67.669C10.6016 65.8758 8.24592 61.1185 8.68975 57.1662C9.30428 51.7135 15.4155 48.7859 19.0344 44.7971C23.8482 39.6372 27.2622 29.9395 34.1245 29.9395C40.9526 29.9395 44.5715 39.4908 49.1805 44.7971C52.9701 49.2617 59.2862 53.031 59.5251 58.996Z" fill="black"/>
</svg>
