<svg width="69" height="69" viewBox="0 0 69 69" fill="none" xmlns="http://www.w3.org/2000/svg">
<path d="M22.2009 24.0854H24.2736L24.6568 24.0794V24.0854H38.4098C38.7422 23.2952 39.1237 22.5448 39.5543 21.834L34.8782 14.8358C33.681 13.0445 33.1009 10.7615 33.259 8.46378C33.4171 6.16604 34.3013 4.03124 35.7268 2.50527C37.1523 0.979313 39.0089 0.180211 40.9088 0.27488C42.8087 0.369548 44.605 1.35067 45.9224 3.0133L63.5386 25.2289C65.8538 27.559 67.5252 30.6926 68.3284 34.2085C69.1315 37.7245 69.0277 41.4543 68.0311 44.8967C67.0344 48.339 65.1926 51.329 62.7532 53.4646C60.3138 55.6002 57.3937 56.7791 54.3854 56.843C54.3854 60.0022 53.3505 63.032 51.5082 65.2659C49.6659 67.4998 47.1672 68.7548 44.5618 68.7548H22.2009C18.9441 68.7548 15.8208 67.1861 13.518 64.3937C11.2151 61.6013 9.92137 57.814 9.92137 53.865V47.6113C6.94641 46.864 4.30534 44.8066 2.50826 41.8362C0.711167 38.8659 -0.114443 35.1934 0.190883 31.5281C0.496209 27.8629 1.91081 24.4648 4.16147 21.9902C6.41213 19.5157 9.33917 18.1402 12.3773 18.1294C14.2839 18.1271 16.1648 18.6643 17.8701 19.6983C19.5755 20.7322 21.0584 22.2344 22.2009 24.0854ZM42.3835 7.14076C41.9454 6.57735 41.3439 6.24246 40.706 6.20686C40.0681 6.17125 39.4438 6.43771 38.965 6.94995C38.4861 7.46218 38.1902 8.18007 38.1398 8.95196C38.0893 9.72385 38.2883 10.4893 38.6947 11.0866L46.082 22.1437L44.4661 24.0377C43.5092 25.1598 42.7802 26.536 42.3368 28.058L41.7572 30.0413H24.3449C21.7948 30.1395 19.3762 31.4369 17.601 33.659C15.8258 35.8811 14.8332 38.8535 14.8332 41.9472V53.865C14.8332 56.2344 15.6094 58.5068 16.9911 60.1822C18.3728 61.8576 20.2468 62.7989 22.2009 62.7989H34.4804V61.3099C34.4804 59.3354 33.8335 57.4418 32.6821 56.0456C31.5307 54.6494 29.969 53.865 28.3406 53.865H24.6568C24.0054 53.865 23.3808 53.5513 22.9202 52.9928C22.4596 52.4343 22.2009 51.6768 22.2009 50.887C22.2009 50.0972 22.4596 49.3398 22.9202 48.7813C23.3808 48.2228 24.0054 47.9091 24.6568 47.9091H28.3406C31.2717 47.9091 34.0827 49.3209 36.1552 51.8341C38.2278 54.3472 39.3922 57.7558 39.3922 61.3099V62.7989H44.5618C45.8645 62.7989 47.1139 62.1714 48.035 61.0544C48.9561 59.9375 49.4736 58.4226 49.4736 56.843V50.0621L52.3667 50.6965C52.9365 50.8235 53.5234 50.887 54.1276 50.887C56.1574 50.8874 58.1376 50.1252 59.7957 48.7053C61.4538 47.2855 62.7084 45.2777 63.3871 42.958C64.0658 40.6382 64.1352 38.1205 63.5858 35.751C63.0364 33.3815 61.8951 31.2766 60.3189 29.7256L60.2035 29.6125L42.3835 7.14076ZM9.92628 41.4469C9.99697 38.3816 10.7171 35.3899 12.0173 32.7597C13.3176 30.1295 15.1542 27.9493 17.3505 26.429C16.5442 25.5367 15.5845 24.8727 14.5407 24.4851C13.4969 24.0975 12.3952 23.9961 11.3151 24.188C10.235 24.38 9.20357 24.8605 8.2954 25.595C7.38723 26.3295 6.62501 27.2994 6.06383 28.4348C5.50266 29.5702 5.15657 30.8426 5.05058 32.16C4.94458 33.4775 5.08134 34.807 5.45096 36.0525C5.82058 37.298 6.41383 38.4283 7.18781 39.3617C7.96179 40.2952 8.89715 41.0054 9.92628 41.4469Z" fill="black"/>
</svg>
