<svg width="413" height="297" viewBox="0 0 413 297" fill="none" xmlns="http://www.w3.org/2000/svg">
<path d="M93.2775 29.9141C93.2775 31.2891 93.1316 31.9766 92.84 31.9766C92.84 31.9766 85.2983 31.9141 70.215 31.7891C70.1316 35.8307 70.09 42.1432 70.09 50.7266C70.09 59.3099 70.1108 65.2682 70.1525 68.6016L70.4025 101.727C70.1941 102.31 69.7775 102.622 69.1525 102.664L55.965 102.477L55.9025 102.539L51.7775 102.477H40.34C37.2566 102.477 34.9441 102.497 33.4025 102.539L32.34 101.602C32.2983 101.56 32.0275 101.227 31.5275 100.602C31.5275 96.9349 31.6733 88.7891 31.965 76.1641L32.6525 42.9141L32.5275 41.3516C32.2358 37.2266 31.9441 34.7891 31.6525 34.0391C31.4025 33.2474 30.8816 32.8307 30.09 32.7891C29.2983 32.7057 28.715 32.6641 28.34 32.6641L25.84 32.7891L10.34 32.5391C9.7983 31.4557 9.52747 29.0182 9.52747 25.2266L9.65247 19.7266V18.0391C9.6108 11.3724 9.5483 7.8099 9.46497 7.35156C9.5483 7.35156 9.71497 7.39323 9.96497 7.47656L89.5275 6.78906C91.1525 6.78906 92.1733 6.91406 92.59 7.16406C93.0066 7.3724 93.215 7.78906 93.215 8.41406V24.9141L93.2775 29.9141ZM191.027 101.539C190.986 102.081 189.84 102.352 187.59 102.352H181.84L177.965 102.414H174.152L168.09 102.477C162.048 102.477 157.027 102.331 153.027 102.039C152.902 101.997 152.757 101.747 152.59 101.289L152.277 99.9766C151.902 95.6849 150.923 91.5391 149.34 87.5391L122.59 87.7891C122.423 88.4974 121.882 90.6016 120.965 94.1016C120.048 97.6016 119.361 100.247 118.902 102.039C118.486 102.456 116.507 102.664 112.965 102.664L111.402 102.602H107.777L91.5275 102.977H89.6525L87.9025 103.039H83.5275C83.2358 102.747 82.9233 102.372 82.59 101.914C86.7566 87.4974 92.4025 69.6224 99.5275 48.2891L100.965 43.8516H100.902L102.59 38.6641C103.132 36.9974 104.673 32.3724 107.215 24.7891C109.798 17.2057 111.402 12.3099 112.027 10.1016C112.694 7.89323 113.09 6.7474 113.215 6.66406H123.59L145.777 6.35156L151.777 6.66406L156.715 6.35156C159.215 6.35156 160.465 6.85156 160.465 7.85156C164.632 19.4766 170.194 36.2057 177.152 58.0391C184.111 79.8724 188.027 92.1432 188.902 94.8516L189.777 97.9766C190.069 99.1016 190.486 100.289 191.027 101.539ZM129.152 67.4141L131.715 67.4766L146.652 67.4141C146.027 62.4557 145.548 58.8099 145.215 56.4766L142.84 45.7891C140.34 34.7474 139.048 29.1224 138.965 28.9141C138.882 28.7057 138.798 28.5182 138.715 28.3516C138.673 28.1432 138.632 28.0182 138.59 27.9766C138.548 27.8932 138.486 27.7682 138.402 27.6016C138.361 27.4349 138.298 27.3307 138.215 27.2891C138.173 27.2057 138.111 27.1016 138.027 26.9766C137.736 26.4766 137.132 26.0391 136.215 25.6641C135.09 25.9141 131.736 38.4557 126.152 63.2891L125.465 67.4141H129.152ZM193.902 94.1641C193.902 85.7057 194.132 79.8307 194.59 76.5391C194.59 58.4141 194.84 40.1432 195.34 21.7266C195.215 19.1016 195.152 16.4557 195.152 13.7891V11.7266C194.986 10.4349 194.902 9.28906 194.902 8.28906C194.902 7.28906 195.007 6.64323 195.215 6.35156C204.132 6.89323 211.944 7.16406 218.652 7.16406C225.361 7.16406 229.965 7.03906 232.465 6.78906C232.548 6.91406 232.611 7.26823 232.652 7.85156H232.215V30.4766L232.652 81.3516C232.652 81.7266 232.715 82.0391 232.84 82.2891V82.4141C232.965 82.6641 233.027 82.9349 233.027 83.2266L233.527 101.414C233.319 101.872 232.944 102.227 232.402 102.477H230.277L195.277 103.039C194.861 102.831 194.319 102.518 193.652 102.102L193.715 101.039L193.902 94.1641ZM319.465 76.8516C319.173 78.0182 319.027 79.2682 319.027 80.6016V82.0391C319.027 84.2474 319.173 85.8307 319.465 86.7891C319.465 93.0807 319.444 97.9349 319.402 101.352C319.152 102.435 298.59 102.977 257.715 102.977C255.84 102.977 252.736 102.935 248.402 102.852C247.736 101.602 247.402 99.5391 247.402 96.6641L247.527 92.6016V78.4141L247.59 66.5391V54.7891L247.652 35.8516C247.652 32.3516 247.611 29.0599 247.527 25.9766V25.2891L247.34 16.2891C247.34 10.9974 247.777 7.5599 248.652 5.97656C249.486 6.01823 250.632 6.03906 252.09 6.03906H255.09L265.59 5.91406C277.548 5.91406 284.132 6.66406 285.34 8.16406L284.84 29.9766L284.652 48.2891L284.59 49.0391L284.34 75.0391L286.84 76.4766C294.382 76.0182 301.673 75.7891 308.715 75.7891C315.798 75.7891 319.382 76.1432 319.465 76.8516ZM323.09 75.0391L356.152 74.4766C356.986 74.4766 357.673 75.1849 358.215 76.6016C358.798 78.0182 359.361 79.1432 359.902 79.9766C361.194 81.9766 363.319 82.9766 366.277 82.9766C369.277 82.9766 371.694 82.2891 373.527 80.9141C375.361 79.4974 376.277 77.6849 376.277 75.4766C376.277 73.2682 375.715 71.7682 374.59 70.9766C373.465 70.1432 372.236 69.3516 370.902 68.6016C369.569 67.8099 367.59 67.2057 364.965 66.7891C362.382 66.3724 360.965 66.1224 360.715 66.0391H360.84L357.277 65.1016C354.986 64.6849 353.069 64.2266 351.527 63.7266C341.569 61.0599 334.361 57.7057 329.902 53.6641C325.486 49.6224 323.277 44.1849 323.277 37.3516C323.277 32.3932 324.194 27.9349 326.027 23.9766C327.861 20.0182 330.257 16.7891 333.215 14.2891C341.757 7.08073 353.548 3.47656 368.59 3.47656C380.548 3.47656 389.944 5.64323 396.777 9.97656H396.715C401.09 13.1432 404.09 16.2682 405.715 19.3516C407.34 22.3932 408.361 26.1641 408.777 30.6641L407.152 32.2891C396.194 32.7057 386.486 32.9141 378.027 32.9141C375.486 32.9141 373.965 32.1641 373.465 30.6641C373.257 30.0391 373.027 29.4141 372.777 28.7891C372.194 27.2891 370.319 26.5391 367.152 26.5391H366.902C364.444 26.5391 362.34 27.1224 360.59 28.2891C358.84 29.4141 357.944 30.5182 357.902 31.6016C357.902 32.6849 358.132 33.5807 358.59 34.2891C359.09 34.9974 359.611 35.5599 360.152 35.9766C360.694 36.3932 361.527 36.8307 362.652 37.2891C363.777 37.7057 364.611 37.9974 365.152 38.1641C365.736 38.2891 366.632 38.5182 367.84 38.8516L370.027 39.4141C370.902 39.6641 373.444 40.2891 377.652 41.2891C381.902 42.2891 385.444 43.2474 388.277 44.1641V44.1016C397.152 47.1016 403.194 50.8516 406.402 55.3516C409.652 59.8099 411.277 65.0182 411.277 70.9766C411.277 86.8516 401.798 97.1432 382.84 101.852C377.34 103.227 371.465 104.206 365.215 104.789C357.548 104.789 349.965 103.664 342.465 101.414C334.965 99.1641 329.944 95.4974 327.402 90.4141C325.694 87.9557 324.548 85.7057 323.965 83.6641C323.382 81.5807 322.902 78.6849 322.527 74.9766C322.652 75.0182 322.84 75.0391 323.09 75.0391Z" fill="#F0F0F0"/>
<path d="M250.012 153.797C250.012 153.836 249.992 153.934 249.953 154.09V154.266C249.797 155.906 249.719 157.742 249.719 159.773C249.719 161.805 249.875 163.953 250.188 166.219C250.539 168.484 251.086 170.75 251.828 173.016C252.609 175.281 253.801 177.117 255.402 178.523C257.121 180.008 259.035 180.75 261.145 180.75C263.293 180.75 265.09 180.457 266.535 179.871C268.02 179.246 269.25 178.465 270.227 177.527C271.242 176.59 272.121 175.32 272.863 173.719C274.738 169.461 275.676 162.859 275.676 153.914C275.676 144.812 274.621 138.445 272.512 134.812C270.442 131.141 267.297 129.305 263.078 129.305C260.969 129.305 259.113 129.812 257.512 130.828C255.949 131.844 254.758 132.898 253.938 133.992C253.156 135.086 252.336 137.41 251.477 140.965C250.656 144.52 250.246 147.801 250.246 150.809L250.012 153.797ZM216.32 154.266L216.438 152.977C216.906 148.094 217.531 143.777 218.313 140.027C219.094 136.238 220.363 132.703 222.121 129.422C226.301 122.195 232.121 116.727 239.582 113.016C247.082 109.266 255.149 107.391 263.781 107.391C272.453 107.391 280.324 109.129 287.395 112.605C291.613 114.676 294.914 117.293 297.297 120.457C301.867 126.16 304.875 131.414 306.32 136.219C307.766 141.023 308.488 146.57 308.488 152.859C308.488 166.844 305.598 177.508 299.817 184.852L297.121 188.426C293.488 192.645 288.352 195.906 281.711 198.211C275.07 200.477 268.488 201.648 261.965 201.727C250.793 201.727 241.633 199.383 234.484 194.695C222.375 186.844 216.32 173.367 216.32 154.266ZM406.047 157.312L405.988 161.238V182.918L406.106 193.23V196.16L406.164 198.914C405.93 199.227 404.973 199.383 403.293 199.383H401.77L383.371 199.617C375.559 199.617 369.738 199.598 365.91 199.559C365.324 198.934 363.195 193.25 359.524 182.508L348.332 152.801L346.223 153.094L346.164 159.07V174.949L346.399 190.828V197.391C346.399 199.148 346.008 200.066 345.227 200.145C341.359 200.027 337.668 199.969 334.152 199.969H332.336L323.488 200.203H322.317L318.098 200.32L317.922 200.203C316.633 198.992 315.988 198.113 315.988 197.566V196.512L316.047 195.34L316.34 172.488C316.34 147.41 316.574 128.445 317.043 115.594L317.16 110.73C317.16 110.379 330.617 110.066 357.531 109.793C357.766 109.949 358.117 110.809 358.586 112.371V112.195L358.938 113.367C361.828 121.648 365.344 131.16 369.484 141.902C373.625 152.605 375.734 158.074 375.813 158.309L377.805 158.191L378.039 110.438C378.039 110.125 380.891 109.969 386.594 109.969L401.301 110.262H405.637C405.91 123.191 406.047 138.875 406.047 157.312Z" fill="#F0F0F0"/>
<path d="M9.4845 246.443C10.422 237.537 11.9845 230.838 14.172 226.346C18.3517 217.674 24.5822 211.521 32.8634 207.889C40.2462 204.646 48.2736 203.025 56.9454 203.025C71.4767 203.025 82.0822 207.01 88.7618 214.979C92.7853 219.705 95.1095 225.584 95.7345 232.615L96.2618 238.123C95.5978 238.748 91.3986 239.061 83.6642 239.061L74.3478 238.943H73.5861L68.4884 238.826L67.0822 238.885H65.9103C64.8165 238.885 63.9767 237.283 63.3907 234.08C62.8439 230.877 61.9845 228.768 60.8126 227.752C59.6798 226.697 58.3517 226.17 56.8282 226.17C55.3048 226.17 53.9572 226.443 52.7853 226.99C51.6525 227.537 50.715 228.201 49.9728 228.982C49.2306 229.725 48.6056 230.799 48.0978 232.205C47.1603 234.627 46.5939 237.205 46.3986 239.939C46.2032 242.635 46.1056 245.662 46.1056 249.021V250.428L45.8712 256.346C45.8712 267.127 48.9181 272.635 55.0118 272.869C56.5743 272.869 57.6681 272.596 58.2931 272.049C59.9728 270.564 61.4376 267.576 62.6876 263.084C62.9611 262.146 63.2931 261.385 63.6837 260.799H65.9103L68.6056 260.857H78.0978L80.9689 260.799L86.5353 260.857H89.9337L93.3907 260.916H95.7345C96.2032 260.955 96.5353 261.365 96.7306 262.146L96.5548 264.08C96.2032 268.689 95.129 272.869 93.3322 276.619C90.0118 283.494 84.7775 288.611 77.629 291.971C70.5197 295.291 62.7072 296.951 54.1915 296.951C39.3087 296.951 28.1368 292.557 20.6759 283.768C13.215 274.979 9.4845 262.537 9.4845 246.443ZM197.219 293.787C197.18 294.295 196.106 294.549 193.996 294.549H188.606L184.973 294.607H181.399L175.715 294.666C170.051 294.666 165.344 294.529 161.594 294.256C161.477 294.217 161.34 293.982 161.184 293.553L160.891 292.322C160.539 288.299 159.621 284.412 158.137 280.662L133.059 280.896C132.902 281.561 132.395 283.533 131.535 286.814C130.676 290.096 130.031 292.576 129.602 294.256C129.211 294.646 127.356 294.842 124.035 294.842L122.57 294.783H119.172L103.938 295.135H102.18L100.539 295.193H96.4376C96.1642 294.92 95.8712 294.568 95.5587 294.139C99.465 280.623 104.758 263.865 111.438 243.865L112.785 239.705H112.727L114.309 234.842C114.817 233.279 116.262 228.943 118.645 221.834C121.067 214.725 122.57 210.135 123.156 208.064C123.781 205.994 124.152 204.92 124.27 204.842H133.996L154.797 204.549L160.422 204.842L165.051 204.549C167.395 204.549 168.567 205.018 168.567 205.955C172.473 216.854 177.688 232.537 184.211 253.006C190.734 273.475 194.406 284.979 195.227 287.518L196.047 290.447C196.32 291.502 196.711 292.615 197.219 293.787ZM139.211 261.795L141.613 261.854L155.617 261.795C155.031 257.146 154.582 253.729 154.27 251.541L152.043 241.521C149.699 231.17 148.488 225.896 148.41 225.701C148.332 225.506 148.254 225.33 148.176 225.174C148.137 224.979 148.098 224.861 148.059 224.822C148.02 224.744 147.961 224.627 147.883 224.471C147.844 224.314 147.785 224.217 147.707 224.178C147.668 224.1 147.609 224.002 147.531 223.885C147.258 223.416 146.692 223.006 145.832 222.654C144.777 222.889 141.633 234.646 136.399 257.928L135.754 261.795H139.211ZM230.852 242.752C230.383 253.807 230.149 265.174 230.149 276.854V294.314H225.871L224.406 294.256L203.606 294.432C202.277 294.432 201.574 294.451 201.496 294.49C201.496 294.451 201.574 294.119 201.731 293.494V293.143L201.789 292.908C201.594 290.096 201.496 286.678 201.496 282.654L201.731 217.205L201.672 214.158V211.229L201.555 205.721C201.555 205.33 201.77 204.92 202.199 204.49H210.227L214.914 204.432C225.93 204.432 233.801 204.588 238.527 204.9C243.293 205.213 246.711 205.369 248.781 205.369C249.914 212.088 251.594 220.994 253.82 232.088L257.981 253.064H260.031L267.531 214.744C267.649 214.158 267.922 212.459 268.352 209.646C268.781 206.795 269.113 205.213 269.348 204.9H269.582L307.727 204.549L310.012 204.607H316.574C316.926 204.764 317.121 205.486 317.16 206.775L317.746 228.924C318.215 247.283 318.547 261.58 318.742 271.814C318.742 279.705 318.625 287.107 318.391 294.021C318.274 294.49 317.492 294.764 316.047 294.842L313.41 294.959C311.301 295.037 309.738 295.076 308.723 295.076H305.676C301.887 295.115 296.301 295.135 288.918 295.135C287.551 293.924 286.867 288.689 286.867 279.432L286.984 261.033V256.287C286.984 252.107 286.965 249.021 286.926 247.029L284.699 246.619C283.41 251.346 280.93 261.873 277.258 278.201L276.731 280.545C276.457 281.756 275.988 283.924 275.324 287.049C274.699 290.135 274.192 292.479 273.801 294.08C273.332 294.627 271.262 294.9 267.59 294.9H266.828L260.266 294.725L256.692 294.783H253.938L249.309 294.842H247.668C245.871 294.842 244.875 294.432 244.68 293.611L244.738 293.67L239.406 270.408C239.25 269.822 238.899 268.553 238.352 266.6C237.805 264.607 237.492 262.947 237.414 261.619L233.02 242.635L230.852 242.752ZM329.289 254.412L329.406 230.33V205.896C329.484 205.857 329.856 205.838 330.52 205.838H332.688C333.508 205.838 334.133 205.799 334.563 205.721L341.828 205.428C343.703 205.35 345.149 205.311 346.164 205.311H355.481L372.707 204.9C375.051 204.9 377.629 204.998 380.442 205.193H380.852C382.18 205.115 383.02 205.076 383.371 205.076C391.184 205.076 397.863 207.557 403.41 212.518C406.106 214.9 408.234 217.967 409.797 221.717C411.359 225.467 412.141 229.354 412.141 233.377C412.141 237.361 411.731 240.76 410.91 243.572C410.09 246.385 409.035 248.768 407.746 250.721C402.59 258.611 392.609 263.221 377.805 264.549L365.149 265.076C364.758 274.451 364.563 281.736 364.563 286.932L364.621 288.748V293.494C364.465 294.041 364.172 294.412 363.742 294.607L330.285 295.135C329.621 293.26 329.289 290.252 329.289 286.111V254.412ZM380.559 229.275C378.996 225.174 374.856 222.986 368.137 222.713C367.16 222.674 365.813 222.654 364.094 222.654C363.625 222.654 363.332 228.416 363.215 239.939L363.098 244.334L363.274 247.85C368.078 247.771 372.297 246.756 375.93 244.803C379.602 242.85 381.438 239.295 381.438 234.139C381.438 231.951 381.145 230.33 380.559 229.275Z" fill="#F0F0F0"/>
</svg>
