<svg width="125" height="126" viewBox="0 0 125 126" fill="none" xmlns="http://www.w3.org/2000/svg">
<path d="M43.1407 28.0103C43.1407 22.8302 45.1894 17.8624 48.8362 14.1996C52.483 10.5368 57.4291 8.479 62.5865 8.479C67.7438 8.479 72.69 10.5368 76.3368 14.1996C79.9836 17.8624 82.0323 22.8302 82.0323 28.0103C82.0323 33.1903 79.9836 38.1581 76.3368 41.8209C72.69 45.4838 67.7438 47.5415 62.5865 47.5415C57.4291 47.5415 52.483 45.4838 48.8362 41.8209C45.1894 38.1581 43.1407 33.1903 43.1407 28.0103ZM50.919 55.354C47.8246 55.354 44.8569 56.5887 42.6688 58.7863C40.4807 60.984 39.2515 63.9648 39.2515 67.0728V86.604C39.2515 92.82 41.71 98.7814 46.0861 103.177C50.4623 107.572 56.3977 110.042 62.5865 110.042C68.7753 110.042 74.7107 107.572 79.0868 103.177C83.463 98.7814 85.9215 92.82 85.9215 86.604V67.0728C85.9215 63.9648 84.6922 60.984 82.5042 58.7863C80.3161 56.5887 77.3484 55.354 74.254 55.354H50.919ZM31.9087 62.9321C31.6171 64.2928 31.471 65.6809 31.4732 67.0728V86.604C31.4724 90.7853 32.307 94.9242 33.9277 98.7756C35.5484 102.627 37.9221 106.113 40.9083 109.026L40.1304 109.245C34.1542 110.851 27.7875 110.007 22.4301 106.9C17.0727 103.793 13.1631 98.6759 11.5606 92.6743L8.53485 81.3462C8.13847 79.8596 8.03751 78.3091 8.23774 76.7833C8.43797 75.2575 8.93546 73.7863 9.70182 72.4536C10.4682 71.1209 11.4884 69.9529 12.7042 69.0163C13.92 68.0796 15.3075 67.3927 16.7877 66.9946L31.9087 62.9321ZM84.2569 109.026C87.2445 106.113 89.6196 102.628 91.2417 98.7765C92.8637 94.9251 93.6996 90.7858 93.6998 86.604V67.0728C93.6946 65.6457 93.5494 64.2655 93.2642 62.9321L108.378 66.9946C109.859 67.3926 111.247 68.0798 112.463 69.017C113.68 69.9542 114.7 71.123 115.467 72.4565C116.233 73.7901 116.73 75.2623 116.93 76.789C117.13 78.3156 117.028 79.8669 116.63 81.354L113.612 92.6743C112.802 95.7125 111.391 98.5558 109.463 101.035C107.535 103.514 105.131 105.577 102.392 107.103C99.6537 108.629 96.6374 109.586 93.5231 109.916C90.4088 110.246 87.2523 109.944 84.2569 109.026ZM8.13816 39.729C8.13816 35.585 9.77716 31.6107 12.6946 28.6805C15.612 25.7502 19.5689 24.104 23.6948 24.104C27.8207 24.104 31.7776 25.7502 34.695 28.6805C37.6125 31.6107 39.2515 35.585 39.2515 39.729C39.2515 43.873 37.6125 47.8473 34.695 50.7776C31.7776 53.7078 27.8207 55.354 23.6948 55.354C19.5689 55.354 15.612 53.7078 12.6946 50.7776C9.77716 47.8473 8.13816 43.873 8.13816 39.729ZM85.9215 39.729C85.9215 35.585 87.5605 31.6107 90.4779 28.6805C93.3954 25.7502 97.3523 24.104 101.478 24.104C105.604 24.104 109.561 25.7502 112.478 28.6805C115.396 31.6107 117.035 35.585 117.035 39.729C117.035 43.873 115.396 47.8473 112.478 50.7776C109.561 53.7078 105.604 55.354 101.478 55.354C97.3523 55.354 93.3954 53.7078 90.4779 50.7776C87.5605 47.8473 85.9215 43.873 85.9215 39.729Z" fill="black"/>
</svg>
